<svg width="25" height="28" viewBox="0 0 25 28" fill="none" xmlns="http://www.w3.org/2000/svg">
<path d="M1 17V25.5833C1 26.1356 1.44772 26.5833 2 26.5833H23C23.5523 26.5833 24 26.1356 24 25.5833V17" stroke="#E7441C" stroke-width="2"/>
<path d="M12.5592 20.7149C12.955 21.1001 13.5881 21.0915 13.9733 20.6958L20.2507 14.2464C20.6359 13.8506 20.6274 13.2175 20.2316 12.8323C19.8358 12.4471 19.2027 12.4557 18.8175 12.8514L13.2376 18.5842L7.50483 13.0043C7.10906 12.6191 6.47595 12.6276 6.09074 13.0234C5.70553 13.4191 5.71408 14.0522 6.10985 14.4375L12.5592 20.7149ZM12.0001 1.01351L12.2568 20.0118L14.2566 19.9848L13.9999 0.98649L12.0001 1.01351Z" fill="#E7441C"/>
</svg>
