<svg width="691" height="89" viewBox="0 0 691 89" fill="none" xmlns="http://www.w3.org/2000/svg">
<g filter="url(#filter0_i)">
<path d="M546.837 72H579.871V66.375H555.53V65.9659L567.292 53.3864C576.292 43.7472 578.951 39.2472 578.951 33.4432C578.951 25.3636 572.405 18.9205 563.201 18.9205C554.022 18.9205 547.042 25.1591 547.042 34.3636H553.076C553.076 28.4062 556.937 24.4432 562.996 24.4432C568.672 24.4432 573.019 27.9205 573.019 33.4432C573.019 38.2756 570.181 41.8551 564.121 48.4773L546.837 67.3977V72ZM584.507 72H591.155L614.473 25.5682V19.6364H580.928V25.2614H607.928V25.6705L584.507 72Z" fill="#0093DD" fill-opacity="0.5"/>
</g>
<path d="M612.427 49H613.791C619.586 49 621.257 44.5 621.632 35.9091L622.041 26.5682H631.654V49H635.677V22.8182H618.223L617.745 34.4091C617.404 43.2045 616.518 45.25 613.382 45.25H612.427V49ZM648.995 49.5455C654.313 49.5455 658.2 46.8864 659.427 42.9318L655.54 41.8409C654.518 44.5682 652.148 45.9318 648.995 45.9318C644.273 45.9318 641.018 42.8807 640.83 37.2727H659.836V35.5682C659.836 25.8182 654.04 22.4773 648.586 22.4773C641.495 22.4773 636.79 28.0682 636.79 36.1136C636.79 44.1591 641.427 49.5455 648.995 49.5455ZM640.83 33.7955C641.103 29.7216 643.984 26.0909 648.586 26.0909C652.95 26.0909 655.745 29.3636 655.745 33.7955H640.83ZM658.478 26.5682H667.137V49H671.16V26.5682H679.75V22.8182H658.478V26.5682Z" fill="black"/>
<path d="M622.223 72.2727C625.768 72.2727 628.154 69.5795 628.154 65.5227C628.154 61.4318 625.768 58.7386 622.223 58.7386C618.677 58.7386 616.291 61.4318 616.291 65.5227C616.291 69.5795 618.677 72.2727 622.223 72.2727ZM622.223 70.4659C619.529 70.4659 618.302 68.1477 618.302 65.5227C618.302 62.8977 619.529 60.5455 622.223 60.5455C624.916 60.5455 626.143 62.8977 626.143 65.5227C626.143 68.1477 624.916 70.4659 622.223 70.4659ZM628.705 72H630.716V60.7841H636.989V72H639V58.9091H628.705V72ZM642.165 63.6477V58.9091H640.153V72H645.642C648.71 72 650.381 70.125 650.381 67.7727C650.381 65.3864 648.71 63.6477 645.642 63.6477H642.165ZM652.46 72H654.472V58.9091H652.46V72ZM642.165 65.5227H645.642C647.236 65.5227 648.369 66.4943 648.369 67.875C648.369 69.196 647.236 70.125 645.642 70.125H642.165V65.5227ZM654.883 60.7841H659.213V72H661.224V60.7841H665.52V58.9091H654.883V60.7841ZM669.106 72.3068C671.39 72.3068 672.584 71.0795 672.993 70.2273H673.095V72H675.106V63.375C675.106 59.2159 671.936 58.7386 670.265 58.7386C668.288 58.7386 666.038 59.4205 665.015 61.8068L666.924 62.4886C667.368 61.5341 668.416 60.5114 670.334 60.5114C672.183 60.5114 673.095 61.4915 673.095 63.1705V63.2386C673.095 64.2102 672.106 64.125 669.72 64.4318C667.291 64.7472 664.64 65.2841 664.64 68.2841C664.64 70.8409 666.618 72.3068 669.106 72.3068ZM669.413 70.5C667.811 70.5 666.652 69.7841 666.652 68.3864C666.652 66.8523 668.049 66.375 669.618 66.1705C670.47 66.0682 672.754 65.8295 673.095 65.4205V67.2614C673.095 68.8977 671.799 70.5 669.413 70.5Z" fill="#1D1D1D"/>
<g filter="url(#filter1_i)">
<path d="M23.1918 70.7159C33.3423 70.7159 40.8849 64.3494 40.8849 55.7841C40.8849 49.1364 36.9474 44.304 30.3509 43.2045V42.7955C35.6435 41.1847 38.9418 36.8381 38.9418 30.9318C38.9418 23.517 33.0866 16.9205 23.3963 16.9205C14.3452 16.9205 6.82812 22.4943 6.52131 30.7273H12.6577C12.8878 25.5114 17.848 22.4432 23.294 22.4432C29.0724 22.4432 32.8054 25.946 32.8054 31.2386C32.8054 36.7614 28.4844 40.3409 22.2713 40.3409H18.0781V45.9659H22.2713C30.223 45.9659 34.6463 50.0057 34.6463 55.7841C34.6463 61.3324 29.8139 65.0909 23.0895 65.0909C17.0298 65.0909 12.223 61.9716 11.8395 56.9091H5.39631C5.77983 65.142 13.0412 70.7159 23.1918 70.7159Z" fill="#0093DD" fill-opacity="0.5"/>
</g>
<path d="M46.8864 53.5H50.9091V46H70.2727V53.5H74.2955V42.25H70.2727V19.8182H53.6364L52.75 30.1818C52.1193 37.5114 51.1818 40.0341 49.0682 42.25H46.8864V53.5ZM53.6364 42.25C55.4773 39.8295 56.142 35.6534 56.7045 30.1818L57.3864 23.5682H66.25V42.25H53.6364ZM83.6577 19.8182H79.6349V46H83.6577V34.8182H96.2031V46H100.226V19.8182H96.2031V31.0682H83.6577V19.8182ZM123.322 46H127.141V19.8182H116.368C110.726 19.8182 107.3 22.767 107.3 27.5909C107.3 31.1875 109.107 33.7443 112.26 34.8182L105.868 46H110.232L116.3 35.3636H123.322V46ZM123.322 31.6136H115.891C113.044 31.6136 111.322 30.0966 111.322 27.5909C111.322 25.0511 113.232 23.5 116.368 23.5H123.322V31.6136Z" fill="#1F1F1F"/>
<path d="M140.341 31.5795H132.705V33.4545H140.341V31.5795ZM155.948 40.2727C158.846 40.2727 160.755 38.5 161.096 36.1818H159.085C158.71 37.6136 157.516 38.4659 155.948 38.4659C153.562 38.4659 152.028 36.4886 152.028 33.4545C152.028 30.4886 153.596 28.5455 155.948 28.5455C157.721 28.5455 158.778 29.6364 159.085 30.8295H161.096C160.755 28.375 158.675 26.7386 155.914 26.7386C152.369 26.7386 150.016 29.5341 150.016 33.5227C150.016 37.4432 152.266 40.2727 155.948 40.2727ZM164.036 44.9091H166.048V37.9886H166.218C166.661 38.7045 167.513 40.2727 170.036 40.2727C173.309 40.2727 175.593 37.6477 175.593 33.4886C175.593 29.3636 173.309 26.7386 170.002 26.7386C167.445 26.7386 166.661 28.3068 166.218 28.9886H165.979V26.9091H164.036V44.9091ZM166.013 33.4545C166.013 30.5227 167.309 28.5455 169.763 28.5455C172.32 28.5455 173.582 30.6932 173.582 33.4545C173.582 36.25 172.286 38.4659 169.763 38.4659C167.343 38.4659 166.013 36.4205 166.013 33.4545ZM183.979 40.2727C187.525 40.2727 189.911 37.5795 189.911 33.5227C189.911 29.4318 187.525 26.7386 183.979 26.7386C180.434 26.7386 178.048 29.4318 178.048 33.5227C178.048 37.5795 180.434 40.2727 183.979 40.2727ZM183.979 38.4659C181.286 38.4659 180.059 36.1477 180.059 33.5227C180.059 30.8977 181.286 28.5455 183.979 28.5455C186.673 28.5455 187.9 30.8977 187.9 33.5227C187.9 36.1477 186.673 38.4659 183.979 38.4659ZM192.982 40H194.993V34.4773H196.8L201.095 40H203.686L198.334 33.2159L203.618 26.9091H201.027L196.322 32.6023H194.993V26.9091H192.982V40Z" fill="black"/>
<path d="M52.0007 66.0341V55.9091H49.9893V69H52.3416L58.6143 58.875V69H60.6257V55.9091H58.3075L52.0007 66.0341ZM63.4915 65.6591C63.5597 67.8068 65.6136 69.2727 68.4006 69.2727C71.2642 69.2727 73.3438 67.7386 73.3438 65.3523C73.3438 63.7159 72.3636 62.3864 70.8892 62.2841V62.1477C72.1335 61.7642 73.071 60.8608 73.071 59.3864C73.071 57.3153 71.2983 55.7386 68.5369 55.7386C65.8097 55.7386 63.8665 57.2386 63.7983 59.3523H65.9119C65.9716 58.2699 67.1051 57.5114 68.6392 57.5114C70.1648 57.5114 71.0256 58.2869 71.0256 59.4545C71.0256 60.5455 70.2756 61.3636 68.6733 61.3636H66.4233V63.1705H68.6733C70.2756 63.1705 71.2983 64.0483 71.2983 65.3523C71.2983 66.8438 69.9773 67.4659 68.3665 67.4659C66.7898 67.4659 65.733 66.8438 65.6392 65.6591H63.4915ZM84.2486 55.9091H76.169V69H78.1804V57.7841H84.2486V55.9091ZM91.8232 69.2727C95.3686 69.2727 97.755 66.5795 97.755 62.5227C97.755 58.4318 95.3686 55.7386 91.8232 55.7386C88.2777 55.7386 85.8913 58.4318 85.8913 62.5227C85.8913 66.5795 88.2777 69.2727 91.8232 69.2727ZM91.8232 67.4659C89.13 67.4659 87.9027 65.1477 87.9027 62.5227C87.9027 59.8977 89.13 57.5455 91.8232 57.5455C94.5163 57.5455 95.7436 59.8977 95.7436 62.5227C95.7436 65.1477 94.5163 67.4659 91.8232 67.4659ZM99.1143 57.7841H103.444V69H105.455V57.7841H109.751V55.9091H99.1143V57.7841ZM117.323 69.2727C120.869 69.2727 123.255 66.5795 123.255 62.5227C123.255 58.4318 120.869 55.7386 117.323 55.7386C113.778 55.7386 111.391 58.4318 111.391 62.5227C111.391 66.5795 113.778 69.2727 117.323 69.2727ZM117.323 67.4659C114.63 67.4659 113.403 65.1477 113.403 62.5227C113.403 59.8977 114.63 57.5455 117.323 57.5455C120.016 57.5455 121.244 59.8977 121.244 62.5227C121.244 65.1477 120.016 67.4659 117.323 67.4659ZM126.325 69H132.496C135.155 69 136.757 67.5 136.757 65.4886C136.757 63.4347 135.197 62.3267 133.757 62.1136C135.232 61.8068 136.28 60.9801 136.28 59.3864C136.28 57.2983 134.49 55.9091 131.678 55.9091H126.325V69ZM128.234 67.1591V63.1364H132.496C133.876 63.1364 134.712 63.9631 134.712 65.3182C134.712 66.4602 133.876 67.1591 132.496 67.1591H128.234ZM128.234 61.3977V57.75H131.678C133.288 57.75 134.268 58.4233 134.268 59.5227C134.268 60.6903 133.288 61.3977 131.678 61.3977H128.234ZM138.643 69H139.325C142.222 69 143.058 66.75 143.245 62.4545L143.45 57.7841H148.256V69H150.268V55.9091H141.54L141.302 61.7045C141.131 66.1023 140.688 67.125 139.12 67.125H138.643V69ZM159.447 69.2727C162.106 69.2727 164.049 67.9432 164.663 65.9659L162.719 65.4205C162.208 66.7841 161.023 67.4659 159.447 67.4659C157.086 67.4659 155.458 65.9403 155.364 63.1364H164.867V62.2841C164.867 57.4091 161.969 55.7386 159.242 55.7386C155.697 55.7386 153.344 58.5341 153.344 62.5568C153.344 66.5795 155.663 69.2727 159.447 69.2727ZM155.364 61.3977C155.501 59.3608 156.941 57.5455 159.242 57.5455C161.424 57.5455 162.822 59.1818 162.822 61.3977H155.364ZM169.938 55.9091H167.927V69H169.938V63.4091H176.211V69H178.222V55.9091H176.211V61.5341H169.938V55.9091ZM183.907 66.0341V55.9091H181.896V69H184.248L190.521 58.875V69H192.532V55.9091H190.214L183.907 66.0341ZM204.091 69H206V55.9091H200.614C197.793 55.9091 196.08 57.3835 196.08 59.7955C196.08 61.5938 196.983 62.8722 198.56 63.4091L195.364 69H197.545L200.58 63.6818H204.091V69ZM204.091 61.8068H200.375C198.952 61.8068 198.091 61.0483 198.091 59.7955C198.091 58.5256 199.045 57.75 200.614 57.75H204.091V61.8068Z" fill="black"/>
<g filter="url(#filter2_i)">
<path d="M272.502 70.7159C282.652 70.7159 290.195 64.3494 290.195 55.7841C290.195 49.1364 286.257 44.304 279.661 43.2045V42.7955C284.953 41.1847 288.252 36.8381 288.252 30.9318C288.252 23.517 282.397 16.9205 272.706 16.9205C263.655 16.9205 256.138 22.4943 255.831 30.7273H261.968C262.198 25.5114 267.158 22.4432 272.604 22.4432C278.382 22.4432 282.115 25.946 282.115 31.2386C282.115 36.7614 277.794 40.3409 271.581 40.3409H267.388V45.9659H271.581C279.533 45.9659 283.956 50.0057 283.956 55.7841C283.956 61.3324 279.124 65.0909 272.399 65.0909C266.34 65.0909 261.533 61.9716 261.149 56.9091H254.706C255.09 65.142 262.351 70.7159 272.502 70.7159ZM310.172 70.7159C321.729 70.7159 328.376 60.9233 328.376 43.8182C328.376 26.8409 321.626 16.9205 310.172 16.9205C298.717 16.9205 291.967 26.8409 291.967 43.8182C291.967 60.9233 298.615 70.7159 310.172 70.7159ZM310.172 65.0909C302.553 65.0909 298.104 57.446 298.104 43.8182C298.104 30.2159 302.604 22.4432 310.172 22.4432C317.74 22.4432 322.24 30.2159 322.24 43.8182C322.24 57.446 317.791 65.0909 310.172 65.0909ZM357.226 60.1818C357.226 65.9091 360.805 70.7159 367.453 70.7159C373.998 70.7159 377.578 65.9091 377.578 60.1818V57.4205C377.578 51.6932 374.101 46.8864 367.453 46.8864C360.907 46.8864 357.226 51.6932 357.226 57.4205V60.1818ZM331.146 30.2159C331.146 35.9432 334.726 40.75 341.373 40.75C347.919 40.75 351.498 35.9432 351.498 30.2159V27.4545C351.498 21.7273 348.021 16.9205 341.373 16.9205C334.828 16.9205 331.146 21.7273 331.146 27.4545V30.2159ZM333.089 70H338.919L374.919 17.6364H369.089L333.089 70ZM362.441 57.4205C362.441 54.25 363.873 51.2841 367.453 51.2841C371.135 51.2841 372.362 54.25 372.362 57.4205V60.1818C372.362 63.3523 371.032 66.3182 367.453 66.3182C363.771 66.3182 362.441 63.3523 362.441 60.1818V57.4205ZM336.362 27.4545C336.362 24.2841 337.794 21.3182 341.373 21.3182C345.055 21.3182 346.282 24.2841 346.282 27.4545V30.2159C346.282 33.3864 344.953 36.3523 341.373 36.3523C337.691 36.3523 336.362 33.3864 336.362 30.2159V27.4545Z" fill="#0093DD" fill-opacity="0.5"/>
</g>
<path d="M385.028 55.9091H383.017V69H385.028V63.4091H391.301V69H393.312V55.9091H391.301V61.5341H385.028V55.9091ZM396.477 66.0341V55.9091H394.466V69H396.818L403.091 58.875V69H405.102V55.9091H402.784L396.477 66.0341ZM405.448 69H407.868L412.334 63.375H413.357V69H415.368V63.375H416.391L420.823 69H423.243L417.959 62.3523L423.175 55.9091H420.789L416.425 61.5H415.368V55.9091H413.357V61.5H412.266L407.902 55.9091H405.516L410.766 62.3523L405.448 69ZM428.547 69.2727C431.206 69.2727 433.149 67.9432 433.763 65.9659L431.82 65.4205C431.308 66.7841 430.124 67.4659 428.547 67.4659C426.186 67.4659 424.558 65.9403 424.465 63.1364H433.967V62.2841C433.967 57.4091 431.07 55.7386 428.342 55.7386C424.797 55.7386 422.445 58.5341 422.445 62.5568C422.445 66.5795 424.763 69.2727 428.547 69.2727ZM424.465 61.3977C424.601 59.3608 426.041 57.5455 428.342 57.5455C430.524 57.5455 431.922 59.1818 431.922 61.3977H424.465ZM438.737 73.9091H440.749V66.9886H440.919C441.362 67.7045 442.214 69.2727 444.737 69.2727C448.01 69.2727 450.294 66.6477 450.294 62.4886C450.294 58.3636 448.01 55.7386 444.703 55.7386C442.146 55.7386 441.362 57.3068 440.919 57.9886H440.68V55.9091H438.737V73.9091ZM440.714 62.4545C440.714 59.5227 442.01 57.5455 444.464 57.5455C447.021 57.5455 448.283 59.6932 448.283 62.4545C448.283 65.25 446.987 67.4659 444.464 67.4659C442.044 67.4659 440.714 65.4205 440.714 62.4545ZM452.854 60.6477V55.9091H450.842V69H456.331C459.399 69 461.069 67.125 461.069 64.7727C461.069 62.3864 459.399 60.6477 456.331 60.6477H452.854ZM463.149 69H465.16V55.9091H463.149V69ZM452.854 62.5227H456.331C457.925 62.5227 459.058 63.4943 459.058 64.875C459.058 66.196 457.925 67.125 456.331 67.125H452.854V62.5227ZM468.334 55.9091H466.322V69H468.334V63.4091H474.606V69H476.618V55.9091H474.606V61.5341H468.334V55.9091ZM477.771 69H479.782V63.4773H481.589L485.885 69H488.475L483.123 62.2159L488.407 55.9091H485.816L481.112 61.6023H479.782V55.9091H477.771V69ZM491.994 69.3068C494.278 69.3068 495.471 68.0795 495.88 67.2273H495.982V69H497.994V60.375C497.994 56.2159 494.823 55.7386 493.153 55.7386C491.176 55.7386 488.926 56.4205 487.903 58.8068L489.812 59.4886C490.255 58.5341 491.303 57.5114 493.221 57.5114C495.071 57.5114 495.982 58.4915 495.982 60.1705V60.2386C495.982 61.2102 494.994 61.125 492.607 61.4318C490.178 61.7472 487.528 62.2841 487.528 65.2841C487.528 67.8409 489.505 69.3068 491.994 69.3068ZM492.301 67.5C490.698 67.5 489.539 66.7841 489.539 65.3864C489.539 63.8523 490.937 63.375 492.505 63.1705C493.357 63.0682 495.642 62.8295 495.982 62.4205V64.2614C495.982 65.8977 494.687 67.5 492.301 67.5Z" fill="#1D1D1D"/>
<path d="M402.278 19.8182H398.255V42.25H385.71V19.8182H381.687V46H401.937V54.4545H405.96V42.25H402.278V19.8182ZM417.812 46.5455C423.13 46.5455 427.016 43.8864 428.244 39.9318L424.357 38.8409C423.335 41.5682 420.965 42.9318 417.812 42.9318C413.09 42.9318 409.835 39.8807 409.647 34.2727H428.653V32.5682C428.653 22.8182 422.857 19.4773 417.403 19.4773C410.312 19.4773 405.607 25.0682 405.607 33.1136C405.607 41.1591 410.244 46.5455 417.812 46.5455ZM409.647 30.7955C409.92 26.7216 412.801 23.0909 417.403 23.0909C421.766 23.0909 424.562 26.3636 424.562 30.7955H409.647ZM433.755 19.8182H429.732V46H433.755V34.8182H446.3V46H450.323V19.8182H446.3V31.0682H433.755V19.8182ZM460.334 46.6136C464.902 46.6136 467.289 44.1591 468.107 42.4545H468.311V46H472.334V28.75C472.334 20.4318 465.993 19.4773 462.652 19.4773C458.698 19.4773 454.198 20.8409 452.152 25.6136L455.971 26.9773C456.857 25.0682 458.953 23.0227 462.789 23.0227C466.488 23.0227 468.311 24.983 468.311 28.3409V28.4773C468.311 30.4205 466.334 30.25 461.561 30.8636C456.703 31.4943 451.402 32.5682 451.402 38.5682C451.402 43.6818 455.357 46.6136 460.334 46.6136ZM460.948 43C457.743 43 455.425 41.5682 455.425 38.7727C455.425 35.7045 458.221 34.75 461.357 34.3409C463.061 34.1364 467.63 33.6591 468.311 32.8409V36.5227C468.311 39.7955 465.721 43 460.948 43Z" fill="#262626"/>
<defs>
<filter id="filter0_i" x="546.837" y="18.9204" width="67.636" height="57.0795" filterUnits="userSpaceOnUse" color-interpolation-filters="sRGB">
<feFlood flood-opacity="0" result="BackgroundImageFix"/>
<feBlend mode="normal" in="SourceGraphic" in2="BackgroundImageFix" result="shape"/>
<feColorMatrix in="SourceAlpha" type="matrix" values="0 0 0 0 0 0 0 0 0 0 0 0 0 0 0 0 0 0 127 0" result="hardAlpha"/>
<feOffset dy="4"/>
<feGaussianBlur stdDeviation="2"/>
<feComposite in2="hardAlpha" operator="arithmetic" k2="-1" k3="1"/>
<feColorMatrix type="matrix" values="0 0 0 0 0 0 0 0 0 0 0 0 0 0 0 0 0 0 0.25 0"/>
<feBlend mode="normal" in2="shape" result="effect1_innerShadow"/>
</filter>
<filter id="filter1_i" x="5.39648" y="16.9204" width="35.4886" height="57.7955" filterUnits="userSpaceOnUse" color-interpolation-filters="sRGB">
<feFlood flood-opacity="0" result="BackgroundImageFix"/>
<feBlend mode="normal" in="SourceGraphic" in2="BackgroundImageFix" result="shape"/>
<feColorMatrix in="SourceAlpha" type="matrix" values="0 0 0 0 0 0 0 0 0 0 0 0 0 0 0 0 0 0 127 0" result="hardAlpha"/>
<feOffset dy="4"/>
<feGaussianBlur stdDeviation="2"/>
<feComposite in2="hardAlpha" operator="arithmetic" k2="-1" k3="1"/>
<feColorMatrix type="matrix" values="0 0 0 0 0 0 0 0 0 0 0 0 0 0 0 0 0 0 0.25 0"/>
<feBlend mode="normal" in2="shape" result="effect1_innerShadow"/>
</filter>
<filter id="filter2_i" x="254.707" y="16.9204" width="122.871" height="57.7955" filterUnits="userSpaceOnUse" color-interpolation-filters="sRGB">
<feFlood flood-opacity="0" result="BackgroundImageFix"/>
<feBlend mode="normal" in="SourceGraphic" in2="BackgroundImageFix" result="shape"/>
<feColorMatrix in="SourceAlpha" type="matrix" values="0 0 0 0 0 0 0 0 0 0 0 0 0 0 0 0 0 0 127 0" result="hardAlpha"/>
<feOffset dy="4"/>
<feGaussianBlur stdDeviation="2"/>
<feComposite in2="hardAlpha" operator="arithmetic" k2="-1" k3="1"/>
<feColorMatrix type="matrix" values="0 0 0 0 0 0 0 0 0 0 0 0 0 0 0 0 0 0 0.25 0"/>
<feBlend mode="normal" in2="shape" result="effect1_innerShadow"/>
</filter>
</defs>
</svg>
