<svg width="540" height="41" viewBox="0 0 540 41" fill="none" xmlns="http://www.w3.org/2000/svg">
<g clip-path="url(#clip0)">
<path d="M14.8451 4.43359C16.5597 4.39763 18.253 4.80483 19.7484 5.61273C21.2097 6.42223 22.3908 7.62799 23.1439 9.0794C23.9864 10.6993 24.4071 12.492 24.3697 14.303C24.339 17.0165 23.5924 19.6781 22.2 22.0381C20.9573 24.3652 19.1282 26.3557 16.8799 27.8277C14.7991 29.1203 12.3696 29.7968 9.89279 29.7733C8.57215 29.8286 7.25384 29.6216 6.02006 29.1651C4.78629 28.7086 3.66351 28.0125 2.72176 27.1202C1.80665 26.1952 1.09419 25.1027 0.626702 23.9076C0.159214 22.7125 -0.0537551 21.4392 0.000448243 20.1633C0.00914515 17.3596 0.760066 14.6042 2.1824 12.157C3.40826 9.81523 5.24575 7.82016 7.5147 6.36738C9.71483 5.05993 12.2594 4.38866 14.8451 4.43359V4.43359ZM13.276 5.89572C11.6271 5.89021 10.0185 6.38538 8.67923 7.31069C7.11572 8.46283 5.92181 10.0159 5.23469 11.7914C4.30027 14.0148 3.84567 16.3978 3.89855 18.7955C3.72239 21.3163 4.46346 23.8176 5.99469 25.8704C6.60547 26.6385 7.39485 27.2584 8.29956 27.6802C9.20427 28.102 10.1991 28.3141 11.2044 28.2994C12.8038 28.2876 14.3546 27.7696 15.6174 26.8255C17.1797 25.6136 18.3633 24.0099 19.0374 22.1914C19.9746 19.8738 20.4326 17.4025 20.3858 14.9161C20.5596 12.538 19.8516 10.1776 18.3877 8.254C17.7845 7.50617 17.0085 6.90373 16.1213 6.4944C15.2341 6.08507 14.2599 5.8801 13.276 5.89572V5.89572Z" fill="#EB7700"/>
<path d="M41.3223 4.43356C43.037 4.3976 44.7303 4.8048 46.2256 5.6127C47.687 6.42219 48.868 7.62796 49.6211 9.07937C50.4637 10.6993 50.8843 12.4919 50.8469 14.303C50.8179 17.0182 50.0667 19.6811 48.665 22.0381C47.4257 24.3675 45.596 26.3587 43.3449 27.8277C41.2641 29.1202 38.8346 29.7967 36.3578 29.7733C35.0409 29.8281 33.7264 29.6208 32.4966 29.1643C31.2669 28.7077 30.1484 28.0119 29.2113 27.1202C28.2893 26.1993 27.5715 25.1078 27.1016 23.9118C26.6317 22.7159 26.4194 21.4406 26.4777 20.1633C26.4938 17.3605 27.2443 14.6069 28.6596 12.1569C29.8898 9.81439 31.7315 7.8194 34.0042 6.36735C36.1986 5.05714 38.7401 4.38555 41.3223 4.43356V4.43356ZM39.7533 5.89569C38.1044 5.89018 36.4957 6.38535 35.1565 7.31066C33.597 8.46394 32.4073 10.017 31.7242 11.7914C30.7898 14.0148 30.3352 16.3978 30.388 18.7955C30.2083 21.3149 30.945 23.816 32.4719 25.8703C33.0834 26.6378 33.8729 27.2572 34.7774 27.6789C35.682 28.1007 36.6765 28.3131 37.6816 28.2993C39.2813 28.2893 40.8327 27.7712 42.0946 26.8254C43.6569 25.6136 44.8405 24.0098 45.5146 22.1914C46.4583 19.8755 46.9165 17.403 46.863 14.9161C47.0192 12.5308 46.2894 10.1697 44.8036 8.25397C44.2067 7.51413 43.4406 6.91654 42.5647 6.50756C41.6889 6.09858 40.7269 5.88921 39.7533 5.89569V5.89569Z" fill="#EB7700"/>
<path d="M67.8124 4.43351C69.5269 4.3987 71.2199 4.80583 72.7157 5.61265C74.1771 6.42215 75.3581 7.62792 76.1112 9.07932C76.9478 10.7013 77.3681 12.4925 77.337 14.3029C77.308 17.0182 76.5568 19.6811 75.1551 22.0381C73.9312 24.3762 72.1141 26.3796 69.8718 27.863C67.7948 29.154 65.3697 29.8304 62.8969 29.8086C61.5674 29.8649 60.2403 29.6551 58.9996 29.1923C57.7588 28.7295 56.6315 28.0239 55.6891 27.1202C54.7694 26.191 54.0543 25.0926 53.5867 23.8911C53.1191 22.6896 52.9086 21.4096 52.9678 20.1279C52.9933 17.336 53.7478 14.5951 55.162 12.1569C56.3891 9.8196 58.2213 7.8257 60.482 6.3673C62.6822 5.05986 65.2267 4.38859 67.8124 4.43351V4.43351ZM66.1943 5.89565C64.5416 5.89006 62.9291 6.38512 61.5853 7.31061C60.0476 8.47375 58.8763 10.025 58.202 11.7913C57.2676 14.0148 56.813 16.3977 56.8659 18.7954C56.6923 21.3142 57.4284 23.8134 58.9498 25.8703C59.5638 26.638 60.3555 27.2573 61.262 27.679C62.1686 28.1007 63.1649 28.3131 64.1717 28.2993C65.7673 28.2876 67.3143 27.7695 68.5724 26.8254C70.1337 25.61 71.3205 24.0078 72.0047 22.1914C72.9419 19.8737 73.3999 17.4024 73.3531 14.9161C73.5093 12.5307 72.7794 10.1696 71.2937 8.25393C70.6905 7.50907 69.9162 6.90859 69.0316 6.49946C68.1469 6.09034 67.1758 5.88368 66.1943 5.89565V5.89565Z" fill="#EB7700"/>
<path d="M91.0415 20.7173C91.7292 21.7009 92.3594 22.7204 92.9292 23.7713C93.4217 24.6381 93.832 25.5457 94.1551 26.4833C94.2868 26.8253 94.3732 27.1818 94.4125 27.5446C94.4248 27.6263 94.4172 27.7097 94.3901 27.788C94.3631 27.8664 94.3174 27.9376 94.2566 27.996C94.1959 28.0544 94.1219 28.0984 94.0404 28.1244C93.9589 28.1504 93.8723 28.1578 93.7873 28.1459C93.4564 28.1459 93.1622 27.8747 92.9047 27.3205C91.5068 24.9325 89.8643 22.6849 88.0015 20.6112L92.1815 16.9795C93.4073 15.8003 94.2531 15.0575 94.5596 14.7509C94.866 14.4443 95.0989 14.1731 95.2583 13.9727C95.6751 13.442 96.0306 13.1826 96.3125 13.1826C96.3909 13.1826 96.4685 13.1983 96.5403 13.2288C96.6121 13.2592 96.6764 13.3038 96.7293 13.3595C96.8327 13.4607 96.8938 13.595 96.9009 13.7368C96.8993 13.8885 96.8616 14.0377 96.7906 14.1731C96.1073 15.1372 95.3665 16.0625 94.5718 16.9441C93.7546 17.9975 92.5778 19.2552 91.0415 20.7173ZM96.5944 20.7173C97.2875 21.6998 97.9218 22.7195 98.4945 23.7713C99.0021 24.6389 99.4326 25.5461 99.7816 26.4833C99.9152 26.8254 100.006 27.1817 100.051 27.5446C100.064 27.6263 100.056 27.7097 100.029 27.788C100.002 27.8664 99.9561 27.9376 99.8954 27.996C99.8347 28.0544 99.7607 28.0984 99.6792 28.1244C99.5977 28.1504 99.511 28.1578 99.4261 28.1459C99.0706 28.1459 98.7764 27.8747 98.519 27.3205C97.1238 24.9309 95.481 22.683 93.6157 20.6112L97.7957 16.9795C99.0828 15.8003 99.8674 15.0575 100.174 14.7509C100.425 14.5042 100.663 14.2444 100.885 13.9727C101.302 13.442 101.645 13.1826 101.939 13.1826C102.016 13.182 102.092 13.1975 102.162 13.2281C102.231 13.2586 102.294 13.3035 102.344 13.3595C102.397 13.4078 102.44 13.4662 102.47 13.5311C102.499 13.596 102.515 13.666 102.515 13.7368C102.514 13.8885 102.476 14.0377 102.405 14.1731C101.726 15.1404 100.985 16.0659 100.186 16.9441C99.061 18.2636 97.862 19.5232 96.5944 20.7173V20.7173Z" fill="#EB7700"/>
<path d="M124.335 28.1697L125.364 28.3112C126.019 28.4357 126.683 28.5067 127.35 28.5234C128.022 28.5177 128.691 28.4466 129.348 28.3112L129.066 29.4903C128.509 29.5633 127.949 29.6066 127.387 29.62C126.774 29.62 125.953 29.62 124.935 29.4785C123.918 29.337 122.913 29.3252 122.128 29.3252C121.479 29.3272 120.833 29.4266 120.216 29.62C120.731 28.3151 121.65 25.1236 122.974 20.0454C124.657 13.6545 126.185 9.21304 127.558 6.72113C126.222 6.72113 125.205 6.72113 124.518 6.72113C122.508 6.72113 120.387 6.62679 118.144 6.42634C116.882 9.82636 115.83 13.2951 114.994 16.8146C113.474 22.6002 111.79 26.3263 109.943 27.9928C108.536 29.4623 106.597 30.357 104.525 30.4926C103.577 30.5004 102.642 30.2816 101.804 29.8559C101.46 29.7375 101.157 29.529 100.93 29.254C100.703 28.979 100.559 28.6484 100.517 28.2994C100.511 28.1327 100.541 27.9666 100.607 27.8121C100.672 27.6576 100.771 27.5183 100.897 27.4032C101.12 27.1839 101.424 27.057 101.743 27.0495C102.11 27.1007 102.46 27.234 102.765 27.4388C103.069 27.6436 103.319 27.9141 103.496 28.2286C104.047 28.9479 104.587 29.3017 105.101 29.3017C106.327 29.3017 107.48 28.3112 108.472 26.3302C110.163 22.2522 111.536 18.0585 112.579 13.7842L114.614 6.4853C111.402 6.4853 109.036 7.14169 107.516 8.45446C106.81 8.9971 106.237 9.68341 105.838 10.4642C105.44 11.245 105.226 12.1009 105.212 12.9706C105.186 13.3738 105.257 13.7773 105.42 14.1497C105.687 14.6039 106.012 15.0238 106.389 15.3996C106.806 15.7632 107.069 16.2634 107.124 16.8028C107.127 16.9832 107.088 17.162 107.012 17.3268C106.936 17.4917 106.824 17.6387 106.683 17.7579C106.406 18.0148 106.037 18.1585 105.653 18.1588C105.281 18.1473 104.921 18.0289 104.619 17.8187C104.318 17.6085 104.089 17.3163 103.961 16.9796C103.558 16.1208 103.357 15.1865 103.373 14.244C103.387 12.9083 103.711 11.5925 104.322 10.3929C104.933 9.19331 105.815 8.14022 106.903 7.3107C109.342 5.28512 112.485 4.21968 115.705 4.32747C116.931 4.32747 118.549 4.43359 120.706 4.62226C125.021 5.03103 129.311 5.23934 133.577 5.2472C135.195 5.2472 136.029 4.71659 136.029 3.64357C136.043 3.45124 136.043 3.25812 136.029 3.06579C135.998 2.88617 135.978 2.70511 135.967 2.52339C135.962 2.35327 135.993 2.18395 136.059 2.0258C136.124 1.86765 136.222 1.724 136.348 1.60366C136.597 1.37076 136.931 1.23978 137.279 1.23812C137.481 1.23375 137.682 1.27276 137.866 1.3523C138.051 1.43185 138.215 1.54994 138.346 1.69799C138.631 2.02835 138.779 2.44815 138.762 2.87713C138.737 3.40231 138.582 3.91406 138.309 4.36951C138.036 4.82496 137.653 5.21084 137.193 5.49482C135.654 6.41449 133.853 6.84743 132.045 6.73292C131.309 6.73292 130.819 6.73292 130.733 6.73292C127.976 13.6923 125.836 20.8634 124.335 28.1697V28.1697Z" fill="#EB7700"/>
<path d="M133.7 16.956L132.866 16.1306C133.95 14.8052 135.27 13.6754 136.764 12.7936C137.769 12.1609 138.925 11.7873 140.123 11.7088C140.429 11.6906 140.731 11.7831 140.969 11.9682C141.077 12.0636 141.161 12.1808 141.216 12.3112C141.271 12.4417 141.296 12.5823 141.288 12.7229C141.284 13.1388 141.239 13.5534 141.153 13.961C141.055 14.3854 140.761 15.3759 140.27 16.956C141.659 15.5336 143.168 14.2242 144.781 13.0412C145.855 12.2859 147.131 11.8438 148.459 11.7678C148.829 11.7747 149.192 11.8699 149.515 12.0448C149.838 12.2197 150.111 12.4689 150.31 12.77C150.881 13.6722 151.147 14.723 151.07 15.7768C151.04 19.1998 149.905 22.5292 147.821 25.3043C145.652 28.3229 143.249 29.8204 140.626 29.8204C139.538 29.8105 138.471 29.5346 137.524 29.0186L135.686 35.8576C135.581 36.1866 135.523 36.5277 135.514 36.8716C135.499 37.09 135.546 37.3083 135.653 37.502C135.759 37.6957 135.919 37.8571 136.115 37.9682C137.351 38.4717 138.671 38.7592 140.013 38.8172L139.731 39.8549C137.426 39.678 135.6 39.5837 134.276 39.5837C132.952 39.5837 131.15 39.678 128.98 39.8549L129.262 38.8172C130.132 38.792 130.969 38.4892 131.64 37.9564C132.273 37.2387 132.697 36.3718 132.866 35.4449L136.764 19.7152C137.216 18.1033 137.58 16.47 137.855 14.8217C137.855 14.4562 137.684 14.2793 137.328 14.2793C136.691 14.2793 135.49 15.1755 133.7 16.956ZM138.064 26.7428C138.504 27.2243 139.04 27.6163 139.64 27.8958C140.24 28.1752 140.892 28.3365 141.557 28.37C143.273 28.37 144.781 27.0809 146.081 24.5025C147.32 22.1546 147.987 19.5655 148.03 16.9324C148.077 16.2905 147.881 15.6539 147.478 15.1401C147.297 14.9377 147.07 14.7774 146.816 14.6712C146.561 14.565 146.284 14.5157 146.007 14.5269C145.144 14.5989 144.329 14.9429 143.69 15.5056C142.515 16.3475 141.485 17.3622 140.638 18.5124C139.957 19.6719 139.477 20.9305 139.216 22.2385L138.064 26.7428Z" fill="#EB7700"/>
<path d="M163.487 11.7913C164.161 11.7843 164.828 11.9263 165.436 12.2064C166.044 12.4865 166.577 12.8972 166.993 13.4067C167.998 14.7021 168.493 16.2979 168.391 17.911C168.395 20.9715 167.195 23.9202 165.032 26.165C162.793 28.6097 160.423 29.8282 157.922 29.8203C157.238 29.8389 156.557 29.7194 155.924 29.4696C155.29 29.2198 154.718 28.8453 154.245 28.37C153.255 27.2769 152.749 25.855 152.835 24.4081C152.824 21.5365 153.727 18.7304 155.421 16.3663C157.571 13.3163 160.259 11.7913 163.487 11.7913ZM161.649 13.3477C160.423 13.3477 159.197 14.1849 158.106 15.8593C156.851 17.9713 156.255 20.3868 156.39 22.8162C156.309 24.2993 156.675 25.7733 157.444 27.0611C157.649 27.4172 157.949 27.7142 158.313 27.9215C158.678 28.1287 159.093 28.2388 159.516 28.2403C160.211 28.1808 160.879 27.9513 161.456 27.5737C162.033 27.196 162.5 26.6827 162.813 26.0824C164.142 23.9971 164.803 21.5816 164.713 19.1373C164.83 17.6117 164.53 16.0833 163.843 14.7037C163.635 14.3131 163.321 13.9833 162.935 13.7489C162.549 13.5146 162.105 13.3841 161.649 13.3713V13.3477Z" fill="#EB7700"/>
<path d="M182.708 14.6331C183.828 9.91651 184.919 6.77214 185.981 5.19995C187.031 3.63369 188.467 2.34148 190.161 1.4385C191.609 0.563118 193.27 0.0671953 194.979 -5.07332e-05C195.691 -0.0531028 196.4 0.129994 196.989 0.518771C197.185 0.653617 197.345 0.83028 197.458 1.03488C197.571 1.23947 197.633 1.46643 197.639 1.69791C197.64 2.08046 197.486 2.44833 197.21 2.72376C197.046 2.87119 196.853 2.98491 196.642 3.05791C196.432 3.13091 196.208 3.16165 195.984 3.14825C195.026 3.07844 194.075 2.93651 193.14 2.72376C192.581 2.59928 192.01 2.52819 191.436 2.51152C190.82 2.53988 190.227 2.74637 189.735 3.104C189.243 3.46164 188.875 3.95377 188.678 4.51605C187.738 6.5875 186.987 8.73379 186.435 10.9306L185.209 15.1755C186.986 12.9115 188.886 11.7796 191.044 11.7796C191.561 11.7427 192.079 11.8227 192.558 12.0131C193.037 12.2036 193.463 12.4991 193.802 12.8762C194.425 13.668 194.746 14.6426 194.709 15.6353C194.624 17.6386 194.154 19.6094 193.324 21.4485C192.423 23.6301 191.105 25.63 189.438 27.3442C187.783 29.0422 186.214 29.9029 184.719 29.9029C183.493 29.9029 182.586 29.0775 182.071 27.4385C181.457 30.8851 179.813 34.085 177.339 36.6476C176.367 37.6977 175.181 38.545 173.855 39.1372C172.529 39.7294 171.09 40.0539 169.629 40.0907C168.927 40.1381 168.228 39.9597 167.643 39.5837C167.43 39.4458 167.257 39.2596 167.137 39.0415C167.017 38.8235 166.955 38.5804 166.957 38.3338C166.957 37.3905 167.582 36.9188 168.82 36.9188C169.267 36.9295 169.713 36.9649 170.156 37.0249C171.115 37.1495 172.081 37.2126 173.049 37.2136C173.71 37.2842 174.378 37.1862 174.987 36.9295C175.596 36.6729 176.124 36.2666 176.518 35.7515C177.139 34.7688 178.112 31.7227 179.435 26.6131C177.629 28.7985 175.688 29.8911 173.613 29.8911C171.161 29.8911 169.935 28.5705 169.935 25.9292C170.031 23.9995 170.488 22.1022 171.284 20.3283C172.18 18.1471 173.494 16.1472 175.157 14.4326C176.882 12.6718 178.5 11.7913 180.012 11.7913C180.595 11.7688 181.166 11.9535 181.617 12.3102C182.215 12.9619 182.595 13.7712 182.708 14.6331V14.6331ZM181.838 16.9913C181.662 16.1226 181.352 15.2841 180.919 14.5034C180.748 14.2237 180.498 13.9959 180.199 13.8458C179.9 13.6957 179.563 13.6294 179.227 13.6544C177.707 13.6544 176.346 14.9396 175.133 17.4866C173.976 19.791 173.353 22.3094 173.306 24.868C173.306 26.6839 174.03 27.5918 175.464 27.5918C176.01 27.5405 176.54 27.3859 177.024 27.137C177.508 26.8882 177.936 26.5498 178.283 26.1415C179.595 24.565 180.472 22.6952 180.833 20.7056L181.838 16.9913ZM182.953 24.5614C183.358 26.9197 184.179 28.0045 185.577 28.0045C186.974 28.0045 188.421 26.731 189.634 24.1959C190.794 21.8762 191.413 19.341 191.448 16.7673C191.448 14.975 190.725 14.0789 189.266 14.0789C188.447 14.1351 187.673 14.4597 187.072 14.9986C186.292 15.5919 185.66 16.3453 185.221 17.2036C184.647 18.4006 184.195 19.6485 183.873 20.9297L182.953 24.5614Z" fill="#EB7700"/>
<path d="M210.988 12.3574H214.052L212.067 19.5973C211.313 21.9522 210.715 24.3506 210.277 26.7783C210.261 26.9954 210.331 27.2102 210.473 27.3796C210.523 27.4439 210.588 27.4965 210.662 27.5333C210.737 27.57 210.819 27.5901 210.902 27.5919C211.214 27.5678 211.512 27.4572 211.76 27.2735C212.716 26.5493 213.617 25.7612 214.457 24.9152L215.168 25.6817C212.275 28.5745 210.15 30.0209 208.794 30.0209C208.563 30.0291 208.334 29.9878 208.122 29.9001C207.909 29.8124 207.72 29.6805 207.568 29.5139C207.223 29.1103 207.048 28.597 207.078 28.0753C207.119 27.0985 207.275 26.1294 207.543 25.1864C206.187 26.6641 204.589 27.9187 202.812 28.9007C201.844 29.5209 200.724 29.8868 199.563 29.9619C199.334 29.9765 199.105 29.9404 198.892 29.8567C198.68 29.7729 198.49 29.6435 198.338 29.4785C198.02 29.037 197.869 28.5046 197.909 27.9692C197.912 27.3825 197.977 26.7978 198.105 26.2241C198.289 25.3515 198.767 23.5946 199.527 20.9651C200.199 18.9955 200.703 16.9764 201.034 14.9279C201.034 14.5388 200.887 14.3383 200.593 14.3383C200.213 14.3814 199.851 14.5152 199.539 14.7274C198.725 15.2808 197.963 15.9001 197.259 16.5787L196.315 15.8594C197.657 14.6234 199.132 13.5284 200.716 12.5932C201.459 12.1549 202.298 11.8885 203.167 11.815C203.326 11.809 203.484 11.8389 203.629 11.9024C203.774 11.9659 203.901 12.0611 204.001 12.1805C204.263 12.5189 204.381 12.9404 204.332 13.3596C204.036 15.7583 203.515 18.1263 202.775 20.4345C202.191 22.3227 201.733 24.2446 201.402 26.1887C201.39 26.4624 201.492 26.7294 201.684 26.9315C201.845 27.061 202.05 27.1283 202.26 27.1202C203.069 27.1202 204.209 26.4835 205.68 25.1982C207.076 24.0527 208.087 22.5343 208.585 20.8354L210.988 12.3574Z" fill="#EB7700"/>
<path d="M221.505 20.5878C220.82 19.613 220.194 18.6012 219.63 17.5574C219.133 16.6847 218.722 15.7687 218.404 14.8218C218.271 14.4884 218.184 14.1395 218.147 13.7841C218.134 13.7024 218.142 13.619 218.169 13.5406C218.196 13.4623 218.242 13.3911 218.302 13.3327C218.363 13.2743 218.437 13.2303 218.519 13.2043C218.6 13.1783 218.687 13.1709 218.772 13.1828C219.103 13.1828 219.397 13.454 219.654 14.0082C221.048 16.3912 222.691 18.6313 224.558 20.6939L220.378 24.3256C219.152 25.5048 218.318 26.2594 218.012 26.566C217.705 26.8726 217.472 27.132 217.301 27.3324C216.896 27.8748 216.541 28.146 216.247 28.146C216.168 28.1461 216.091 28.1304 216.019 28.0999C215.947 28.0694 215.883 28.0249 215.83 27.9692C215.721 27.862 215.659 27.7183 215.658 27.5683C215.668 27.4148 215.714 27.2655 215.793 27.132C216.457 26.1645 217.19 25.2426 217.987 24.3728C218.804 23.3352 219.977 22.0735 221.505 20.5878ZM227.071 20.5878C226.376 19.6187 225.75 18.6063 225.195 17.5574C224.689 16.6795 224.254 15.7648 223.896 14.8218C223.762 14.4884 223.676 14.1395 223.638 13.7841C223.626 13.7024 223.634 13.619 223.661 13.5406C223.688 13.4623 223.733 13.3911 223.794 13.3327C223.855 13.2743 223.929 13.2303 224.01 13.2043C224.092 13.1783 224.178 13.1709 224.263 13.1828C224.594 13.1828 224.889 13.454 225.146 14.0082C226.547 16.3872 228.189 18.6267 230.049 20.6939L225.894 24.3256C224.594 25.5048 223.798 26.2594 223.442 26.566C223.195 26.8091 222.962 27.0649 222.743 27.3324C222.327 27.8748 221.971 28.146 221.665 28.146C221.588 28.1467 221.512 28.1312 221.442 28.1006C221.372 28.0701 221.31 28.0252 221.26 27.9692C221.151 27.862 221.09 27.7183 221.089 27.5683C221.093 27.4156 221.135 27.2661 221.211 27.132C221.882 26.1658 222.619 25.244 223.418 24.3728C224.333 23.3352 225.551 22.0735 227.071 20.5878V20.5878Z" fill="#EB7700"/>
</g>
<path d="M333.091 24.6932H334.548V20.0227H339.219V18.5739H334.548V13.9034H333.091V18.5739H328.42V20.0227H333.091V24.6932ZM342.7 28H344.379L352.322 12.0455V10.5455H341.49V11.9773H350.651V12.0881L342.7 28ZM361.481 19.2727C361.481 23.3551 362.555 26.9858 364.481 30.1818H365.861C364.208 27.5142 363.049 23.2017 363.049 19.2727C363.049 15.3523 364.199 11.0398 365.861 8.36364H364.481C362.555 11.5426 361.481 15.1818 361.481 19.2727ZM373.938 28.2386C377.211 28.2386 379.597 26.125 379.597 23.3295C379.597 21.1136 378.234 19.4858 376.009 19.0426V18.9318C377.842 18.3864 379.001 16.9034 379.001 14.9091C379.001 12.4119 377.041 10.3068 373.972 10.3068C371.049 10.3068 368.714 12.1818 368.646 14.9091H370.188C370.239 12.9574 371.927 11.7131 373.955 11.7131C376.06 11.7131 377.45 13.0511 377.45 14.9773C377.45 17.0142 375.822 18.3182 373.563 18.3182H372.541V19.75H373.563C376.325 19.75 378.029 21.2074 378.029 23.3295C378.029 25.3409 376.333 26.8068 373.921 26.8068C371.697 26.8068 369.958 25.5455 369.873 23.6364H368.262C368.347 26.3551 370.7 28.2386 373.938 28.2386ZM387.919 28.2386C391.243 28.2386 393.672 26.1761 393.681 23.4062C393.672 21.2415 392.181 19.3409 390.203 18.9574V18.8636C391.908 18.3778 393.05 16.75 393.059 14.875C393.05 12.267 390.826 10.3068 387.919 10.3068C384.987 10.3068 382.772 12.2756 382.789 14.875C382.772 16.75 383.922 18.3693 385.635 18.8636V18.9574C383.641 19.3494 382.149 21.2415 382.158 23.4062C382.149 26.1761 384.578 28.2386 387.919 28.2386ZM387.919 26.8068C385.422 26.8068 383.718 25.3494 383.726 23.3295C383.718 21.2415 385.516 19.6733 387.919 19.6733C390.306 19.6733 392.104 21.2415 392.112 23.3295C392.104 25.3494 390.408 26.8068 387.919 26.8068ZM387.919 18.3097C385.865 18.3097 384.323 16.8949 384.331 14.9688C384.323 13.0597 385.831 11.7131 387.919 11.7131C389.99 11.7131 391.499 13.0597 391.516 14.9688C391.499 16.8949 389.956 18.3097 387.919 18.3097ZM402.047 28.2386C405.32 28.2386 407.706 26.125 407.706 23.3295C407.706 21.1136 406.343 19.4858 404.118 19.0426V18.9318C405.951 18.3864 407.11 16.9034 407.11 14.9091C407.11 12.4119 405.15 10.3068 402.081 10.3068C399.158 10.3068 396.823 12.1818 396.755 14.9091H398.297C398.348 12.9574 400.036 11.7131 402.064 11.7131C404.17 11.7131 405.559 13.0511 405.559 14.9773C405.559 17.0142 403.931 18.3182 401.672 18.3182H400.65V19.75H401.672C404.434 19.75 406.138 21.2074 406.138 23.3295C406.138 25.3409 404.442 26.8068 402.03 26.8068C399.806 26.8068 398.067 25.5455 397.982 23.6364H396.371C396.456 26.3551 398.809 28.2386 402.047 28.2386ZM414.375 19.2727C414.375 15.1903 413.301 11.5597 411.375 8.36364H409.994C411.648 11.0312 412.807 15.3438 412.807 19.2727C412.807 23.1932 411.656 27.5057 409.994 30.1818H411.375C413.301 27.0028 414.375 23.3636 414.375 19.2727ZM424.024 28H434.873V26.5682H426.24V26.4574L430.569 21.625C433.467 18.4205 434.328 16.9716 434.328 15.0369C434.328 12.3778 432.231 10.3068 429.308 10.3068C426.359 10.3068 424.169 12.3864 424.169 15.2756H425.694C425.694 13.2045 427.109 11.7131 429.265 11.7131C431.294 11.7131 432.828 13.0426 432.828 15.0369C432.828 16.6903 431.95 17.9176 429.726 20.4233L424.024 26.8324V28ZM443.082 10.3068C439.741 10.2812 437.56 12.8977 437.56 16C437.56 19.2812 439.971 21.6847 442.886 21.6847C444.761 21.6847 446.423 20.6705 447.241 19.1364H447.352C447.352 24.0455 445.699 26.8068 442.844 26.8068C440.858 26.8068 439.631 25.4688 439.324 23.6023H437.756C438.079 26.3551 440.023 28.2386 442.844 28.2386C446.866 28.2386 448.852 24.2159 448.852 18.5142C448.852 12.4119 445.98 10.3324 443.082 10.3068ZM443.082 11.7386C445.256 11.7386 446.866 13.5114 447.062 15.8977C447.233 18.1903 445.4 20.2528 443.082 20.2528C440.807 20.2528 439.102 18.3778 439.102 16C439.102 13.6477 440.807 11.7386 443.082 11.7386ZM451.617 28H462.467V26.5682H453.833V26.4574L458.163 21.625C461.06 18.4205 461.921 16.9716 461.921 15.0369C461.921 12.3778 459.825 10.3068 456.901 10.3068C453.952 10.3068 451.762 12.3864 451.762 15.2756H453.288C453.288 13.2045 454.702 11.7131 456.859 11.7131C458.887 11.7131 460.421 13.0426 460.421 15.0369C460.421 16.6903 459.543 17.9176 457.319 20.4233L451.617 26.8324V28ZM472.551 18.5568H465.289V19.9886H472.551V18.5568ZM474.64 28H485.49V26.5682H476.856V26.4574L481.186 21.625C484.084 18.4205 484.944 16.9716 484.944 15.0369C484.944 12.3778 482.848 10.3068 479.924 10.3068C476.976 10.3068 474.785 12.3864 474.785 15.2756H476.311C476.311 13.2045 477.726 11.7131 479.882 11.7131C481.91 11.7131 483.444 13.0426 483.444 15.0369C483.444 16.6903 482.567 17.9176 480.342 20.4233L474.64 26.8324V28ZM488.449 28H499.298V26.5682H490.665V26.4574L494.994 21.625C497.892 18.4205 498.753 16.9716 498.753 15.0369C498.753 12.3778 496.656 10.3068 493.733 10.3068C490.784 10.3068 488.594 12.3864 488.594 15.2756H490.119C490.119 13.2045 491.534 11.7131 493.69 11.7131C495.719 11.7131 497.253 13.0426 497.253 15.0369C497.253 16.6903 496.375 17.9176 494.151 20.4233L488.449 26.8324V28ZM509.382 18.5568H502.121V19.9886H509.382V18.5568ZM517.789 28.2386C521.122 28.2642 523.312 25.6392 523.312 22.5114C523.312 19.2301 520.892 16.8267 517.985 16.8267C516.11 16.8267 514.457 17.8324 513.63 19.375H513.52C513.528 14.5 515.164 11.7386 518.028 11.7386C520.022 11.7386 521.233 13.0682 521.556 14.9091H523.125C522.784 12.1903 520.849 10.3068 518.028 10.3068C514.014 10.3068 512.02 14.321 512.02 19.9972C512.02 26.1335 514.892 28.2131 517.789 28.2386ZM517.789 26.8068C515.616 26.8068 514.005 25.0256 513.818 22.6136C513.647 20.3125 515.463 18.2585 517.789 18.2585C520.056 18.2585 521.77 20.1506 521.77 22.5114C521.77 24.8892 520.056 26.8068 517.789 26.8068ZM531.745 28.2386C535.018 28.2386 537.404 26.125 537.404 23.3295C537.404 21.1136 536.04 19.4858 533.816 19.0426V18.9318C535.648 18.3864 536.807 16.9034 536.807 14.9091C536.807 12.4119 534.847 10.3068 531.779 10.3068C528.856 10.3068 526.52 12.1818 526.452 14.9091H527.995C528.046 12.9574 529.733 11.7131 531.762 11.7131C533.867 11.7131 535.256 13.0511 535.256 14.9773C535.256 17.0142 533.628 18.3182 531.37 18.3182H530.347V19.75H531.37C534.131 19.75 535.836 21.2074 535.836 23.3295C535.836 25.3409 534.14 26.8068 531.728 26.8068C529.503 26.8068 527.765 25.5455 527.68 23.6364H526.069C526.154 26.3551 528.506 28.2386 531.745 28.2386Z" fill="black"/>
<defs>
<clipPath id="clip0">
<rect width="230" height="40.1025" fill="white"/>
</clipPath>
</defs>
</svg>
