<svg width="242" height="74" viewBox="0 0 242 74" fill="none" xmlns="http://www.w3.org/2000/svg">
<path fill-rule="evenodd" clip-rule="evenodd" d="M145.494 8.59351H241.311V52.4883H145.494V8.59351Z" fill="#009EE0"/>
<path fill-rule="evenodd" clip-rule="evenodd" d="M0 8.59351H104.482V52.4883H0V8.59351Z" fill="#E30016"/>
<path fill-rule="evenodd" clip-rule="evenodd" d="M121.912 0C138.45 0 151.862 13.4118 151.862 29.95C151.862 46.4882 138.45 59.9 121.912 59.9C105.374 59.9 91.9619 46.4882 91.9619 29.95C91.9619 13.4118 105.374 0 121.912 0Z" fill="#E30016"/>
<path fill-rule="evenodd" clip-rule="evenodd" d="M125.162 1.18152C141.7 1.18152 155.112 14.5936 155.112 31.1318C155.112 47.67 141.7 61.0818 125.162 61.0818C108.624 61.0818 95.2115 47.67 95.2115 31.1318C95.2115 14.5936 108.624 1.18152 125.162 1.18152Z" fill="white"/>
<path fill-rule="evenodd" clip-rule="evenodd" d="M122.358 8.39111C134.353 8.39111 144.08 18.1182 144.08 30.1124C144.08 42.1067 134.353 51.8335 122.358 51.8335C110.364 51.8335 100.637 42.1067 100.637 30.1124C100.637 18.1182 110.364 8.39111 122.358 8.39111Z" fill="#E30016"/>
<path fill-rule="evenodd" clip-rule="evenodd" d="M124.715 9.24802C136.71 9.24802 146.436 18.9751 146.436 30.9694C146.436 42.9636 136.71 52.6907 124.715 52.6907C112.721 52.6907 102.994 42.9636 102.994 30.9694C102.994 18.9751 112.721 9.24802 124.715 9.24802Z" fill="white"/>
<path fill-rule="evenodd" clip-rule="evenodd" d="M122.8 16.6779C130.306 16.6779 136.394 22.7659 136.394 30.2726C136.394 37.7796 130.306 43.8676 122.8 43.8676C115.293 43.8676 109.205 37.7796 109.205 30.2726C109.205 22.7659 115.293 16.6779 122.8 16.6779Z" fill="#E30016"/>
<path fill-rule="evenodd" clip-rule="evenodd" d="M124.275 17.2142C131.781 17.2142 137.869 23.3022 137.869 30.8092C137.869 38.3159 131.781 44.4039 124.275 44.4039C116.768 44.4039 110.68 38.3159 110.68 30.8092C110.68 23.3022 116.768 17.2142 124.275 17.2142Z" fill="white"/>
<path fill-rule="evenodd" clip-rule="evenodd" d="M126.273 61.0819C122.066 61.0819 118.063 60.2129 114.43 58.6467C117.152 59.461 120.036 59.9002 123.023 59.9002C139.561 59.9002 152.973 46.4882 152.973 29.95C152.973 17.6201 145.517 7.0295 134.87 2.4375C147.218 6.1336 156.223 17.5821 156.223 31.1317C156.223 47.6699 142.811 61.0819 126.273 61.0819Z" fill="#009EE0"/>
<path fill-rule="evenodd" clip-rule="evenodd" d="M125.826 52.6906C122.776 52.6906 119.873 52.0604 117.238 50.925C119.212 51.5157 121.303 51.8337 123.469 51.8337C135.463 51.8337 145.191 42.1066 145.191 30.1125C145.191 21.1691 139.782 13.4879 132.059 10.1581C141.016 12.838 147.547 21.1417 147.547 30.9693C147.547 42.9637 137.82 52.6906 125.826 52.6906Z" fill="#009EE0"/>
<path fill-rule="evenodd" clip-rule="evenodd" d="M125.385 44.4039C123.476 44.4039 121.66 44.0097 120.011 43.2993C121.247 43.6689 122.555 43.8675 123.91 43.8675C131.417 43.8675 137.505 37.7795 137.505 30.2727C137.505 24.6767 134.121 19.8698 129.289 17.7849C134.893 19.4633 138.98 24.6594 138.98 30.8091C138.98 38.3159 132.892 44.4039 125.385 44.4039Z" fill="#009EE0"/>
<path fill-rule="evenodd" clip-rule="evenodd" d="M7.60168 19.6931V22.3861H13.2693V41.6804H16.244V22.3861H21.9116V19.6931H7.60168ZM45.2441 31.752C45.2844 26.0841 42.2694 19.1704 33.9489 19.1704C26.4722 19.1704 22.493 25.2802 22.493 30.7069C22.493 37.2991 27.4771 42.2096 33.9489 42.2096C38.9333 42.2096 42.9529 39.2686 44.7214 34.5254H41.6263C40.2597 37.5404 37.4058 39.5099 33.9489 39.5099C29.3262 39.5099 25.9498 36.1332 25.5881 31.752H45.2441ZM25.5881 29.0588C26.3115 24.8783 29.7281 21.8636 33.9489 21.8636C37.7675 21.8636 41.1843 24.5971 42.0285 29.0588H25.5881ZM47.8752 19.6931V41.6804H50.8496V22.3861H63.1497V41.6804H66.1244V19.6931H47.8752ZM81.0956 19.6931H78.0007L68.5945 41.6804H71.8104L79.528 23.4714L87.2456 41.6804H90.4615L81.0956 19.6931Z" fill="white"/>
<path fill-rule="evenodd" clip-rule="evenodd" d="M165.894 41.1429H169.391L175.22 32.3399L181.048 41.1429H184.545L176.988 29.9684L184.545 19.1557H181.048L175.22 27.6369L169.391 19.1557H165.894L173.411 29.9684L165.894 41.1429ZM188.605 19.1557V41.1429H191.58L204.684 23.3762V41.1429H207.658V19.1557H204.684L191.58 36.9224V19.1557H188.605ZM211.477 19.1557V21.8486H217.144V41.1429H220.119V21.8486H225.787V19.1557H211.477Z" fill="white"/>
<path fill-rule="evenodd" clip-rule="evenodd" d="M52.924 67.1358V67.93H54.4723V73.6206H55.285V67.93H56.833V67.1358H52.924ZM67.0649 70.6924C67.076 69.0208 66.2522 66.9818 63.9794 66.9818C61.9368 66.9818 60.8497 68.7838 60.8497 70.3843C60.8497 72.3283 62.2112 73.7768 63.9794 73.7768C65.3409 73.7768 66.439 72.9094 66.9221 71.5105H66.0768C65.7035 72.3994 64.9234 72.9805 63.9794 72.9805C62.7163 72.9805 61.7939 71.9847 61.6953 70.6924H67.0649ZM61.6953 69.8981C61.8928 68.665 62.826 67.7761 63.9794 67.7761C65.0226 67.7761 65.956 68.5823 66.1865 69.8981H61.6953ZM71.6415 67.1358V73.6206H72.4542V67.93H75.8141V73.6206H76.6268V67.1358H71.6415ZM84.2452 67.1358H83.3996L80.8303 73.6206H81.7084L83.8168 68.2503L85.9252 73.6206H86.8037L84.2452 67.1358ZM93.917 66.9818C92.1379 66.9818 90.7765 68.4519 90.7765 70.3843C90.7765 72.3166 92.149 73.7768 93.917 73.7768C95.6849 73.7768 97.0575 72.3166 97.0575 70.3843C97.0575 68.4519 95.696 66.9818 93.917 66.9818ZM93.917 67.7761C95.2677 67.7761 96.2448 68.9142 96.2448 70.3843C96.2448 71.8543 95.2677 72.9805 93.917 72.9805C92.5663 72.9805 91.5889 71.8543 91.5889 70.3843C91.5889 68.9142 92.5663 67.7761 93.917 67.7761ZM104.533 66.9818C102.754 66.9818 101.393 68.4519 101.393 70.3843C101.393 72.3166 102.765 73.7768 104.533 73.7768C106.301 73.7768 107.674 72.3166 107.674 70.3843C107.674 68.4519 106.312 66.9818 104.533 66.9818ZM104.533 67.7761C105.884 67.7761 106.861 68.9142 106.861 70.3843C106.861 71.8543 105.884 72.9805 104.533 72.9805C103.182 72.9805 102.205 71.8543 102.205 70.3843C102.205 68.9142 103.182 67.7761 104.533 67.7761ZM118.081 64.8479L115.5 65.0375C114.051 65.1441 112.009 65.6422 112.009 69.5543C112.009 72.5893 113.458 73.7768 115.237 73.7768C117.081 73.7768 118.334 72.3994 118.334 70.4908C118.334 68.4873 117.07 67.2069 115.259 67.2069C114.885 67.2069 113.414 67.3138 112.766 68.8785H112.744C112.887 66.0807 114.721 65.8911 115.5 65.8318L118.081 65.6422V64.8479ZM115.237 68.0012C116.554 68.0012 117.521 68.9854 117.521 70.4908C117.521 71.8778 116.609 72.9805 115.237 72.9805C113.919 72.9805 112.953 71.9016 112.953 70.4908C112.953 69.08 113.908 68.0012 115.237 68.0012ZM122.91 73.6206H123.723V68.108L125.82 73.6206H126.523L128.62 68.108V73.6206H129.433V67.1358H128.181L126.172 72.4351L124.162 67.1358H122.91V73.6206ZM140.225 70.6924C140.236 69.0208 139.412 66.9818 137.139 66.9818C135.097 66.9818 134.01 68.7838 134.01 70.3843C134.01 72.3283 135.371 73.7768 137.139 73.7768C138.501 73.7768 139.599 72.9094 140.082 71.5105H139.236C138.863 72.3994 138.083 72.9805 137.139 72.9805C135.876 72.9805 134.954 71.9847 134.855 70.6924H140.225ZM134.855 69.8981C135.053 68.665 135.986 67.7761 137.139 67.7761C138.182 67.7761 139.116 68.5823 139.346 69.8981H134.855ZM144.801 67.1358V73.6206H145.614V70.6924H148.974V73.6206H149.787V67.1358H148.974V69.8981H145.614V67.1358H144.801ZM154.594 67.1358V73.6206H155.407V70.6924H158.767V73.6206H159.579V67.1358H158.767V69.8981H155.407V67.1358H154.594ZM164.387 67.1358V73.6206H165.199L168.779 68.3807V73.6206H169.591V67.1358H168.779L165.199 72.3759V67.1358H164.387ZM175.211 73.6206V67.1358H174.399V73.6206H175.211ZM178.099 73.6206H179.143L176.683 70.2655L178.989 67.1358H178.033L175.684 70.3366L178.099 73.6206ZM183.313 67.1358V73.6206H184.125L187.705 68.3807V73.6206H188.518V67.1358H187.705L184.125 72.3759V67.1358H183.313Z" fill="#E30016"/>
</svg>
