<svg width="509" height="41" viewBox="0 0 509 41" fill="none" xmlns="http://www.w3.org/2000/svg">
<g clip-path="url(#clip0)" filter="url(#filter0_i)">
<path d="M14.8451 4.43383C16.5597 4.39787 18.253 4.80507 19.7484 5.61297C21.2097 6.42247 22.3908 7.62824 23.1439 9.07964C23.9864 10.6996 24.4071 12.4922 24.3697 14.3032C24.339 17.0167 23.5924 19.6783 22.2 22.0384C20.9573 24.3654 19.1282 26.3559 16.8799 27.828C14.7991 29.1205 12.3696 29.797 9.89279 29.7736C8.57215 29.8288 7.25384 29.6218 6.02006 29.1653C4.78629 28.7089 3.66351 28.0128 2.72176 27.1205C1.80665 26.1955 1.09419 25.1029 0.626702 23.9078C0.159214 22.7127 -0.0537551 21.4394 0.000448243 20.1636C0.00914515 17.3598 0.760066 14.6044 2.1824 12.1572C3.40826 9.81548 5.24575 7.82041 7.5147 6.36762C9.71483 5.06018 12.2594 4.38891 14.8451 4.43383V4.43383ZM13.276 5.89597C11.6271 5.89045 10.0185 6.38562 8.67923 7.31093C7.11572 8.46308 5.92181 10.0161 5.23469 11.7917C4.30027 14.0151 3.84567 16.3981 3.89855 18.7958C3.72239 21.3166 4.46346 23.8178 5.99469 25.8706C6.60547 26.6388 7.39485 27.2586 8.29956 27.6805C9.20427 28.1023 10.1991 28.3143 11.2044 28.2996C12.8038 28.2879 14.3546 27.7699 15.6174 26.8257C17.1797 25.6138 18.3633 24.0101 19.0374 22.1917C19.9746 19.874 20.4326 17.4028 20.3858 14.9164C20.5596 12.5383 19.8516 10.1779 18.3877 8.25425C17.7845 7.50642 17.0085 6.90397 16.1213 6.49464C15.2341 6.08531 14.2599 5.88034 13.276 5.89597V5.89597Z" fill="#EB7700"/>
<path d="M41.3223 4.43356C43.037 4.3976 44.7303 4.8048 46.2256 5.6127C47.687 6.42219 48.868 7.62796 49.6211 9.07937C50.4637 10.6993 50.8843 12.4919 50.8469 14.303C50.8179 17.0182 50.0667 19.6811 48.665 22.0381C47.4257 24.3675 45.596 26.3587 43.3449 27.8277C41.2641 29.1202 38.8346 29.7967 36.3578 29.7733C35.0409 29.8281 33.7264 29.6208 32.4966 29.1643C31.2669 28.7077 30.1484 28.0119 29.2113 27.1202C28.2893 26.1993 27.5715 25.1078 27.1016 23.9118C26.6317 22.7159 26.4194 21.4406 26.4777 20.1633C26.4938 17.3605 27.2443 14.6069 28.6596 12.1569C29.8898 9.81439 31.7315 7.8194 34.0042 6.36735C36.1986 5.05714 38.7401 4.38555 41.3223 4.43356V4.43356ZM39.7533 5.89569C38.1044 5.89018 36.4957 6.38535 35.1565 7.31066C33.597 8.46394 32.4073 10.017 31.7242 11.7914C30.7898 14.0148 30.3352 16.3978 30.388 18.7955C30.2083 21.3149 30.945 23.816 32.4719 25.8703C33.0834 26.6378 33.8729 27.2572 34.7774 27.6789C35.682 28.1007 36.6765 28.3131 37.6816 28.2993C39.2813 28.2893 40.8327 27.7712 42.0946 26.8254C43.6569 25.6136 44.8405 24.0098 45.5146 22.1914C46.4583 19.8755 46.9165 17.403 46.863 14.9161C47.0192 12.5308 46.2894 10.1697 44.8036 8.25397C44.2067 7.51413 43.4406 6.91654 42.5647 6.50756C41.6889 6.09858 40.7269 5.88921 39.7533 5.89569V5.89569Z" fill="#EB7700"/>
<path d="M67.8124 4.43376C69.5269 4.39895 71.2199 4.80607 72.7157 5.6129C74.1771 6.42239 75.3581 7.62816 76.1112 9.07957C76.9478 10.7016 77.3681 12.4928 77.337 14.3032C77.308 17.0184 76.5568 19.6813 75.1551 22.0383C73.9312 24.3764 72.1141 26.3799 69.8718 27.8633C67.7948 29.1542 65.3697 29.8307 62.8969 29.8088C61.5674 29.8652 60.2403 29.6553 58.9996 29.1925C57.7588 28.7297 56.6315 28.0241 55.6891 27.1204C54.7694 26.1912 54.0543 25.0929 53.5867 23.8914C53.1191 22.6898 52.9086 21.4098 52.9678 20.1281C52.9933 17.3362 53.7478 14.5953 55.162 12.1571C56.3891 9.81984 58.2213 7.82594 60.482 6.36755C62.6822 5.0601 65.2267 4.38883 67.8124 4.43376V4.43376ZM66.1943 5.89589C64.5416 5.8903 62.9291 6.38536 61.5853 7.31086C60.0476 8.47399 58.8763 10.0253 58.202 11.7916C57.2676 14.015 56.813 16.398 56.8659 18.7957C56.6923 21.3145 57.4284 23.8137 58.9498 25.8705C59.5638 26.6382 60.3555 27.2576 61.262 27.6792C62.1686 28.1009 63.1649 28.3133 64.1717 28.2995C65.7673 28.2878 67.3143 27.7697 68.5724 26.8256C70.1337 25.6103 71.3205 24.008 72.0047 22.1916C72.9419 19.874 73.3999 17.4027 73.3531 14.9163C73.5093 12.531 72.7794 10.1699 71.2937 8.25417C70.6905 7.50931 69.9162 6.90883 69.0316 6.49971C68.1469 6.09059 67.1758 5.88392 66.1943 5.89589V5.89589Z" fill="#EB7700"/>
<path d="M91.0415 20.7178C91.7292 21.7013 92.3594 22.7209 92.9292 23.7718C93.4217 24.6385 93.832 25.5462 94.1551 26.4838C94.2868 26.8258 94.3732 27.1823 94.4125 27.5451C94.4248 27.6268 94.4172 27.7101 94.3901 27.7885C94.3631 27.8669 94.3174 27.9381 94.2566 27.9965C94.1959 28.0549 94.1219 28.0989 94.0404 28.1249C93.9589 28.1509 93.8723 28.1583 93.7873 28.1464C93.4564 28.1464 93.1622 27.8752 92.9047 27.321C91.5068 24.933 89.8643 22.6854 88.0015 20.6117L92.1815 16.98C93.4073 15.8008 94.2531 15.058 94.5596 14.7514C94.866 14.4448 95.0989 14.1736 95.2583 13.9731C95.6751 13.4425 96.0306 13.1831 96.3125 13.1831C96.3909 13.1831 96.4685 13.1988 96.5403 13.2293C96.6121 13.2597 96.6764 13.3042 96.7293 13.36C96.8327 13.4612 96.8938 13.5955 96.9009 13.7373C96.8993 13.889 96.8616 14.0382 96.7906 14.1736C96.1073 15.1377 95.3665 16.0629 94.5718 16.9446C93.7546 17.9979 92.5778 19.2557 91.0415 20.7178ZM96.5944 20.7178C97.2875 21.7003 97.9218 22.72 98.4945 23.7718C99.0021 24.6394 99.4326 25.5466 99.7816 26.4838C99.9152 26.8259 100.006 27.1822 100.051 27.5451C100.064 27.6268 100.056 27.7101 100.029 27.7885C100.002 27.8669 99.9561 27.9381 99.8954 27.9965C99.8347 28.0549 99.7607 28.0989 99.6792 28.1249C99.5977 28.1509 99.511 28.1583 99.4261 28.1464C99.0706 28.1464 98.7764 27.8752 98.519 27.321C97.1238 24.9314 95.481 22.6835 93.6157 20.6117L97.7957 16.98C99.0828 15.8008 99.8674 15.058 100.174 14.7514C100.425 14.5047 100.663 14.2449 100.885 13.9731C101.302 13.4425 101.645 13.1831 101.939 13.1831C102.016 13.1825 102.092 13.198 102.162 13.2286C102.231 13.2591 102.294 13.304 102.344 13.36C102.397 13.4083 102.44 13.4667 102.47 13.5316C102.499 13.5965 102.515 13.6665 102.515 13.7373C102.514 13.889 102.476 14.0382 102.405 14.1736C101.726 15.1409 100.985 16.0664 100.186 16.9446C99.061 18.2641 97.862 19.5237 96.5944 20.7178V20.7178Z" fill="#EB7700"/>
<path d="M124.335 28.1697L125.364 28.3112C126.019 28.4357 126.683 28.5067 127.35 28.5234C128.022 28.5177 128.691 28.4466 129.348 28.3112L129.066 29.4903C128.509 29.5633 127.949 29.6066 127.387 29.62C126.774 29.62 125.953 29.62 124.935 29.4785C123.918 29.337 122.913 29.3252 122.128 29.3252C121.479 29.3272 120.833 29.4266 120.216 29.62C120.731 28.3151 121.65 25.1236 122.974 20.0454C124.657 13.6545 126.185 9.21304 127.558 6.72113C126.222 6.72113 125.205 6.72113 124.518 6.72113C122.508 6.72113 120.387 6.62679 118.144 6.42634C116.882 9.82636 115.83 13.2951 114.994 16.8146C113.474 22.6002 111.79 26.3263 109.943 27.9928C108.536 29.4623 106.597 30.357 104.525 30.4926C103.577 30.5004 102.642 30.2816 101.804 29.8559C101.46 29.7375 101.157 29.529 100.93 29.254C100.703 28.979 100.559 28.6484 100.517 28.2994C100.511 28.1327 100.541 27.9666 100.607 27.8121C100.672 27.6576 100.771 27.5183 100.897 27.4032C101.12 27.1839 101.424 27.057 101.743 27.0495C102.11 27.1007 102.46 27.234 102.765 27.4388C103.069 27.6436 103.319 27.9141 103.496 28.2286C104.047 28.9479 104.587 29.3017 105.101 29.3017C106.327 29.3017 107.48 28.3112 108.472 26.3302C110.163 22.2522 111.536 18.0585 112.579 13.7842L114.614 6.4853C111.402 6.4853 109.036 7.14169 107.516 8.45446C106.81 8.9971 106.237 9.68341 105.838 10.4642C105.44 11.245 105.226 12.1009 105.212 12.9706C105.186 13.3738 105.257 13.7773 105.42 14.1497C105.687 14.6039 106.012 15.0238 106.389 15.3996C106.806 15.7632 107.069 16.2634 107.124 16.8028C107.127 16.9832 107.088 17.162 107.012 17.3268C106.936 17.4917 106.824 17.6387 106.683 17.7579C106.406 18.0148 106.037 18.1585 105.653 18.1588C105.281 18.1473 104.921 18.0289 104.619 17.8187C104.318 17.6085 104.089 17.3163 103.961 16.9796C103.558 16.1208 103.357 15.1865 103.373 14.244C103.387 12.9083 103.711 11.5925 104.322 10.3929C104.933 9.19331 105.815 8.14022 106.903 7.3107C109.342 5.28512 112.485 4.21968 115.705 4.32747C116.931 4.32747 118.549 4.43359 120.706 4.62226C125.021 5.03103 129.311 5.23934 133.577 5.2472C135.195 5.2472 136.029 4.71659 136.029 3.64357C136.043 3.45124 136.043 3.25812 136.029 3.06579C135.998 2.88617 135.978 2.70511 135.967 2.52339C135.962 2.35327 135.993 2.18395 136.059 2.0258C136.124 1.86765 136.222 1.724 136.348 1.60366C136.597 1.37076 136.931 1.23978 137.279 1.23812C137.481 1.23375 137.682 1.27276 137.866 1.3523C138.051 1.43185 138.215 1.54994 138.346 1.69799C138.631 2.02835 138.779 2.44815 138.762 2.87713C138.737 3.40231 138.582 3.91406 138.309 4.36951C138.036 4.82496 137.653 5.21084 137.193 5.49482C135.654 6.41449 133.853 6.84743 132.045 6.73292C131.309 6.73292 130.819 6.73292 130.733 6.73292C127.976 13.6923 125.836 20.8634 124.335 28.1697V28.1697Z" fill="#EB7700"/>
<path d="M133.7 16.9565L132.866 16.1311C133.95 14.8057 135.27 13.6759 136.764 12.7941C137.769 12.1614 138.925 11.7878 140.123 11.7093C140.429 11.6911 140.731 11.7836 140.969 11.9687C141.077 12.0641 141.161 12.1812 141.216 12.3117C141.271 12.4422 141.296 12.5827 141.288 12.7233C141.284 13.1392 141.239 13.5539 141.153 13.9614C141.055 14.3859 140.761 15.3764 140.27 16.9565C141.659 15.5341 143.168 14.2247 144.781 13.0417C145.855 12.2864 147.131 11.8443 148.459 11.7682C148.829 11.7752 149.192 11.8704 149.515 12.0453C149.838 12.2202 150.111 12.4694 150.31 12.7705C150.881 13.6727 151.147 14.7235 151.07 15.7773C151.04 19.2003 149.905 22.5297 147.821 25.3048C145.652 28.3234 143.249 29.8209 140.626 29.8209C139.538 29.811 138.471 29.5351 137.524 29.0191L135.686 35.8581C135.581 36.187 135.523 36.5282 135.514 36.8721C135.499 37.0905 135.546 37.3088 135.653 37.5025C135.759 37.6962 135.919 37.8576 136.115 37.9687C137.351 38.4722 138.671 38.7597 140.013 38.8177L139.731 39.8554C137.426 39.6785 135.6 39.5842 134.276 39.5842C132.952 39.5842 131.15 39.6785 128.98 39.8554L129.262 38.8177C130.132 38.7925 130.969 38.4897 131.64 37.9569C132.273 37.2391 132.697 36.3723 132.866 35.4454L136.764 19.7156C137.216 18.1038 137.58 16.4705 137.855 14.8222C137.855 14.4567 137.684 14.2798 137.328 14.2798C136.691 14.2798 135.49 15.176 133.7 16.9565ZM138.064 26.7433C138.504 27.2248 139.04 27.6168 139.64 27.8962C140.24 28.1757 140.892 28.3369 141.557 28.3705C143.273 28.3705 144.781 27.0813 146.081 24.503C147.32 22.1551 147.987 19.566 148.03 16.9329C148.077 16.291 147.881 15.6544 147.478 15.1406C147.297 14.9382 147.07 14.7779 146.816 14.6717C146.561 14.5655 146.284 14.5162 146.007 14.5274C145.144 14.5994 144.329 14.9434 143.69 15.5061C142.515 16.348 141.485 17.3627 140.638 18.5129C139.957 19.6724 139.477 20.9309 139.216 22.239L138.064 26.7433Z" fill="#EB7700"/>
<path d="M163.487 11.7917C164.161 11.7848 164.828 11.9268 165.436 12.2069C166.044 12.487 166.577 12.8976 166.993 13.4072C167.998 14.7026 168.493 16.2984 168.391 17.9115C168.395 20.972 167.195 23.9207 165.032 26.1655C162.793 28.6102 160.423 29.8287 157.922 29.8208C157.238 29.8394 156.557 29.7199 155.924 29.4701C155.29 29.2203 154.718 28.8457 154.245 28.3705C153.255 27.2773 152.749 25.8555 152.835 24.4085C152.824 21.537 153.727 18.7309 155.421 16.3668C157.571 13.3168 160.259 11.7917 163.487 11.7917ZM161.649 13.3482C160.423 13.3482 159.197 14.1854 158.106 15.8598C156.851 17.9718 156.255 20.3872 156.39 22.8167C156.309 24.2998 156.675 25.7738 157.444 27.0616C157.649 27.4177 157.949 27.7147 158.313 27.9219C158.678 28.1292 159.093 28.2393 159.516 28.2408C160.211 28.1813 160.879 27.9518 161.456 27.5742C162.033 27.1965 162.5 26.6832 162.813 26.0829C164.142 23.9976 164.803 21.5821 164.713 19.1378C164.83 17.6122 164.53 16.0838 163.843 14.7042C163.635 14.3135 163.321 13.9838 162.935 13.7494C162.549 13.5151 162.105 13.3846 161.649 13.3718V13.3482Z" fill="#EB7700"/>
<path d="M182.708 14.6333C183.828 9.91676 184.919 6.77238 185.981 5.2002C187.031 3.63393 188.467 2.34173 190.161 1.43874C191.609 0.563362 193.27 0.0674395 194.979 0.000193407C195.691 -0.0528586 196.4 0.130238 196.989 0.519015C197.185 0.653862 197.345 0.830525 197.458 1.03512C197.571 1.23972 197.633 1.46667 197.639 1.69815C197.64 2.0807 197.486 2.44857 197.21 2.72401C197.046 2.87144 196.853 2.98515 196.642 3.05815C196.432 3.13115 196.208 3.1619 195.984 3.1485C195.026 3.07869 194.075 2.93676 193.14 2.72401C192.581 2.59952 192.01 2.52843 191.436 2.51176C190.82 2.54012 190.227 2.74661 189.735 3.10425C189.243 3.46188 188.875 3.95401 188.678 4.5163C187.738 6.58774 186.987 8.73403 186.435 10.9308L185.209 15.1757C186.986 12.9118 188.886 11.7798 191.044 11.7798C191.561 11.743 192.079 11.823 192.558 12.0134C193.037 12.2038 193.463 12.4993 193.802 12.8764C194.425 13.6683 194.746 14.6428 194.709 15.6356C194.624 17.6388 194.154 19.6097 193.324 21.4487C192.423 23.6304 191.105 25.6302 189.438 27.3444C187.783 29.0424 186.214 29.9032 184.719 29.9032C183.493 29.9032 182.586 29.0778 182.071 27.4388C181.457 30.8853 179.813 34.0852 177.339 36.6478C176.367 37.698 175.181 38.5452 173.855 39.1374C172.529 39.7296 171.09 40.0541 169.629 40.0909C168.927 40.1383 168.228 39.96 167.643 39.5839C167.43 39.446 167.257 39.2598 167.137 39.0418C167.017 38.8237 166.955 38.5806 166.957 38.334C166.957 37.3907 167.582 36.919 168.82 36.919C169.267 36.9297 169.713 36.9652 170.156 37.0252C171.115 37.1498 172.081 37.2128 173.049 37.2138C173.71 37.2844 174.378 37.1864 174.987 36.9298C175.596 36.6731 176.124 36.2668 176.518 35.7517C177.139 34.7691 178.112 31.723 179.435 26.6134C177.629 28.7987 175.688 29.8914 173.613 29.8914C171.161 29.8914 169.935 28.5707 169.935 25.9295C170.031 23.9997 170.488 22.1025 171.284 20.3286C172.18 18.1473 173.494 16.1474 175.157 14.4329C176.882 12.672 178.5 11.7916 180.012 11.7916C180.595 11.7691 181.166 11.9537 181.617 12.3104C182.215 12.9622 182.595 13.7714 182.708 14.6333V14.6333ZM181.838 16.9916C181.662 16.1229 181.352 15.2843 180.919 14.5036C180.748 14.224 180.498 13.9962 180.199 13.8461C179.9 13.696 179.563 13.6297 179.227 13.6546C177.707 13.6546 176.346 14.9399 175.133 17.4868C173.976 19.7912 173.353 22.3096 173.306 24.8682C173.306 26.6841 174.03 27.5921 175.464 27.5921C176.01 27.5407 176.54 27.3862 177.024 27.1373C177.508 26.8884 177.936 26.5501 178.283 26.1417C179.595 24.5652 180.472 22.6954 180.833 20.7059L181.838 16.9916ZM182.953 24.5617C183.358 26.9199 184.179 28.0048 185.577 28.0048C186.974 28.0048 188.421 26.7313 189.634 24.1961C190.794 21.8764 191.413 19.3412 191.448 16.7676C191.448 14.9753 190.725 14.0791 189.266 14.0791C188.447 14.1354 187.673 14.46 187.072 14.9988C186.292 15.5922 185.66 16.3455 185.221 17.2038C184.647 18.4008 184.195 19.6487 183.873 20.9299L182.953 24.5617Z" fill="#EB7700"/>
<path d="M210.988 12.3576H214.052L212.067 19.5975C211.313 21.9524 210.715 24.3509 210.277 26.7785C210.261 26.9956 210.331 27.2105 210.473 27.3799C210.523 27.4442 210.588 27.4967 210.662 27.5335C210.737 27.5703 210.819 27.5903 210.902 27.5921C211.214 27.5681 211.512 27.4575 211.76 27.2737C212.716 26.5495 213.617 25.7615 214.457 24.9155L215.168 25.6819C212.275 28.5747 210.15 30.0211 208.794 30.0211C208.563 30.0293 208.334 29.988 208.122 29.9004C207.909 29.8127 207.72 29.6807 207.568 29.5141C207.223 29.1105 207.048 28.5972 207.078 28.0756C207.119 27.0988 207.275 26.1297 207.543 25.1867C206.187 26.6644 204.589 27.919 202.812 28.901C201.844 29.5212 200.724 29.887 199.563 29.9622C199.334 29.9767 199.105 29.9407 198.892 29.8569C198.68 29.7731 198.49 29.6438 198.338 29.4787C198.02 29.0373 197.869 28.5048 197.909 27.9694C197.912 27.3828 197.977 26.798 198.105 26.2243C198.289 25.3517 198.767 23.5948 199.527 20.9653C200.199 18.9958 200.703 16.9767 201.034 14.9281C201.034 14.539 200.887 14.3386 200.593 14.3386C200.213 14.3817 199.851 14.5155 199.539 14.7277C198.725 15.281 197.963 15.9004 197.259 16.5789L196.315 15.8597C197.657 14.6236 199.132 13.5287 200.716 12.5934C201.459 12.1551 202.298 11.8888 203.167 11.8152C203.326 11.8092 203.484 11.8391 203.629 11.9026C203.774 11.9661 203.901 12.0614 204.001 12.1807C204.263 12.5192 204.381 12.9407 204.332 13.3599C204.036 15.7585 203.515 18.1265 202.775 20.4347C202.191 22.3229 201.733 24.2448 201.402 26.1889C201.39 26.4626 201.492 26.7297 201.684 26.9318C201.845 27.0613 202.05 27.1285 202.26 27.1205C203.069 27.1205 204.209 26.4837 205.68 25.1985C207.076 24.0529 208.087 22.5345 208.585 20.8356L210.988 12.3576Z" fill="#EB7700"/>
<path d="M221.505 20.5878C220.82 19.613 220.194 18.6012 219.63 17.5574C219.133 16.6847 218.722 15.7687 218.404 14.8218C218.271 14.4884 218.184 14.1395 218.147 13.7841C218.134 13.7024 218.142 13.619 218.169 13.5406C218.196 13.4623 218.242 13.3911 218.302 13.3327C218.363 13.2743 218.437 13.2303 218.519 13.2043C218.6 13.1783 218.687 13.1709 218.772 13.1828C219.103 13.1828 219.397 13.454 219.654 14.0082C221.048 16.3912 222.691 18.6313 224.558 20.6939L220.378 24.3256C219.152 25.5048 218.318 26.2594 218.012 26.566C217.705 26.8726 217.472 27.132 217.301 27.3324C216.896 27.8748 216.541 28.146 216.247 28.146C216.168 28.1461 216.091 28.1304 216.019 28.0999C215.947 28.0694 215.883 28.0249 215.83 27.9692C215.721 27.862 215.659 27.7183 215.658 27.5683C215.668 27.4148 215.714 27.2655 215.793 27.132C216.457 26.1645 217.19 25.2426 217.987 24.3728C218.804 23.3352 219.977 22.0735 221.505 20.5878ZM227.071 20.5878C226.376 19.6187 225.75 18.6063 225.195 17.5574C224.689 16.6795 224.254 15.7648 223.896 14.8218C223.762 14.4884 223.676 14.1395 223.638 13.7841C223.626 13.7024 223.634 13.619 223.661 13.5406C223.688 13.4623 223.733 13.3911 223.794 13.3327C223.855 13.2743 223.929 13.2303 224.01 13.2043C224.092 13.1783 224.178 13.1709 224.263 13.1828C224.594 13.1828 224.889 13.454 225.146 14.0082C226.547 16.3872 228.189 18.6267 230.049 20.6939L225.894 24.3256C224.594 25.5048 223.798 26.2594 223.442 26.566C223.195 26.8091 222.962 27.0649 222.743 27.3324C222.327 27.8748 221.971 28.146 221.665 28.146C221.588 28.1467 221.512 28.1312 221.442 28.1006C221.372 28.0701 221.31 28.0252 221.26 27.9692C221.151 27.862 221.09 27.7183 221.089 27.5683C221.093 27.4156 221.135 27.2661 221.211 27.132C221.882 26.1658 222.619 25.244 223.418 24.3728C224.333 23.3352 225.551 22.0735 227.071 20.5878V20.5878Z" fill="#EB7700"/>
</g>
<path d="M302.091 25.6932H303.548V21.0227H308.219V19.5739H303.548V14.9034H302.091V19.5739H297.42V21.0227H302.091V25.6932ZM311.7 29H313.379L321.322 13.0455V11.5455H310.49V12.9773H319.651V13.0881L311.7 29ZM330.481 20.2727C330.481 24.3551 331.555 27.9858 333.481 31.1818H334.861C333.208 28.5142 332.049 24.2017 332.049 20.2727C332.049 16.3523 333.199 12.0398 334.861 9.36364H333.481C331.555 12.5426 330.481 16.1818 330.481 20.2727ZM342.938 29.2386C346.211 29.2386 348.597 27.125 348.597 24.3295C348.597 22.1136 347.234 20.4858 345.009 20.0426V19.9318C346.842 19.3864 348.001 17.9034 348.001 15.9091C348.001 13.4119 346.041 11.3068 342.972 11.3068C340.049 11.3068 337.714 13.1818 337.646 15.9091H339.188C339.239 13.9574 340.927 12.7131 342.955 12.7131C345.06 12.7131 346.45 14.0511 346.45 15.9773C346.45 18.0142 344.822 19.3182 342.563 19.3182H341.541V20.75H342.563C345.325 20.75 347.029 22.2074 347.029 24.3295C347.029 26.3409 345.333 27.8068 342.921 27.8068C340.697 27.8068 338.958 26.5455 338.873 24.6364H337.262C337.347 27.3551 339.7 29.2386 342.938 29.2386ZM356.919 29.2386C360.243 29.2386 362.672 27.1761 362.681 24.4062C362.672 22.2415 361.181 20.3409 359.203 19.9574V19.8636C360.908 19.3778 362.05 17.75 362.059 15.875C362.05 13.267 359.826 11.3068 356.919 11.3068C353.987 11.3068 351.772 13.2756 351.789 15.875C351.772 17.75 352.922 19.3693 354.635 19.8636V19.9574C352.641 20.3494 351.149 22.2415 351.158 24.4062C351.149 27.1761 353.578 29.2386 356.919 29.2386ZM356.919 27.8068C354.422 27.8068 352.718 26.3494 352.726 24.3295C352.718 22.2415 354.516 20.6733 356.919 20.6733C359.306 20.6733 361.104 22.2415 361.112 24.3295C361.104 26.3494 359.408 27.8068 356.919 27.8068ZM356.919 19.3097C354.865 19.3097 353.323 17.8949 353.331 15.9688C353.323 14.0597 354.831 12.7131 356.919 12.7131C358.99 12.7131 360.499 14.0597 360.516 15.9688C360.499 17.8949 358.956 19.3097 356.919 19.3097ZM371.047 29.2386C374.32 29.2386 376.706 27.125 376.706 24.3295C376.706 22.1136 375.343 20.4858 373.118 20.0426V19.9318C374.951 19.3864 376.11 17.9034 376.11 15.9091C376.11 13.4119 374.15 11.3068 371.081 11.3068C368.158 11.3068 365.823 13.1818 365.755 15.9091H367.297C367.348 13.9574 369.036 12.7131 371.064 12.7131C373.17 12.7131 374.559 14.0511 374.559 15.9773C374.559 18.0142 372.931 19.3182 370.672 19.3182H369.65V20.75H370.672C373.434 20.75 375.138 22.2074 375.138 24.3295C375.138 26.3409 373.442 27.8068 371.03 27.8068C368.806 27.8068 367.067 26.5455 366.982 24.6364H365.371C365.456 27.3551 367.809 29.2386 371.047 29.2386ZM383.375 20.2727C383.375 16.1903 382.301 12.5597 380.375 9.36364H378.994C380.648 12.0312 381.807 16.3438 381.807 20.2727C381.807 24.1932 380.656 28.5057 378.994 31.1818H380.375C382.301 28.0028 383.375 24.3636 383.375 20.2727ZM393.024 29H403.873V27.5682H395.24V27.4574L399.569 22.625C402.467 19.4205 403.328 17.9716 403.328 16.0369C403.328 13.3778 401.231 11.3068 398.308 11.3068C395.359 11.3068 393.169 13.3864 393.169 16.2756H394.694C394.694 14.2045 396.109 12.7131 398.265 12.7131C400.294 12.7131 401.828 14.0426 401.828 16.0369C401.828 17.6903 400.95 18.9176 398.726 21.4233L393.024 27.8324V29ZM412.082 11.3068C408.741 11.2812 406.56 13.8977 406.56 17C406.56 20.2812 408.971 22.6847 411.886 22.6847C413.761 22.6847 415.423 21.6705 416.241 20.1364H416.352C416.352 25.0455 414.699 27.8068 411.844 27.8068C409.858 27.8068 408.631 26.4688 408.324 24.6023H406.756C407.079 27.3551 409.023 29.2386 411.844 29.2386C415.866 29.2386 417.852 25.2159 417.852 19.5142C417.852 13.4119 414.98 11.3324 412.082 11.3068ZM412.082 12.7386C414.256 12.7386 415.866 14.5114 416.062 16.8977C416.233 19.1903 414.4 21.2528 412.082 21.2528C409.807 21.2528 408.102 19.3778 408.102 17C408.102 14.6477 409.807 12.7386 412.082 12.7386ZM420.617 29H431.467V27.5682H422.833V27.4574L427.163 22.625C430.06 19.4205 430.921 17.9716 430.921 16.0369C430.921 13.3778 428.825 11.3068 425.901 11.3068C422.952 11.3068 420.762 13.3864 420.762 16.2756H422.288C422.288 14.2045 423.702 12.7131 425.859 12.7131C427.887 12.7131 429.421 14.0426 429.421 16.0369C429.421 17.6903 428.543 18.9176 426.319 21.4233L420.617 27.8324V29ZM441.551 19.5568H434.289V20.9886H441.551V19.5568ZM443.64 29H454.49V27.5682H445.856V27.4574L450.186 22.625C453.084 19.4205 453.944 17.9716 453.944 16.0369C453.944 13.3778 451.848 11.3068 448.924 11.3068C445.976 11.3068 443.785 13.3864 443.785 16.2756H445.311C445.311 14.2045 446.726 12.7131 448.882 12.7131C450.91 12.7131 452.444 14.0426 452.444 16.0369C452.444 17.6903 451.567 18.9176 449.342 21.4233L443.64 27.8324V29ZM457.449 29H468.298V27.5682H459.665V27.4574L463.994 22.625C466.892 19.4205 467.753 17.9716 467.753 16.0369C467.753 13.3778 465.656 11.3068 462.733 11.3068C459.784 11.3068 457.594 13.3864 457.594 16.2756H459.119C459.119 14.2045 460.534 12.7131 462.69 12.7131C464.719 12.7131 466.253 14.0426 466.253 16.0369C466.253 17.6903 465.375 18.9176 463.151 21.4233L457.449 27.8324V29ZM478.382 19.5568H471.121V20.9886H478.382V19.5568ZM486.789 29.2386C490.122 29.2642 492.312 26.6392 492.312 23.5114C492.312 20.2301 489.892 17.8267 486.985 17.8267C485.11 17.8267 483.457 18.8324 482.63 20.375H482.52C482.528 15.5 484.164 12.7386 487.028 12.7386C489.022 12.7386 490.233 14.0682 490.556 15.9091H492.125C491.784 13.1903 489.849 11.3068 487.028 11.3068C483.014 11.3068 481.02 15.321 481.02 20.9972C481.02 27.1335 483.892 29.2131 486.789 29.2386ZM486.789 27.8068C484.616 27.8068 483.005 26.0256 482.818 23.6136C482.647 21.3125 484.463 19.2585 486.789 19.2585C489.056 19.2585 490.77 21.1506 490.77 23.5114C490.77 25.8892 489.056 27.8068 486.789 27.8068ZM500.745 29.2386C504.018 29.2386 506.404 27.125 506.404 24.3295C506.404 22.1136 505.04 20.4858 502.816 20.0426V19.9318C504.648 19.3864 505.807 17.9034 505.807 15.9091C505.807 13.4119 503.847 11.3068 500.779 11.3068C497.856 11.3068 495.52 13.1818 495.452 15.9091H496.995C497.046 13.9574 498.733 12.7131 500.762 12.7131C502.867 12.7131 504.256 14.0511 504.256 15.9773C504.256 18.0142 502.628 19.3182 500.37 19.3182H499.347V20.75H500.37C503.131 20.75 504.836 22.2074 504.836 24.3295C504.836 26.3409 503.14 27.8068 500.728 27.8068C498.503 27.8068 496.765 26.5455 496.68 24.6364H495.069C495.154 27.3551 497.506 29.2386 500.745 29.2386Z" fill="white"/>
<defs>
<filter id="filter0_i" x="0" y="0" width="230" height="44.1025" filterUnits="userSpaceOnUse" color-interpolation-filters="sRGB">
<feFlood flood-opacity="0" result="BackgroundImageFix"/>
<feBlend mode="normal" in="SourceGraphic" in2="BackgroundImageFix" result="shape"/>
<feColorMatrix in="SourceAlpha" type="matrix" values="0 0 0 0 0 0 0 0 0 0 0 0 0 0 0 0 0 0 127 0" result="hardAlpha"/>
<feOffset dy="4"/>
<feGaussianBlur stdDeviation="2"/>
<feComposite in2="hardAlpha" operator="arithmetic" k2="-1" k3="1"/>
<feColorMatrix type="matrix" values="0 0 0 0 0 0 0 0 0 0 0 0 0 0 0 0 0 0 0.25 0"/>
<feBlend mode="normal" in2="shape" result="effect1_innerShadow"/>
</filter>
<clipPath id="clip0">
<rect width="230" height="40.1025" fill="white"/>
</clipPath>
</defs>
</svg>
