<svg xmlns="http://www.w3.org/2000/svg" viewBox="0 0 187.63 34.01"><defs><style>.cls-1{fill:#1d1d1b;}</style></defs><title>Ресурс 1</title><g id="Слой_2" data-name="Слой 2"><g id="Слой_1-2" data-name="Слой 1"><path class="cls-1" d="M12.11,3.76a7.82,7.82,0,0,1,4,1,7,7,0,0,1,2.77,2.94,9.48,9.48,0,0,1,1,4.43,13.59,13.59,0,0,1-1.77,6.56,13.28,13.28,0,0,1-4.34,4.91,10.32,10.32,0,0,1-5.7,1.65A7.85,7.85,0,0,1,2.22,23,8.08,8.08,0,0,1,0,17.1a14,14,0,0,1,1.78-6.79A12.83,12.83,0,0,1,6.13,5.4,11,11,0,0,1,12.11,3.76ZM10.83,5a6.39,6.39,0,0,0-3.75,1.2A8.54,8.54,0,0,0,4.27,10a15,15,0,0,0-1.09,5.94,9.23,9.23,0,0,0,1.71,6A5.25,5.25,0,0,0,9.14,24a5.94,5.94,0,0,0,3.6-1.25,8.88,8.88,0,0,0,2.79-3.93,16.21,16.21,0,0,0,1.1-6.17A8.55,8.55,0,0,0,15,7,5.17,5.17,0,0,0,10.83,5Z"/><path class="cls-1" d="M33.71,3.76a7.82,7.82,0,0,1,4,1,7,7,0,0,1,2.77,2.94,9.48,9.48,0,0,1,1,4.43,13.49,13.49,0,0,1-1.78,6.56,13.2,13.2,0,0,1-4.34,4.91,10.32,10.32,0,0,1-5.7,1.65A7.81,7.81,0,0,1,23.83,23,8,8,0,0,1,21.6,17.1a14.14,14.14,0,0,1,1.78-6.79A12.85,12.85,0,0,1,27.74,5.4,10.92,10.92,0,0,1,33.71,3.76ZM32.43,5a6.39,6.39,0,0,0-3.75,1.2A8.53,8.53,0,0,0,25.88,10a15,15,0,0,0-1.09,5.94,9.23,9.23,0,0,0,1.7,6A5.26,5.26,0,0,0,30.74,24a5.92,5.92,0,0,0,3.6-1.25,8.88,8.88,0,0,0,2.79-3.93,16,16,0,0,0,1.1-6.17A8.55,8.55,0,0,0,36.55,7,5.17,5.17,0,0,0,32.43,5Z"/><path class="cls-1" d="M55.32,3.76a7.84,7.84,0,0,1,4,1,7,7,0,0,1,2.77,2.94,9.61,9.61,0,0,1,1,4.43,13.49,13.49,0,0,1-1.78,6.56A13.2,13.2,0,0,1,57,23.63a10.31,10.31,0,0,1-5.69,1.65A7.84,7.84,0,0,1,45.43,23a8.08,8.08,0,0,1-2.22-5.93A14.13,14.13,0,0,1,45,10.31,12.93,12.93,0,0,1,49.34,5.4,11,11,0,0,1,55.32,3.76ZM54,5a6.42,6.42,0,0,0-3.76,1.2A8.61,8.61,0,0,0,47.48,10a15,15,0,0,0-1.09,5.94,9.29,9.29,0,0,0,1.7,6A5.28,5.28,0,0,0,52.35,24a5.91,5.91,0,0,0,3.59-1.25,9,9,0,0,0,2.8-3.93,16.21,16.21,0,0,0,1.1-6.17A8.55,8.55,0,0,0,58.16,7,5.19,5.19,0,0,0,54,5Z"/><path class="cls-1" d="M74.27,17.57a27.09,27.09,0,0,1,1.54,2.59,13.94,13.94,0,0,1,1,2.3,3.69,3.69,0,0,1,.21.9.45.45,0,0,1-.51.51c-.27,0-.51-.23-.72-.7a34.87,34.87,0,0,0-4-5.69l3.41-3.08c1-1,1.69-1.63,1.94-1.89s.44-.49.57-.66c.34-.45.63-.67.86-.67a.46.46,0,0,1,.34.15.49.49,0,0,1,.14.32.84.84,0,0,1-.09.37,25.6,25.6,0,0,1-1.81,2.35Q76.15,15.71,74.27,17.57Zm4.53,0a26.55,26.55,0,0,1,1.55,2.59,15,15,0,0,1,1.05,2.3,3.88,3.88,0,0,1,.22.9.45.45,0,0,1-.51.51c-.29,0-.53-.23-.74-.7a34.49,34.49,0,0,0-4-5.69l3.41-3.08c1.05-1,1.69-1.63,1.94-1.89a8,8,0,0,0,.58-.66c.34-.45.62-.67.86-.67a.43.43,0,0,1,.33.15.44.44,0,0,1,.14.32.84.84,0,0,1-.09.37,23.69,23.69,0,0,1-1.81,2.35A39.86,39.86,0,0,1,78.8,17.57Z"/><path class="cls-1" d="M101.43,23.89l.84.12a9.64,9.64,0,0,0,1.62.18,8.12,8.12,0,0,0,1.63-.18l-.23,1a12.42,12.42,0,0,1-1.37.11c-.5,0-1.17,0-2-.12s-1.65-.13-2.29-.13a5.09,5.09,0,0,0-1.56.25q.63-1.66,2.25-8.12,2.06-8.13,3.74-11.3c-1.09,0-1.92,0-2.48,0-1.64,0-3.37-.08-5.2-.25a77.71,77.71,0,0,0-2.57,8.81q-1.86,7.36-4.12,9.48a6.62,6.62,0,0,1-4.42,2.12,4.67,4.67,0,0,1-2.22-.54A1.6,1.6,0,0,1,82,24a1,1,0,0,1,.31-.76,1,1,0,0,1,.69-.3,1.94,1.94,0,0,1,1.43,1c.45.61.89.91,1.31.91,1,0,1.94-.84,2.75-2.52a74.92,74.92,0,0,0,3.35-10.64L93.5,5.5q-3.93,0-5.79,1.67A5,5,0,0,0,85.83,11,2.23,2.23,0,0,0,86,12a5.26,5.26,0,0,0,.79,1.06,1.85,1.85,0,0,1,.6,1.19,1.06,1.06,0,0,1-.36.81,1.21,1.21,0,0,1-.84.34,1.52,1.52,0,0,1-1.38-1,5.41,5.41,0,0,1-.48-2.32A7.6,7.6,0,0,1,87.21,6.2a10.43,10.43,0,0,1,7.18-2.53c1,0,2.32.09,4.08.25q5.28.52,10.5.53c1.32,0,2-.45,2-1.36a3.34,3.34,0,0,0,0-.49,4.32,4.32,0,0,1-.05-.46,1.06,1.06,0,0,1,.31-.78,1.1,1.1,0,0,1,.76-.31,1.11,1.11,0,0,1,.87.39,1.48,1.48,0,0,1,.34,1,2.79,2.79,0,0,1-1.28,2.22,7.08,7.08,0,0,1-4.2,1.05c-.6,0-1,0-1.07,0A112.09,112.09,0,0,0,101.43,23.89Z"/><path class="cls-1" d="M109.07,14.38l-.68-.7a12.09,12.09,0,0,1,3.18-2.83,5.71,5.71,0,0,1,2.74-.92,1,1,0,0,1,.69.22.81.81,0,0,1,.26.64,5.51,5.51,0,0,1-.11,1.05c-.08.36-.32,1.2-.72,2.54a30,30,0,0,1,3.68-3.32,5.65,5.65,0,0,1,3-1.08,1.83,1.83,0,0,1,1.51.85,4.32,4.32,0,0,1,.62,2.55,14,14,0,0,1-2.65,8.08c-1.77,2.56-3.73,3.83-5.87,3.83a5.23,5.23,0,0,1-2.53-.68l-1.5,5.8a3.22,3.22,0,0,0-.14.86,1,1,0,0,0,.49.93,9.22,9.22,0,0,0,3.18.72l-.23.88c-1.88-.15-3.37-.23-4.45-.23s-2.55.08-4.32.23l.23-.88a3.2,3.2,0,0,0,1.94-.73,4.5,4.5,0,0,0,1-2.13l3.18-13.34a40.8,40.8,0,0,0,.89-4.15c0-.31-.14-.46-.43-.46C111.51,12.11,110.53,12.87,109.07,14.38Zm3.56,8.3a4.08,4.08,0,0,0,2.85,1.38q2.1,0,3.69-3.28a14.68,14.68,0,0,0,1.59-6.42,2.26,2.26,0,0,0-.45-1.52,1.5,1.5,0,0,0-1.2-.52,3.21,3.21,0,0,0-1.89.83,11.38,11.38,0,0,0-2.49,2.55,10.4,10.4,0,0,0-1.16,3.16Z"/><path class="cls-1" d="M133.37,10a3.59,3.59,0,0,1,2.86,1.37,5.8,5.8,0,0,1,1.14,3.82,10.28,10.28,0,0,1-2.74,7q-2.74,3.11-5.8,3.1a4,4,0,0,1-3-1.23,4.71,4.71,0,0,1-1.15-3.36,11.94,11.94,0,0,1,2.11-6.82Q129.42,10,133.37,10Zm-1.5,1.32c-1,0-2,.71-2.89,2.13a10.73,10.73,0,0,0-1.4,5.9,6.54,6.54,0,0,0,.86,3.6,1.94,1.94,0,0,0,1.69,1,3.34,3.34,0,0,0,2.69-1.83,10.56,10.56,0,0,0,1.55-5.89,7.44,7.44,0,0,0-.71-3.76A2.08,2.08,0,0,0,131.87,11.34Z"/><path class="cls-1" d="M149.05,12.41q1.37-6,2.67-8a9.58,9.58,0,0,1,3.41-3.19A8,8,0,0,1,159.06,0a2.55,2.55,0,0,1,1.64.44,1.27,1.27,0,0,1,.53,1,1.25,1.25,0,0,1-.35.87,1.34,1.34,0,0,1-1,.36,15,15,0,0,1-2.32-.36,7.12,7.12,0,0,0-1.39-.18,2.5,2.5,0,0,0-2.25,1.7,33,33,0,0,0-1.83,5.44l-1,3.6c1.45-1.92,3-2.88,4.76-2.88a2.71,2.71,0,0,1,2.25.93,3.66,3.66,0,0,1,.74,2.34,13.8,13.8,0,0,1-1.13,4.93,15.92,15.92,0,0,1-3.17,5c-1.35,1.44-2.63,2.17-3.85,2.17-1,0-1.74-.7-2.16-2.09a15.27,15.27,0,0,1-3.86,7.81A8.73,8.73,0,0,1,138.38,34a2.59,2.59,0,0,1-1.62-.43,1.27,1.27,0,0,1-.56-1.06c0-.8.51-1.2,1.52-1.2a9.51,9.51,0,0,1,1.09.09,17.77,17.77,0,0,0,2.36.16A3.09,3.09,0,0,0,144,30.32q.76-1.25,2.38-7.75-2.21,2.78-4.75,2.78-3,0-3-3.36a13.64,13.64,0,0,1,1.1-4.75,15.88,15.88,0,0,1,3.16-5Q145,10,146.85,10a1.94,1.94,0,0,1,1.31.44A3.68,3.68,0,0,1,149.05,12.41Zm-.71,2a7.54,7.54,0,0,0-.75-2.11,1.47,1.47,0,0,0-1.38-.72c-1.24,0-2.35,1.09-3.34,3.25a15,15,0,0,0-1.49,6.26c0,1.54.59,2.31,1.76,2.31a3.4,3.4,0,0,0,2.3-1.23,10.17,10.17,0,0,0,2.08-4.61Zm.91,6.42c.33,2,1,2.92,2.14,2.92s2.32-1.08,3.31-3.23a15,15,0,0,0,1.48-6.3c0-1.52-.59-2.28-1.78-2.28a2.93,2.93,0,0,0-1.79.78,5.45,5.45,0,0,0-1.51,1.87A17.22,17.22,0,0,0,150,17.75Z"/><path class="cls-1" d="M172.12,10.48h2.5L173,16.62a49.46,49.46,0,0,0-1.46,6.09.73.73,0,0,0,.16.51.45.45,0,0,0,.35.18,1.32,1.32,0,0,0,.7-.27,21.13,21.13,0,0,0,2.2-2l.58.65q-3.54,3.68-5.2,3.68a1.27,1.27,0,0,1-1-.43,1.77,1.77,0,0,1-.4-1.22,11,11,0,0,1,.38-2.45,15.35,15.35,0,0,1-3.86,3.15,5.44,5.44,0,0,1-2.65.9,1.23,1.23,0,0,1-1-.41,2,2,0,0,1-.35-1.28,7.26,7.26,0,0,1,.16-1.48c.15-.74.54-2.23,1.16-4.46A32.29,32.29,0,0,0,164,12.66c0-.33-.12-.5-.36-.5a1.87,1.87,0,0,0-.86.33,14.24,14.24,0,0,0-1.86,1.57l-.77-.61a21.33,21.33,0,0,1,3.59-2.77,4.6,4.6,0,0,1,2-.66.83.83,0,0,1,.68.31,1.41,1.41,0,0,1,.27,1,33.92,33.92,0,0,1-1.27,6,39.46,39.46,0,0,0-1.12,4.88.88.88,0,0,0,.23.63A.69.69,0,0,0,165,23c.66,0,1.59-.54,2.79-1.63a7.56,7.56,0,0,0,2.37-3.7Z"/><path class="cls-1" d="M180.7,17.46a26.08,26.08,0,0,1-1.53-2.57,13.4,13.4,0,0,1-1-2.32,3.41,3.41,0,0,1-.21-.88.45.45,0,0,1,.51-.51c.27,0,.51.23.72.7a34.13,34.13,0,0,0,4,5.67l-3.41,3.08c-1,1-1.68,1.64-1.93,1.9s-.44.48-.58.65c-.33.46-.62.69-.86.69a.46.46,0,0,1-.34-.15.49.49,0,0,1-.14-.34.85.85,0,0,1,.11-.37,21.24,21.24,0,0,1,1.79-2.34Q178.83,19.35,180.7,17.46Zm4.54,0a22.54,22.54,0,0,1-1.53-2.57,16.34,16.34,0,0,1-1.06-2.32,3.41,3.41,0,0,1-.21-.88.45.45,0,0,1,.51-.51c.27,0,.51.23.72.7a35.07,35.07,0,0,0,4,5.67l-3.39,3.08c-1.06,1-1.71,1.64-2,1.9a7.94,7.94,0,0,0-.57.65c-.34.46-.63.69-.88.69a.43.43,0,0,1-.33-.15.49.49,0,0,1-.14-.34.82.82,0,0,1,.1-.37,22,22,0,0,1,1.8-2.34Q183.38,19.35,185.24,17.46Z"/></g></g></svg>