<svg width="50" height="47" viewBox="0 0 50 47" fill="none" xmlns="http://www.w3.org/2000/svg">
<path d="M46.1613 25.9463C47.1405 24.9445 47.3252 23.2373 46.8823 21.9814C44.527 23.0877 40.6972 24.2442 34.5973 25.7273C31.4199 26.4999 13.1292 30.1344 10.5457 34.3112C15.0343 38.902 16.6932 40.6128 21.8037 45.8395C23.1521 47.2203 25.3608 47.2203 26.7098 45.8395L46.1613 25.9463Z" fill="url(#paint0_linear)"/>
<path d="M37.7635 12.3395L26.7102 1.03492C26.0353 0.34481 25.1463 0 24.2571 0C23.3673 0 22.4782 0.34481 21.804 1.03492L2.35304 20.9281C1.00341 22.3083 1.00341 24.5668 2.35304 25.9464L4.54346 28.1871C7.1745 26.7495 10.4894 24.8096 15.5571 22.7712C18.7137 21.5014 32.8503 17.0189 37.7635 12.3395Z" fill="url(#paint1_linear)"/>
<path d="M33.4739 6.66639C33.4739 6.66639 36.864 6.80936 38.4034 8.01377C39.0246 8.49966 39.3743 9.17041 39.0188 10.0501C36.8612 15.389 19.1149 21.0898 15.5014 22.5433C4.07298 27.1402 1.08008 29.7924 0.191212 31.6645C-1.61754 35.4739 10.0015 35.1579 10.0015 35.1579C10.0015 35.1579 6.61126 35.0149 5.0718 33.8105C4.45081 33.3245 4.13103 32.6659 4.45658 31.7741C4.49916 31.6575 4.55282 31.5369 4.61821 31.4122C6.90955 27.0437 14.5895 23.8372 18.9787 22.2759C23.661 20.6095 27.6503 19.1039 31.0321 17.7436C42.461 13.1466 43.8968 11.747 44.7856 9.87493C46.5942 6.06555 33.4739 6.66639 33.4739 6.66639V6.66639Z" fill="url(#paint2_linear)"/>
<path d="M13.3341 37.1649C11.7892 36.831 9.77593 36.2322 10.7136 34.6066C13.1419 30.3998 31.4027 26.8738 34.5974 26.0973C44.7003 23.6406 48.8051 21.7291 49.7673 20.2701C51.7253 17.3012 40.6706 16.2061 40.6706 16.2061C40.6706 16.2061 43.4925 16.7387 44.6409 17.9345C45.1042 18.4172 45.2952 19.0072 44.919 19.7146C44.8697 19.8069 44.8105 19.9013 44.7415 19.9978C42.3144 23.3759 35.5113 25.125 31.6548 25.8975C27.5406 26.722 24.0257 27.497 21.036 28.2239C10.9323 30.6803 6.82733 32.5918 5.86531 34.0508C4.37645 36.3087 10.8197 37.3116 13.8701 37.7138L13.3341 37.1649Z" fill="url(#paint3_linear)"/>
<defs>
<linearGradient id="paint0_linear" x1="10.5457" y1="21.9814" x2="10.5457" y2="46.8751" gradientUnits="userSpaceOnUse">
<stop stop-color="#868789"/>
<stop offset="0.47" stop-color="#868789"/>
<stop offset="1" stop-color="#C5C7C8"/>
</linearGradient>
<linearGradient id="paint1_linear" x1="1.34082" y1="-2.62421e-06" x2="1.34082" y2="28.1871" gradientUnits="userSpaceOnUse">
<stop stop-color="#E7441C"/>
<stop offset="0.47" stop-color="#E7441C"/>
<stop offset="1" stop-color="#F07C00"/>
</linearGradient>
<linearGradient id="paint2_linear" x1="2.67963e-06" y1="6.63184" x2="2.67963e-06" y2="35.1643" gradientUnits="userSpaceOnUse">
<stop stop-color="#E7441C"/>
<stop offset="0.47" stop-color="#E7441C"/>
<stop offset="1" stop-color="#F07C00"/>
</linearGradient>
<linearGradient id="paint3_linear" x1="5.64527" y1="16.2061" x2="5.64527" y2="37.7138" gradientUnits="userSpaceOnUse">
<stop stop-color="#868789"/>
<stop offset="0.47" stop-color="#868789"/>
<stop offset="1" stop-color="#C5C7C8"/>
</linearGradient>
</defs>
</svg>
