<svg width="674" height="674" viewBox="0 0 674 674" fill="none" xmlns="http://www.w3.org/2000/svg">
<path fill-rule="evenodd" clip-rule="evenodd" d="M272.606 6.1454C117.288 36.1981 0 172.902 0 337C0 501.098 117.288 637.802 272.606 667.855V661.74C120.623 631.773 6 497.772 6 337C6 176.228 120.623 42.2269 272.606 12.2599V6.1454ZM323.216 667.718C327.787 667.905 332.383 668 337 668C519.806 668 668 519.806 668 337C668 154.194 519.806 6 337 6C332.383 6 327.787 6.09455 323.216 6.28181V0.27677C327.788 0.0928449 332.383 0 337 0C523.12 0 674 150.88 674 337C674 523.12 523.12 674 337 674C332.383 674 327.788 673.907 323.216 673.723V667.718Z" fill="#FF5E3A"/>
</svg>
