<svg width="558" height="603" viewBox="0 0 558 603" fill="none" xmlns="http://www.w3.org/2000/svg">
<path d="M22.4713 45.9078L24.2501 0.647461L64.9068 22.0375L62.5255 29.8243L31.746 13.6308L30.4117 47.5822L22.4713 45.9078Z" fill="#009EE0"/>
<path d="M22.1527 54.0165L2.69755 549.052L10.7221 548.584L30.093 55.6909L22.1527 54.0165Z" fill="#009EE0"/>
<path d="M41.1085 578.9L38.0009 571.457L9.16899 588.103L10.4459 555.612L2.42135 556.08L0.605469 602.285L41.1085 578.9Z" fill="#009EE0"/>
<path d="M507.053 309.887L47.2208 575.371L44.1132 567.928L503.156 302.899L507.053 309.887Z" fill="#009EE0"/>
<path d="M515.808 259.262L557.105 280.989L513.982 305.886L510.085 298.899L540.542 281.315L509.608 265.04L515.808 259.262Z" fill="#009EE0"/>
<path d="M508.308 255.316L72.1131 25.8288L69.7318 33.6156L502.108 261.094L508.308 255.316Z" fill="#009EE0"/>
</svg>
