<svg width="40" height="41" viewBox="0 0 40 41" fill="none" xmlns="http://www.w3.org/2000/svg">
<g clip-path="url(#clip0)">
<path d="M36.4801 20.033C36.6432 24.4141 35.094 28.5951 32.1133 31.8093C25.9655 38.4387 15.5716 38.8335 8.93844 32.694L13.67 32.5187C13.9824 32.5059 14.225 32.2442 14.2141 31.932C14.2003 31.6206 13.9378 31.3772 13.6274 31.3879L7.35743 31.6229L7.59576 37.892C7.60652 38.2045 7.86922 38.4481 8.18246 38.4361C8.33802 38.4313 8.47631 38.3617 8.57398 38.2563C8.6736 38.1489 8.73139 38.005 8.72475 37.8513L8.57364 33.8693C15.6783 40.0566 26.4889 39.5384 32.9393 32.5827C36.1258 29.1465 37.7828 24.6759 37.6073 19.9925C37.5955 19.6812 37.3328 19.4375 37.0216 19.4494C36.7129 19.4559 36.4683 19.7196 36.4801 20.033Z" fill="#E7441C"/>
<path d="M31.966 2.78729C31.6556 2.79798 31.412 3.06068 31.4229 3.37294L31.5748 7.35212C24.4681 1.16688 13.6586 1.68608 7.20923 8.6407C4.02074 12.079 2.36473 16.5485 2.54024 21.2319C2.55101 21.5443 2.81371 21.788 3.12589 21.775C3.43736 21.7653 3.68195 21.5016 3.669 21.1894C3.50491 16.8093 5.05512 12.6272 8.03579 9.41306C14.1826 2.78472 24.5765 2.38788 31.2126 8.5263L26.4791 8.70371C26.1677 8.71545 25.9241 8.97815 25.935 9.29041C25.9488 9.60173 26.2113 9.84518 26.5217 9.83449L32.791 9.59818L32.5537 3.32998C32.542 3.01893 32.2793 2.77532 31.966 2.78729Z" fill="#E7441C"/>
<path d="M36.4801 20.033C36.6432 24.4141 35.094 28.5951 32.1133 31.8093C25.9655 38.4387 15.5716 38.8335 8.93844 32.694L13.67 32.5187C13.9824 32.5059 14.225 32.2442 14.2141 31.932C14.2003 31.6206 13.9378 31.3772 13.6274 31.3879L7.35743 31.6229L7.59576 37.892C7.60652 38.2045 7.86922 38.4481 8.18246 38.4361C8.33802 38.4313 8.47631 38.3617 8.57398 38.2563C8.6736 38.1489 8.73139 38.005 8.72475 37.8513L8.57364 33.8693C15.6783 40.0566 26.4889 39.5384 32.9393 32.5827C36.1258 29.1465 37.7828 24.6759 37.6073 19.9925C37.5955 19.6812 37.3328 19.4375 37.0216 19.4494C36.7129 19.4559 36.4683 19.7196 36.4801 20.033Z" stroke="#E7441C"/>
<path d="M31.966 2.78729C31.6556 2.79798 31.412 3.06068 31.4229 3.37294L31.5748 7.35212C24.4681 1.16688 13.6586 1.68608 7.20923 8.6407C4.02074 12.079 2.36473 16.5485 2.54024 21.2319C2.55101 21.5443 2.81371 21.788 3.12589 21.775C3.43736 21.7653 3.68195 21.5016 3.669 21.1894C3.50491 16.8093 5.05512 12.6272 8.03579 9.41306C14.1826 2.78472 24.5765 2.38788 31.2126 8.5263L26.4791 8.70371C26.1677 8.71545 25.9241 8.97815 25.935 9.29041C25.9488 9.60173 26.2113 9.84518 26.5217 9.83449L32.791 9.59818L32.5537 3.32998C32.542 3.01893 32.2793 2.77532 31.966 2.78729Z" stroke="#E7441C"/>
</g>
<defs>
<clipPath id="clip0">
<rect width="40" height="41" fill="white"/>
</clipPath>
</defs>
</svg>
