<svg width="770" height="710" viewBox="0 0 770 710" fill="none" xmlns="http://www.w3.org/2000/svg">
<circle cx="374" cy="355" r="352" stroke="#EB7700" stroke-width="6"/>
<circle cx="127.5" cy="99.5" r="17" fill="#F2F2F2" stroke="black"/>
<circle cx="620.5" cy="99.5" r="17" fill="#F2F2F2" stroke="black"/>
<circle cx="724.5" cy="337.5" r="17" fill="#F2F2F2" stroke="black"/>
<circle cx="19.5" cy="337.5" r="17" fill="#F2F2F2" stroke="black"/>
<circle cx="620.5" cy="611.5" r="17" fill="#F2F2F2" stroke="black"/>
<circle cx="127.5" cy="611.5" r="17" fill="#F2F2F2" stroke="black"/>
<path d="M761.506 306.46C736.146 322.242 727.506 341.976 724.719 341.976C721.933 341.976 721.006 328.46 709.506 316.96" stroke="#00AEEF" stroke-width="8"/>
<path d="M655.506 579.46C630.146 595.242 621.506 614.976 618.719 614.976C615.933 614.976 615.006 601.46 603.506 589.96" stroke="#00AEEF" stroke-width="8"/>
<path d="M56.5058 306.46C31.1459 322.242 22.5059 341.976 19.7192 341.976C16.9326 341.976 16.0058 328.46 4.50593 316.96" stroke="#00AEEF" stroke-width="8"/>
<path d="M163.506 64.4596C138.146 80.2423 129.506 99.9761 126.719 99.976C123.933 99.976 123.006 86.4596 111.506 74.9596" stroke="#00AEEF" stroke-width="8"/>
<path d="M165.506 577.46C140.146 593.242 131.506 612.976 128.719 612.976C125.933 612.976 125.006 599.46 113.506 587.96" stroke="#00AEEF" stroke-width="8"/>
<path d="M656.506 66.4596C631.146 82.2423 622.506 101.976 619.719 101.976C616.933 101.976 616.006 88.4596 604.506 76.9596" stroke="#00AEEF" stroke-width="8"/>
</svg>
