<svg width="188" height="35" viewBox="0 0 188 35" fill="none" xmlns="http://www.w3.org/2000/svg">
<g clip-path="url(#clip0)">
<path d="M12.1099 3.76016C13.5087 3.72966 14.89 4.075 16.1099 4.76016C17.3021 5.44667 18.2655 6.46926 18.8799 7.70016C19.5672 9.07399 19.9104 10.5943 19.8799 12.1302C19.8549 14.4314 19.2458 16.6886 18.1099 18.6902C17.0961 20.6637 15.604 22.3517 13.7699 23.6002C12.0724 24.6963 10.0905 25.2701 8.0699 25.2502C6.99255 25.297 5.91709 25.1215 4.9106 24.7343C3.90411 24.3472 2.98817 23.7569 2.2199 23.0002C1.47337 22.2157 0.892158 21.2891 0.51079 20.2756C0.129422 19.262 -0.0443151 18.1822 -9.69665e-05 17.1002C0.00699782 14.7224 0.619586 12.3856 1.7799 10.3102C2.77994 8.3242 4.27893 6.63223 6.1299 5.40016C7.92472 4.29135 10.0005 3.72206 12.1099 3.76016ZM10.8299 5.00016C9.48476 4.99548 8.17244 5.41542 7.0799 6.20016C5.80442 7.17726 4.83045 8.49437 4.2699 10.0002C3.50762 11.8858 3.13677 13.9067 3.1799 15.9402C3.0362 18.078 3.64075 20.1993 4.8899 21.9402C5.38816 22.5916 6.03213 23.1173 6.77018 23.4751C7.50822 23.8328 8.31982 24.0126 9.1399 24.0002C10.4446 23.9902 11.7098 23.5509 12.7399 22.7502C14.0144 21.7224 14.98 20.3623 15.5299 18.8202C16.2944 16.8546 16.6681 14.7588 16.6299 12.6502C16.7717 10.6333 16.1942 8.63154 14.9999 7.00016C14.5078 6.36594 13.8748 5.85503 13.151 5.50788C12.4272 5.16074 11.6325 4.98691 10.8299 5.00016Z" fill="#D36917"/>
<path d="M33.71 3.7601C35.1088 3.7296 36.4901 4.07494 37.71 4.7601C38.9021 5.44661 39.8656 6.46919 40.48 7.7001C41.1673 9.07393 41.5105 10.5942 41.48 12.1301C41.4563 14.4328 40.8435 16.6912 39.7 18.6901C38.689 20.6656 37.1964 22.3543 35.36 23.6001C33.6625 24.6963 31.6805 25.27 29.66 25.2501C28.5857 25.2966 27.5133 25.1208 26.5101 24.7336C25.5069 24.3464 24.5945 23.7563 23.83 23.0001C23.0778 22.2191 22.4923 21.2934 22.109 20.2791C21.7256 19.2649 21.5525 18.1833 21.6 17.1001C21.6132 14.7231 22.2254 12.3878 23.38 10.3101C24.3835 8.32345 25.8859 6.63155 27.74 5.4001C29.5301 4.28894 31.6034 3.71938 33.71 3.7601ZM32.43 5.0001C31.0848 4.99542 29.7725 5.41536 28.68 6.2001C27.4078 7.17817 26.4373 8.49527 25.88 10.0001C25.1177 11.8857 24.7468 13.9067 24.79 15.9401C24.6434 18.0768 25.2444 20.1979 26.49 21.9401C26.9888 22.591 27.6328 23.1162 28.3708 23.4739C29.1087 23.8316 29.92 24.0118 30.74 24.0001C32.0449 23.9916 33.3105 23.5522 34.34 22.7501C35.6145 21.7224 36.5801 20.3623 37.13 18.8201C37.8998 16.8561 38.2736 14.7592 38.23 12.6501C38.3574 10.6272 37.762 8.62475 36.55 7.0001C36.063 6.37266 35.438 5.86586 34.7235 5.51901C34.009 5.17216 33.2242 4.9946 32.43 5.0001Z" fill="#D36917"/>
<path d="M55.3201 3.7601C56.7188 3.73057 58.0999 4.07585 59.3201 4.7601C60.5123 5.44661 61.4757 6.46919 62.0901 7.7001C62.7726 9.07566 63.1155 10.5947 63.0901 12.1301C63.0664 14.4328 62.4536 16.6912 61.3101 18.6901C60.3117 20.673 58.8293 22.3721 57.0001 23.6301C55.3057 24.7249 53.3274 25.2986 51.3101 25.2801C50.2256 25.3279 49.1429 25.1499 48.1308 24.7574C47.1186 24.3649 46.199 23.7665 45.4301 23.0001C44.6799 22.2121 44.0965 21.2806 43.715 20.2616C43.3336 19.2426 43.1618 18.1571 43.2101 17.0701C43.231 14.7024 43.8465 12.3779 45.0001 10.3101C46.0012 8.3279 47.4958 6.63693 49.3401 5.4001C51.1349 4.29128 53.2108 3.722 55.3201 3.7601ZM54.0001 5.0001C52.6519 4.99536 51.3364 5.4152 50.2401 6.2001C48.9857 7.18652 48.0302 8.50214 47.4801 10.0001C46.7178 11.8857 46.347 13.9067 46.3901 15.9401C46.2485 18.0762 46.849 20.1957 48.0901 21.9401C48.591 22.5912 49.2369 23.1164 49.9764 23.474C50.716 23.8316 51.5287 24.0118 52.3501 24.0001C53.6518 23.9902 54.9138 23.5508 55.9401 22.7501C57.2138 21.7194 58.1819 20.3605 58.7401 18.8201C59.5047 16.8546 59.8783 14.7587 59.8401 12.6501C59.9675 10.6272 59.3721 8.62475 58.1601 7.0001C57.668 6.3684 57.0364 5.85914 56.3147 5.51218C55.593 5.16521 54.8008 4.98995 54.0001 5.0001Z" fill="#D36917"/>
<path d="M74.27 17.5699C74.831 18.404 75.3452 19.2687 75.81 20.1599C76.2118 20.895 76.5465 21.6648 76.81 22.4599C76.9175 22.75 76.988 23.0523 77.02 23.3599C77.0301 23.4293 77.0239 23.5 77.0018 23.5664C76.9797 23.6329 76.9424 23.6933 76.8929 23.7428C76.8434 23.7923 76.783 23.8296 76.7165 23.8517C76.65 23.8738 76.5793 23.88 76.51 23.8699C76.24 23.8699 76 23.6399 75.79 23.1699C74.6497 21.1447 73.3097 19.2386 71.79 17.4799L75.2 14.3999C76.2 13.3999 76.89 12.7699 77.14 12.5099C77.39 12.2499 77.58 12.0199 77.71 11.8499C78.05 11.3999 78.34 11.1799 78.57 11.1799C78.634 11.1799 78.6973 11.1933 78.7559 11.2191C78.8144 11.2449 78.8669 11.2827 78.91 11.3299C78.9944 11.4158 79.0443 11.5297 79.05 11.6499C79.0488 11.7785 79.018 11.9051 78.96 12.0199C78.4026 12.8376 77.7983 13.6223 77.15 14.3699C76.4834 15.2633 75.5234 16.3299 74.27 17.5699ZM78.8 17.5699C79.3654 18.4032 79.8829 19.2679 80.35 20.1599C80.7641 20.8957 81.1154 21.6651 81.4 22.4599C81.5091 22.7501 81.5829 23.0522 81.62 23.3599C81.6301 23.4293 81.6239 23.5 81.6018 23.5664C81.5797 23.6329 81.5424 23.6933 81.4929 23.7428C81.4434 23.7923 81.383 23.8296 81.3165 23.8517C81.2501 23.8738 81.1793 23.88 81.11 23.8699C80.82 23.8699 80.58 23.6399 80.37 23.1699C79.2318 21.1433 77.8917 19.237 76.37 17.4799L79.78 14.3999C80.83 13.3999 81.47 12.7699 81.72 12.5099C81.9253 12.3007 82.1189 12.0804 82.3 11.8499C82.64 11.3999 82.92 11.1799 83.16 11.1799C83.2227 11.1794 83.2846 11.1926 83.3416 11.2185C83.3986 11.2444 83.4493 11.2824 83.49 11.3299C83.534 11.3709 83.5691 11.4204 83.5932 11.4755C83.6172 11.5305 83.6298 11.5899 83.63 11.6499C83.6288 11.7785 83.598 11.9051 83.54 12.0199C82.9864 12.8403 82.3819 13.6252 81.73 14.3699C80.8122 15.489 79.8341 16.5573 78.8 17.5699Z" fill="#D36917"/>
<path d="M101.43 23.8901L102.27 24.0101C102.804 24.1157 103.346 24.1759 103.89 24.1901C104.438 24.1852 104.984 24.1249 105.52 24.0101L105.29 25.0101C104.835 25.072 104.378 25.1087 103.92 25.1201C103.42 25.1201 102.75 25.1201 101.92 25.0001C101.09 24.8801 100.27 24.8701 99.6297 24.8701C99.0998 24.8717 98.5735 24.9561 98.0697 25.1201C98.4897 24.0134 99.2397 21.3068 100.32 17.0001C101.693 11.5801 102.94 7.81342 104.06 5.70009C102.97 5.70009 102.14 5.70009 101.58 5.70009C99.9397 5.70009 98.2097 5.62009 96.3797 5.45009C95.3502 8.33356 94.492 11.2754 93.8097 14.2601C92.5697 19.1668 91.1963 22.3268 89.6897 23.7401C88.5419 24.9863 86.96 25.7451 85.2697 25.8601C84.4964 25.8667 83.7335 25.6811 83.0497 25.3201C82.7691 25.2197 82.5221 25.0429 82.3366 24.8097C82.1511 24.5765 82.0344 24.2961 81.9997 24.0001C81.9946 23.8587 82.0197 23.7178 82.0731 23.5868C82.1265 23.4558 82.2072 23.3376 82.3097 23.2401C82.4918 23.0541 82.7394 22.9464 82.9997 22.9401C83.2996 22.9835 83.5851 23.0966 83.8334 23.2702C84.0818 23.4439 84.286 23.6733 84.4297 23.9401C84.8797 24.5501 85.3197 24.8501 85.7397 24.8501C86.7397 24.8501 87.6797 24.0101 88.4897 22.3301C89.8692 18.8716 90.9889 15.3151 91.8397 11.6901L93.4997 5.50009C90.8797 5.50009 88.9497 6.05675 87.7097 7.17009C87.1332 7.63028 86.6657 8.21233 86.3406 8.87449C86.0156 9.53666 85.8411 10.2625 85.8297 11.0001C85.8088 11.3421 85.8669 11.6842 85.9997 12.0001C86.2174 12.3852 86.4828 12.7414 86.7897 13.0601C87.1305 13.3684 87.3444 13.7927 87.3897 14.2501C87.3917 14.4031 87.3605 14.5547 87.2984 14.6945C87.2362 14.8343 87.1446 14.9591 87.0297 15.0601C86.8043 15.2779 86.5031 15.3998 86.1897 15.4001C85.886 15.3904 85.5923 15.2899 85.3463 15.1117C85.1004 14.9334 84.9134 14.6856 84.8097 14.4001C84.4802 13.6717 84.3163 12.8794 84.3297 12.0801C84.3411 10.9473 84.6057 9.83141 85.104 8.81404C85.6023 7.79668 86.3217 6.90358 87.2097 6.20009C89.1987 4.48225 91.763 3.57867 94.3897 3.67009C95.3897 3.67009 96.7097 3.76009 98.4697 3.92009C101.99 4.26675 105.49 4.44342 108.97 4.45009C110.29 4.45009 110.97 4.00009 110.97 3.09009C110.982 2.92697 110.982 2.7632 110.97 2.60009C110.945 2.44776 110.928 2.2942 110.92 2.14009C110.916 1.99582 110.941 1.85222 110.994 1.71809C111.047 1.58397 111.128 1.46215 111.23 1.36009C111.434 1.16257 111.706 1.05149 111.99 1.05009C112.155 1.04638 112.318 1.07946 112.469 1.14692C112.619 1.21438 112.753 1.31453 112.86 1.44009C113.092 1.72026 113.213 2.07628 113.2 2.44009C113.179 2.88548 113.052 3.31948 112.83 3.70574C112.607 4.09199 112.295 4.41925 111.92 4.66009C110.664 5.44003 109.195 5.8072 107.72 5.71009C107.12 5.71009 106.72 5.71009 106.65 5.71009C104.401 11.6122 102.654 17.6938 101.43 23.8901Z" fill="#D36917"/>
<path d="M109.07 14.3801L108.39 13.6801C109.274 12.5561 110.351 11.598 111.57 10.8501C112.389 10.3136 113.333 9.99675 114.31 9.93014C114.559 9.91468 114.805 9.99317 115 10.1501C115.088 10.2311 115.156 10.3304 115.201 10.441C115.246 10.5517 115.266 10.6709 115.26 10.7901C115.257 11.1429 115.22 11.4945 115.15 11.8401C115.07 12.2001 114.83 13.0401 114.43 14.3801C115.563 13.1739 116.794 12.0634 118.11 11.0601C118.985 10.4196 120.027 10.0447 121.11 9.98014C121.412 9.98604 121.708 10.0668 121.972 10.2151C122.235 10.3634 122.458 10.5747 122.62 10.8301C123.086 11.5953 123.302 12.4864 123.24 13.3801C123.215 16.2831 122.289 19.1067 120.59 21.4601C118.82 24.0201 116.86 25.2901 114.72 25.2901C113.832 25.2818 112.962 25.0478 112.19 24.6101L110.69 30.4101C110.604 30.6891 110.557 30.9785 110.55 31.2701C110.537 31.4554 110.576 31.6405 110.663 31.8047C110.749 31.969 110.88 32.1059 111.04 32.2001C112.049 32.6271 113.125 32.871 114.22 32.9201L113.99 33.8001C112.11 33.6501 110.62 33.5701 109.54 33.5701C108.46 33.5701 106.99 33.6501 105.22 33.8001L105.45 32.9201C106.159 32.8988 106.842 32.642 107.39 32.1901C107.906 31.5814 108.251 30.8463 108.39 30.0601L111.57 16.7201C111.938 15.3532 112.235 13.968 112.46 12.5701C112.46 12.2601 112.32 12.1101 112.03 12.1101C111.51 12.1101 110.53 12.8701 109.07 14.3801ZM112.63 22.6801C112.989 23.0885 113.426 23.4209 113.915 23.6579C114.405 23.8949 114.937 24.0316 115.48 24.0601C116.88 24.0601 118.11 22.9668 119.17 20.7801C120.181 18.7889 120.725 16.5932 120.76 14.3601C120.798 13.8158 120.638 13.2759 120.31 12.8401C120.162 12.6685 119.977 12.5325 119.769 12.4425C119.562 12.3524 119.336 12.3106 119.11 12.3201C118.406 12.3812 117.741 12.6729 117.22 13.1501C116.261 13.8641 115.421 14.7246 114.73 15.7001C114.174 16.6835 113.782 17.7508 113.57 18.8601L112.63 22.6801Z" fill="#D36917"/>
<path d="M133.37 9.99996C133.92 9.99406 134.464 10.1145 134.959 10.3521C135.455 10.5896 135.89 10.9378 136.23 11.37C137.049 12.4686 137.453 13.8219 137.37 15.19C137.373 17.7855 136.394 20.2862 134.63 22.19C132.803 24.2633 130.87 25.2966 128.83 25.29C128.272 25.3057 127.716 25.2044 127.2 24.9926C126.683 24.7807 126.216 24.463 125.83 24.06C125.023 23.1329 124.61 21.9271 124.68 20.7C124.671 18.2646 125.408 15.8849 126.79 13.88C128.543 11.2933 130.737 9.99996 133.37 9.99996ZM131.87 11.32C130.87 11.32 129.87 12.03 128.98 13.45C127.956 15.2411 127.47 17.2896 127.58 19.35C127.514 20.6077 127.813 21.8578 128.44 22.95C128.607 23.2519 128.852 23.5038 129.149 23.6796C129.446 23.8554 129.785 23.9487 130.13 23.95C130.697 23.8995 131.242 23.7049 131.713 23.3846C132.184 23.0643 132.565 22.629 132.82 22.12C133.904 20.3515 134.443 18.3029 134.37 16.23C134.465 14.9362 134.22 13.64 133.66 12.47C133.49 12.1386 133.234 11.859 132.919 11.6602C132.605 11.4615 132.242 11.3509 131.87 11.34V11.32Z" fill="#D36917"/>
<path d="M149.05 12.41C149.963 8.41005 150.853 5.74338 151.72 4.41005C152.576 3.08173 153.747 1.98585 155.13 1.22005C156.311 0.47766 157.666 0.0570792 159.06 4.94593e-05C159.641 -0.0449427 160.219 0.110337 160.7 0.440049C160.859 0.55441 160.99 0.704234 161.082 0.877747C161.174 1.05126 161.225 1.24374 161.23 1.44005C161.23 1.76448 161.105 2.07646 160.88 2.31005C160.746 2.43508 160.589 2.53152 160.417 2.59343C160.245 2.65534 160.062 2.68142 159.88 2.67005C159.098 2.61085 158.322 2.49048 157.56 2.31005C157.103 2.20448 156.638 2.14419 156.17 2.13005C155.667 2.1541 155.184 2.32922 154.782 2.63252C154.381 2.93582 154.08 3.35319 153.92 3.83005C153.153 5.58679 152.541 7.40701 152.09 9.27005L151.09 12.87C152.54 10.95 154.09 9.99005 155.85 9.99005C156.271 9.95883 156.694 10.0267 157.085 10.1882C157.476 10.3496 157.823 10.6003 158.1 10.92C158.608 11.5916 158.87 12.4181 158.84 13.26C158.77 14.959 158.387 16.6304 157.71 18.1901C156.975 20.0403 155.9 21.7362 154.54 23.1901C153.19 24.6301 151.91 25.3601 150.69 25.3601C149.69 25.3601 148.95 24.66 148.53 23.2701C148.029 26.193 146.687 28.9068 144.67 31.08C143.876 31.9706 142.909 32.6892 141.827 33.1914C140.745 33.6936 139.572 33.9688 138.38 34C137.807 34.0402 137.237 33.889 136.76 33.57C136.586 33.4531 136.444 33.2952 136.347 33.1103C136.249 32.9254 136.199 32.7192 136.2 32.51C136.2 31.71 136.71 31.31 137.72 31.31C138.084 31.3191 138.448 31.3492 138.81 31.4C139.592 31.5057 140.38 31.5592 141.17 31.56C141.709 31.6199 142.254 31.5368 142.751 31.3192C143.248 31.1015 143.678 30.7569 144 30.32C144.506 29.4867 145.3 26.9034 146.38 22.57C144.906 24.4234 143.323 25.35 141.63 25.35C139.63 25.35 138.63 24.23 138.63 21.99C138.708 20.3535 139.081 18.7445 139.73 17.24C140.461 15.3902 141.533 13.6941 142.89 12.24C144.296 10.7467 145.616 10 146.85 10C147.326 9.98095 147.792 10.1376 148.16 10.44C148.647 10.9928 148.957 11.6791 149.05 12.41ZM148.34 14.41C148.196 13.6733 147.943 12.9621 147.59 12.3C147.45 12.0629 147.247 11.8697 147.003 11.7424C146.759 11.6151 146.484 11.5589 146.21 11.58C144.97 11.58 143.86 12.67 142.87 14.83C141.926 16.7844 141.418 18.9202 141.38 21.09C141.38 22.6301 141.97 23.4 143.14 23.4C143.585 23.3565 144.018 23.2254 144.412 23.0144C144.807 22.8033 145.156 22.5164 145.44 22.17C146.51 20.833 147.226 19.2473 147.52 17.56L148.34 14.41ZM149.25 20.83C149.58 22.83 150.25 23.75 151.39 23.75C152.53 23.75 153.71 22.67 154.7 20.5201C155.646 18.5528 156.151 16.4027 156.18 14.22C156.18 12.7001 155.59 11.94 154.4 11.94C153.731 11.9877 153.1 12.263 152.61 12.72C151.974 13.2232 151.458 13.8621 151.1 14.59C150.631 15.6052 150.263 16.6635 150 17.75L149.25 20.83Z" fill="#D36917"/>
<path d="M172.12 10.4802H174.62L173 16.6202C172.385 18.6173 171.897 20.6514 171.54 22.7102C171.527 22.8943 171.584 23.0765 171.7 23.2202C171.741 23.2747 171.794 23.3193 171.854 23.3505C171.915 23.3816 171.982 23.3986 172.05 23.4002C172.304 23.3798 172.548 23.286 172.75 23.1302C173.529 22.516 174.264 21.8477 174.95 21.1302L175.53 21.7802C173.17 24.2335 171.437 25.4602 170.33 25.4602C170.142 25.4671 169.954 25.4321 169.782 25.3577C169.609 25.2834 169.454 25.1715 169.33 25.0302C169.049 24.6879 168.906 24.2526 168.93 23.8102C168.964 22.9818 169.091 22.1599 169.31 21.3602C168.203 22.6134 166.9 23.6774 165.45 24.5102C164.66 25.0361 163.747 25.3464 162.8 25.4102C162.613 25.4225 162.426 25.3919 162.252 25.3209C162.079 25.2498 161.924 25.1401 161.8 25.0002C161.541 24.6258 161.418 24.1742 161.45 23.7202C161.452 23.2227 161.506 22.7267 161.61 22.2402C161.76 21.5002 162.15 20.0102 162.77 17.7802C163.319 16.1098 163.73 14.3975 164 12.6602C164 12.3302 163.88 12.1602 163.64 12.1602C163.33 12.1967 163.035 12.3102 162.78 12.4902C162.116 12.9595 161.494 13.4847 160.92 14.0602L160.15 13.4502C161.245 12.4019 162.448 11.4733 163.74 10.6802C164.347 10.3085 165.031 10.0825 165.74 10.0202C165.87 10.0151 165.999 10.0405 166.117 10.0943C166.235 10.1481 166.339 10.2289 166.42 10.3302C166.634 10.6172 166.73 10.9747 166.69 11.3302C166.449 13.3644 166.024 15.3726 165.42 17.3302C164.944 18.9315 164.57 20.5614 164.3 22.2102C164.29 22.4423 164.373 22.6688 164.53 22.8402C164.661 22.95 164.829 23.007 165 23.0002C165.66 23.0002 166.59 22.4602 167.79 21.3702C168.929 20.3987 169.754 19.1109 170.16 17.6702L172.12 10.4802Z" fill="#D36917"/>
<path d="M180.7 17.46C180.141 16.6333 179.63 15.7752 179.17 14.89C178.764 14.1498 178.429 13.3731 178.17 12.57C178.061 12.2873 177.99 11.9913 177.96 11.69C177.95 11.6207 177.956 11.55 177.978 11.4835C178 11.417 178.037 11.3566 178.087 11.3071C178.136 11.2576 178.197 11.2203 178.263 11.1982C178.33 11.1762 178.4 11.1699 178.47 11.18C178.74 11.18 178.98 11.41 179.19 11.88C180.327 13.9009 181.667 15.8008 183.19 17.55L179.78 20.63C178.78 21.63 178.1 22.27 177.85 22.53C177.6 22.79 177.41 23.01 177.27 23.18C176.94 23.64 176.65 23.87 176.41 23.87C176.346 23.87 176.282 23.8567 176.224 23.8308C176.165 23.805 176.113 23.7672 176.07 23.72C175.981 23.6291 175.93 23.5072 175.93 23.38C175.937 23.2498 175.975 23.1232 176.04 23.01C176.581 22.1895 177.18 21.4076 177.83 20.67C178.496 19.79 179.453 18.72 180.7 17.46ZM185.24 17.46C184.673 16.6381 184.162 15.7796 183.71 14.89C183.296 14.1454 182.942 13.3697 182.65 12.57C182.541 12.2873 182.47 11.9913 182.44 11.69C182.43 11.6207 182.436 11.55 182.458 11.4835C182.48 11.417 182.517 11.3566 182.567 11.3071C182.616 11.2576 182.677 11.2203 182.743 11.1982C182.81 11.1762 182.88 11.1699 182.95 11.18C183.22 11.18 183.46 11.41 183.67 11.88C184.812 13.8975 186.152 15.7968 187.67 17.55L184.28 20.63C183.22 21.63 182.57 22.27 182.28 22.53C182.078 22.7361 181.888 22.9531 181.71 23.18C181.37 23.64 181.08 23.87 180.83 23.87C180.767 23.8705 180.705 23.8573 180.648 23.8314C180.591 23.8055 180.54 23.7675 180.5 23.72C180.411 23.6291 180.36 23.5072 180.36 23.38C180.363 23.2505 180.398 23.1237 180.46 23.01C181.007 22.1905 181.608 21.4088 182.26 20.67C183.006 19.79 184 18.72 185.24 17.46Z" fill="#D36917"/>
</g>
<defs>
<clipPath id="clip0">
<rect width="187.63" height="34.01" fill="white"/>
</clipPath>
</defs>
</svg>
