<?xml version="1.0" encoding="UTF-8" standalone="no"?>
<svg
   xmlns:dc="http://purl.org/dc/elements/1.1/"
   xmlns:cc="http://creativecommons.org/ns#"
   xmlns:rdf="http://www.w3.org/1999/02/22-rdf-syntax-ns#"
   xmlns:svg="http://www.w3.org/2000/svg"
   xmlns="http://www.w3.org/2000/svg"
   xmlns:sodipodi="http://sodipodi.sourceforge.net/DTD/sodipodi-0.dtd"
   xmlns:inkscape="http://www.inkscape.org/namespaces/inkscape"
   sodipodi:docname="logo_BSZ_svg.svg"
   inkscape:version="1.0 (4035a4fb49, 2020-05-01)"
   id="svg912"
   version="1.1"
   viewBox="0 0 63.239532 63.232197"
   height="63.232197mm"
   width="63.239532mm">
  <defs
     id="defs906" />
  <sodipodi:namedview
     inkscape:window-maximized="0"
     inkscape:window-y="0"
     inkscape:window-x="234"
     inkscape:window-height="1040"
     inkscape:window-width="1648"
     showgrid="false"
     inkscape:document-rotation="0"
     inkscape:current-layer="Layer1092"
     inkscape:document-units="mm"
     inkscape:cy="-22.65231"
     inkscape:cx="826.49829"
     inkscape:zoom="0.49497475"
     inkscape:pageshadow="2"
     inkscape:pageopacity="0.0"
     borderopacity="1.0"
     bordercolor="#666666"
     pagecolor="#ffffff"
     id="base" />
  <metadata
     id="metadata909">
    <rdf:RDF>
      <cc:Work
         rdf:about="">
        <dc:format>image/svg+xml</dc:format>
        <dc:type
           rdf:resource="http://purl.org/dc/dcmitype/StillImage" />
        <dc:title></dc:title>
      </cc:Work>
    </rdf:RDF>
  </metadata>
  <g
     transform="translate(-19.029043,-83.288666)"
     id="layer1"
     inkscape:groupmode="layer"
     inkscape:label="Слой 1">
    <g
       transform="matrix(0.6322695,0,0,0.6322695,-144.17647,-170.10693)"
       id="Layer1092">
      <path
         id="path772"
         style="fill:#0093dd;fill-rule:evenodd;fill-opacity:1"
         d="m 258.1265,451.2957 c 0.1553,0.0574 0.0358,-0.013 0.2285,0.134 l 1.3982,1.353 c 0.5577,0.5455 1.0419,1.0128 1.6007,1.5596 l 15.6771,15.5144 c 1.0801,1.0448 2.075,2.021 3.1544,3.0644 l 10.2422,10.1453 c 0.2715,0.2772 0.4961,0.4833 0.7764,0.7516 l 7.861,7.7367 c 1.0765,1.0456 2.0798,2.0153 3.155,3.0634 l 6.2733,6.1617 17.1662,-17.3899 c 0.5086,-0.5248 1.0435,-0.9819 1.5537,-1.5042 l 4.623,-4.7553 c 0.4905,-0.5018 0.993,-1.0978 1.5177,-1.5411 1.1494,-0.971 2.1341,-2.1266 3.1518,-3.1671 l 4.6692,-4.7092 c 0.5448,-0.5576 1.0132,-1.0433 1.5565,-1.6038 1.045,-1.0782 2.0157,-2.0795 3.0657,-3.1528 l 9.3387,-9.4172 c 0.501,-0.5178 2.8042,-2.7598 3.0106,-3.1719 l -6.3343,-6.2592 c -1.0893,-1.0675 -2.1146,-2.0515 -3.2061,-3.1144 -1.0483,-1.0208 -2.0499,-2.091 -3.1054,-3.112 -1.0954,-1.0595 -2.106,-2.0572 -3.2055,-3.1156 l -7.8614,-7.7349 c -0.4921,-0.4775 -1.1236,-1.0193 -1.5342,-1.5236 -0.6006,-0.738 -5.4823,-5.3707 -6.3323,-6.2068 -0.2896,-0.2849 -0.482,-0.5732 -0.774,-0.8561 l -18.0708,-17.6732 c -1.3501,1.3089 -2.7295,2.8965 -3.9485,4.0558 -0.299,0.2842 -0.524,0.4365 -0.8023,0.7262 l -4.6217,4.7572 c -1.0239,1.0471 -2.086,2.0517 -3.1115,3.1066 l -4.6735,4.8066 c -0.5093,0.5197 -1.0491,0.9789 -1.5546,1.5032 -1.2761,1.3237 -5.0424,5.3086 -6.158,6.2785 -1.5197,1.3211 -4.9492,5.1191 -7.0504,7.1186 -0.2773,0.2639 -0.4858,0.4978 -0.7538,0.7754 l -7.7352,7.8617 c -1.0488,1.0739 -2.0191,2.0788 -3.0638,3.1544 -0.8904,0.9167 -5.9342,5.7367 -6.1226,6.38 z m 1.5376,-0.1585 c 0.2965,0.4531 1.0385,1.0638 1.4708,1.4864 l 15.2583,15.0176 c 0.5226,0.5058 0.9755,1.0479 1.5032,1.554 1.3507,1.2957 5.1192,4.8535 6.1506,5.9807 2.1204,2.3172 4.6106,4.4888 6.831,6.7269 l 6.8795,6.7802 c 0.5288,0.5119 0.9768,1.0471 1.5016,1.5556 1.0606,1.0276 2.0436,1.9857 3.1017,3.0154 l 4.5536,4.5183 c 0.4163,0.403 1.158,1.2142 1.5789,1.4811 l 17.2576,-17.505 c 0.2994,-0.2849 0.5227,-0.4361 0.8012,-0.727 1.9778,-2.0659 3.9472,-4.1518 5.9781,-6.1541 l 6.7285,-6.829 c 0.2636,-0.27 0.5383,-0.4537 0.8039,-0.7235 l 15.0648,-15.3127 c 0.4064,-0.4183 1.212,-1.1502 1.4821,-1.5785 l -16.7305,-16.503 c -0.5204,-0.5047 -0.9748,-1.0521 -1.5026,-1.5545 -1.049,-0.9982 -2.0109,-1.9542 -3.05,-2.9648 l -17.5368,-17.3261 c -2.2553,-2.2984 -4.5086,-4.3245 -6.8795,-6.7801 l -3.1303,-2.9883 c -0.3785,0.2488 -2.4994,2.5117 -2.9954,3.0217 l -3.0107,3.0034 c -1.0148,1.0391 -1.9523,2.0082 -2.9647,3.0498 l -6.0255,6.1045 c -0.5267,0.543 -0.98,1.0103 -1.5077,1.5514 l -4.5185,4.5534 c -0.9802,1.0101 -1.9986,2.169 -3.0172,3.0994 -0.3109,0.2838 -0.4753,0.3918 -0.7486,0.677 l -20.3393,20.6401 c -0.5327,0.5086 -0.9898,1.0198 -1.5076,1.5505 -0.401,0.411 -1.2139,1.1596 -1.4805,1.5792 z" />
      <path
         id="path774"
         style="fill:#ff0000;fill-rule:evenodd"
         d="m 286.3621,438.7008 10e-5,7.5207 8.5388,0.028 c 2.4251,-6e-4 2.069,-1.6002 2.069,-3.6751 0,-1.2833 -0.7076,-1.8367 -1.967,-1.8367 l -5.8073,-0.001 0.011,-1.0966 c 3.6671,-0.0364 10.1368,-0.1033 13.6098,0.009 l -5.3528,8.8173 c -2.1571,-0.0205 -4.2975,-0.0121 -6.4362,-0.0121 -5.4938,0 -4.665,-0.9704 -4.6653,9.207 0,2.1843 2.0104,1.8146 3.8498,1.8146 l 17.3341,4e-4 0.007,-2.2029 -18.3594,-0.003 0.0172,-6.6136 6.8701,0.008 c -0.407,1.0085 -2.4417,3.7051 -2.57,4.3985 l 2.5879,0.003 c 0.2116,-0.0837 2.2606,-3.7819 2.7702,-4.4077 l 3.9552,1e-4 0.0426,4.3994 2.2929,0.007 0.0664,-1.0722 c 2.0728,-0.216 4.7043,0.7105 4.7048,-1.8367 l 5e-4,-1.8349 c 8e-4,-2.5658 -2.5643,-1.7362 -4.6874,-1.8834 l -0.0284,-11.0029 -18.8536,0.0235 z m 2.8295,5.3421 4.9484,0.002 -2e-4,-1.0996 -4.948,-0.002 z m 16.0226,7.6912 1.8891,0.0199 -0.005,-1.0785 -1.857,-0.0169 z m -5.0034,-3.3054 0.5007,0.0279 2.1157,-0.002 0.0327,-4.2705 z" />
      <path
         id="path776"
         style="fill:#0093dd;fill-rule:evenodd;fill-opacity:1"
         d="m 278.904,434.9398 -0.0188,31.2267 c 1.6923,-0.277 3.6482,-0.8384 5.3728,-1.1982 9.7605,-2.0361 19.2291,-2.1611 28.5482,1.6991 1.586,0.6569 3.0733,1.3352 4.6009,2.0229 1.3311,0.5993 3.332,1.4758 4.8375,1.7943 l 0.0215,-6.6319 c -2.9992,-0.6654 -7.4866,-3.1986 -9.0517,-3.6064 l -0.002,5.31 c -1.0974,-0.2913 -2.3231,-0.8381 -3.5092,-1.1879 -8.845,-2.6088 -16.6383,-2.2554 -25.5673,-0.4565 -1.3119,0.2643 -2.6628,0.7087 -3.9153,0.9139 l -8e-4,-29.015 c 3.2017,-0.9855 4.2648,-1.5141 7.9232,-2.1367 6.0968,-1.0376 12.1149,-0.8156 18.0034,1.0193 2.3709,0.7388 5.1979,1.9277 7.057,3.1373 l 0.0123,5.5201 c 2.2478,0.6662 6.4156,3.1488 9.0461,3.6117 l 0.003,-6.6335 c -1.7369,-0.3802 -3.4604,-1.2191 -4.9991,-1.8709 -1.4877,-0.6303 -3.351,-1.3878 -4.7111,-2.1212 -3.0363,-1.6374 -6.2463,-2.8895 -10.0168,-3.6317 -5.9784,-1.1768 -12.3894,-0.7665 -18.3233,0.7169 -1.8012,0.4503 -4.0049,1.2003 -5.3101,1.5177 z" />
      <path
         id="path778"
         style="fill:#0093dd;fill-rule:evenodd;fill-opacity:1"
         d="m 313.2148,458.8844 c 0.3344,0.4619 7.9646,3.5803 9.0389,3.763 l 0.0116,-6.6327 c -2.8805,-0.5787 -7.2061,-3.092 -9.0513,-3.606 z" />
      <path
         id="path780"
         style="fill:#0093dd;fill-rule:evenodd;fill-opacity:1"
         d="m 313.2148,451.1857 c 2.3816,0.7284 6.4777,3.1607 9.0353,3.6085 l 0.0156,-6.6375 c -1.4186,-0.2737 -3.2826,-1.1058 -4.5699,-1.6702 -0.932,-0.4087 -3.749,-1.7366 -4.4806,-1.9322 z" />
      <path
         id="path782"
         style="fill:#0093dd;fill-rule:evenodd;fill-opacity:1"
         d="m 323.2793,465.8565 c 1.7791,0.4943 5.9407,0.8581 7.8515,0.7167 l 0.0354,-6.5396 c -1.3107,-0.1308 -2.7477,-0.0643 -4.1192,-0.1897 -1.0512,-0.0962 -2.8905,-0.522 -3.7631,-0.508 z" />
      <path
         id="path784"
         style="fill:#0093dd;fill-rule:evenodd;fill-opacity:1"
         d="m 323.2775,458.2267 c 1.6693,0.4919 6.0477,0.8712 7.8684,0.7187 l 0.0181,-6.5416 c -1.3741,-0.1052 -2.7231,-0.0545 -4.116,-0.1843 -1.1044,-0.1029 -2.8383,-0.5117 -3.7506,-0.5162 z" />
      <path
         id="path786"
         style="fill:#0093dd;fill-rule:evenodd;fill-opacity:1"
         d="m 323.2777,450.5937 c 1.4637,0.4795 6.254,0.8918 7.8849,0.7215 l -0.0182,-6.5446 c -1.4208,-0.0612 -2.7159,-0.0463 -4.1311,-0.1776 -0.8461,-0.0785 -3.1375,-0.5395 -3.7362,-0.4792 z" />
      <path
         id="path788"
         style="fill:#0093dd;fill-rule:evenodd;fill-opacity:1"
         d="m 332.4989,456.4427 0.001,5.5609 c 3.5839,0.0965 5.3025,-0.0836 8.5593,-0.7973 l 0.0233,-5.5556 c -3.2394,0.6702 -5.121,0.8294 -8.5837,0.792 z" />
      <path
         id="path790"
         style="fill:#0093dd;fill-rule:evenodd;fill-opacity:1"
         d="m 332.5144,448.8073 -0.0165,5.5585 c 4.2947,0.2141 4.7729,-0.0826 8.5737,-0.7933 l 0.01,-5.556 c -2.8895,0.7305 -5.4639,0.8625 -8.5668,0.7908 z" />
    </g>
  </g>
</svg>
