<svg width="146" height="64" viewBox="0 0 146 64" fill="none" xmlns="http://www.w3.org/2000/svg">
<path d="M62.042 34.8707C63.3581 33.5243 63.6063 31.2299 63.0111 29.542C59.8456 31.0288 54.6983 32.5831 46.5001 34.5764C42.2297 35.6147 17.6471 40.4995 14.1748 46.1131C20.2075 52.2831 22.437 54.5825 29.3056 61.6071C31.1179 63.4629 34.0863 63.4629 35.8994 61.6071L62.042 34.8707Z" fill="url(#paint0_linear)"/>
<path d="M50.7512 16.5842L35.8956 1.39093C34.9885 0.463423 33.7937 0 32.5987 0C31.4028 0 30.2078 0.463423 29.3018 1.39093L3.15973 28.1273C1.34585 29.9823 1.34585 33.0176 3.15973 34.8718L6.10365 37.8833C9.63975 35.9511 14.095 33.3439 20.9059 30.6044C25.1484 28.8978 44.1479 22.8733 50.7512 16.5842Z" fill="url(#paint1_linear)"/>
<path d="M44.9887 8.9605C44.9887 8.9605 49.5451 9.15266 51.614 10.7714C52.4488 11.4244 52.9189 12.3259 52.441 13.5082C49.5413 20.6836 25.6903 28.3455 20.8338 30.2989C5.47406 36.4772 1.45163 40.0418 0.256988 42.5578C-2.17396 47.6777 13.4419 47.2529 13.4419 47.2529C13.4419 47.2529 8.88549 47.0607 6.81647 45.442C5.98186 44.7889 5.55208 43.9037 5.98962 42.7051C6.04684 42.5485 6.11897 42.3864 6.20685 42.2188C9.2864 36.3475 19.6082 32.0379 25.5073 29.9395C31.8003 27.7 37.1618 25.6764 41.7069 23.8482C57.0673 17.6698 58.9971 15.7889 60.1917 13.2728C62.6224 8.15298 44.9887 8.9605 44.9887 8.9605V8.9605Z" fill="url(#paint2_linear)"/>
<path d="M17.9187 49.9503C15.8424 49.5016 13.1366 48.6967 14.3968 46.512C17.6604 40.8581 42.2028 36.1192 46.4964 35.0756C60.0748 31.7738 65.5915 29.2047 66.8848 27.2438C69.5163 23.2536 54.6589 21.7817 54.6589 21.7817C54.6589 21.7817 58.4514 22.4976 59.9949 24.1047C60.6176 24.7535 60.8743 25.5465 60.3687 26.4972C60.3024 26.6212 60.2228 26.7482 60.1301 26.8778C56.8681 31.418 47.7247 33.7687 42.5416 34.807C37.0122 35.9151 32.2882 36.9568 28.27 37.9336C14.6907 41.235 9.17365 43.8041 7.8807 45.765C5.87968 48.7996 14.5394 50.1474 18.6391 50.6881L17.9187 49.9503Z" fill="url(#paint3_linear)"/>
<g clip-path="url(#clip0)">
<path fill-rule="evenodd" clip-rule="evenodd" d="M82.1973 31.9449C82.2955 31.9812 82.2199 31.9367 82.3417 32.0296L83.2258 32.8851C83.5784 33.23 83.8846 33.5254 84.2379 33.8712L94.15 43.6804C94.8329 44.341 95.462 44.9583 96.1444 45.618L102.62 52.0325C102.792 52.2078 102.934 52.3381 103.111 52.5078L108.081 57.3994C108.762 58.0605 109.396 58.6737 110.076 59.3363L114.043 63.2322L124.896 52.2371C125.218 51.9053 125.556 51.6163 125.879 51.286L128.802 48.2794C129.112 47.9621 129.43 47.5853 129.761 47.305C130.488 46.6911 131.111 45.9604 131.754 45.3025L134.706 42.3251C135.051 41.9725 135.347 41.6654 135.69 41.311C136.351 40.6293 136.965 39.9962 137.629 39.3176L143.533 33.3634C143.85 33.036 145.306 31.6185 145.437 31.3579L141.432 27.4004C140.743 26.7254 140.095 26.1033 139.405 25.4313C138.742 24.7858 138.109 24.1092 137.441 23.4636C136.749 22.7938 136.11 22.1629 135.415 21.4937L130.444 16.6032C130.133 16.3013 129.734 15.9587 129.474 15.6399C129.094 15.1733 126.008 12.2441 125.47 11.7155C125.287 11.5354 125.165 11.3531 124.981 11.1742L113.555 0C112.702 0.827578 111.829 1.83136 111.059 2.56435C110.87 2.74404 110.727 2.84033 110.551 3.0235L107.629 6.03134C106.982 6.69338 106.31 7.32856 105.662 7.99554L102.707 11.0346C102.385 11.3632 102.044 11.6535 101.724 11.985C100.917 12.822 98.536 15.3415 97.8306 15.9548C96.8698 16.79 94.7014 19.1914 93.3729 20.4556C93.1976 20.6225 93.0657 20.7704 92.8963 20.9459L88.0055 25.9166C87.3424 26.5956 86.7289 27.231 86.0684 27.911C85.5054 28.4906 82.3164 31.5382 82.1973 31.9449V31.9449ZM83.1694 31.8447C83.3569 32.1312 83.8261 32.5173 84.0994 32.7845L93.7467 42.2797C94.0772 42.5995 94.3635 42.9422 94.6972 43.2622C95.5512 44.0814 97.9339 46.3309 98.586 47.0436C99.9267 48.5087 101.501 49.8818 102.905 51.2968L107.255 55.5838C107.589 55.9074 107.872 56.2458 108.204 56.5673C108.875 57.217 109.496 57.8228 110.165 58.4739L113.044 61.3306C113.308 61.5854 113.777 62.0983 114.043 62.2671L124.954 51.1992C125.143 51.0191 125.285 50.9235 125.461 50.7396C126.711 49.4333 127.956 48.1145 129.24 46.8485L133.495 42.5307C133.661 42.36 133.835 42.2439 134.003 42.0733L143.528 32.3915C143.785 32.1271 144.294 31.6643 144.465 31.3935L133.887 20.9592C133.558 20.64 133.271 20.2939 132.937 19.9763C132.274 19.3452 131.665 18.7407 131.008 18.1017L119.92 7.14697C118.494 5.69376 117.07 4.41273 115.571 2.86013L113.592 0.97071C113.352 1.12802 112.011 2.55878 111.698 2.88124L109.794 4.78021C109.152 5.4372 108.56 6.04993 107.92 6.70851L104.11 10.5682C103.777 10.9115 103.49 11.207 103.157 11.5491L100.3 14.4281C99.6799 15.0667 99.036 15.7995 98.392 16.3877C98.1954 16.5672 98.0914 16.6354 97.9186 16.8158L85.0587 29.8659C84.7219 30.1874 84.4329 30.5107 84.1055 30.8462C83.852 31.1061 83.338 31.5794 83.1694 31.8447V31.8447Z" fill="#0093DD"/>
<path fill-rule="evenodd" clip-rule="evenodd" d="M100.05 23.9815L100.05 28.7366L105.449 28.7543C106.982 28.7539 106.757 27.7425 106.757 26.4306C106.757 25.6192 106.31 25.2694 105.513 25.2694L101.842 25.2687L101.849 24.5754C104.167 24.5524 108.258 24.5101 110.454 24.5811L107.069 30.156C105.705 30.143 104.352 30.1483 103 30.1483C99.5262 30.1483 100.05 29.5348 100.05 35.9696C100.05 37.3507 101.321 37.1169 102.484 37.1169L113.444 37.1172L113.448 35.7244L101.84 35.7225L101.851 31.5409L106.195 31.5459C105.938 32.1836 104.651 33.8886 104.57 34.327L106.206 34.3289C106.34 34.276 107.636 31.9377 107.958 31.542L110.459 31.5421L110.485 34.3237L111.935 34.3281L111.977 33.6502C113.288 33.5136 114.952 34.0994 114.952 32.4889L114.952 31.3288C114.953 29.7065 113.331 30.231 111.988 30.1379L111.971 23.1812L100.05 23.196V23.9815ZM101.839 27.3591L104.968 27.3604L104.968 26.6652L101.839 26.6639L101.839 27.3591ZM111.97 32.222L113.164 32.2346L113.161 31.5527L111.987 31.542L111.97 32.222ZM108.806 30.1321L109.123 30.1498L110.46 30.1485L110.481 27.4484L108.806 30.1321Z" fill="#FF0000"/>
<path fill-rule="evenodd" clip-rule="evenodd" d="M95.3342 21.6037L95.3223 41.3474C96.3923 41.1723 97.6289 40.8173 98.7193 40.5898C104.891 39.3024 110.877 39.2234 116.769 41.6641C117.772 42.0794 118.713 42.5083 119.678 42.9431C120.52 43.322 121.785 43.8762 122.737 44.0776L122.751 39.8844C120.854 39.4637 118.017 37.8621 117.028 37.6042L117.026 40.9616C116.332 40.7774 115.557 40.4317 114.808 40.2105C109.215 38.561 104.288 38.7845 98.6421 39.9219C97.8126 40.089 96.9585 40.37 96.1666 40.4997L96.1661 22.1544C98.1904 21.5313 98.8626 21.1971 101.176 20.8034C105.031 20.1474 108.836 20.2877 112.559 21.4479C114.058 21.915 115.845 22.6667 117.021 23.4315L117.028 26.9217C118.45 27.3429 121.085 28.9126 122.748 29.2053L122.75 25.0111C121.652 24.7707 120.562 24.2403 119.589 23.8282C118.648 23.4297 117.47 22.9508 116.61 22.487C114.691 21.4518 112.661 20.6601 110.277 20.1908C106.497 19.4468 102.444 19.7062 98.6918 20.6441C97.553 20.9288 96.1596 21.403 95.3344 21.6037H95.3342Z" fill="#0093DD"/>
<path fill-rule="evenodd" clip-rule="evenodd" d="M117.028 36.7428C117.239 37.0349 122.064 39.0065 122.743 39.1221L122.75 34.9284C120.929 34.5625 118.194 32.9734 117.027 32.6484L117.028 36.7428Z" fill="#0093DD"/>
<path fill-rule="evenodd" clip-rule="evenodd" d="M117.028 31.8755C118.534 32.336 121.123 33.8739 122.741 34.157L122.75 29.9603C121.853 29.7873 120.675 29.2612 119.861 28.9043C119.272 28.6459 117.491 27.8063 117.028 27.6826L117.028 31.8755Z" fill="#0093DD"/>
<path fill-rule="evenodd" clip-rule="evenodd" d="M123.392 41.1513C124.516 41.4638 127.148 41.6939 128.356 41.6045L128.378 37.4697C127.55 37.387 126.641 37.429 125.774 37.3497C125.109 37.2889 123.946 37.0197 123.395 37.0285L123.392 41.1513Z" fill="#0093DD"/>
<path fill-rule="evenodd" clip-rule="evenodd" d="M123.39 36.3272C124.446 36.6382 127.214 36.878 128.365 36.7816L128.377 32.6455C127.508 32.579 126.655 32.6111 125.774 32.529C125.076 32.464 123.98 32.2055 123.403 32.2026L123.39 36.3272Z" fill="#0093DD"/>
<path fill-rule="evenodd" clip-rule="evenodd" d="M123.391 31.5009C124.316 31.804 127.345 32.0647 128.376 31.957L128.364 27.8191C127.466 27.7804 126.647 27.7898 125.752 27.7068C125.217 27.6572 123.769 27.3657 123.39 27.4038L123.391 31.5009Z" fill="#0093DD"/>
<path fill-rule="evenodd" clip-rule="evenodd" d="M129.221 35.199L129.221 38.715C131.487 38.776 132.574 38.6621 134.633 38.2109L134.648 34.6982C132.6 35.122 131.41 35.2226 129.221 35.199H129.221Z" fill="#0093DD"/>
<path fill-rule="evenodd" clip-rule="evenodd" d="M129.231 30.3716L129.22 33.8861C131.936 34.0214 132.238 33.8338 134.641 33.3845L134.647 29.8716C132.82 30.3335 131.193 30.4169 129.231 30.3716H129.231Z" fill="#0093DD"/>
</g>
<defs>
<linearGradient id="paint0_linear" x1="14.1748" y1="29.542" x2="14.1748" y2="62.999" gradientUnits="userSpaceOnUse">
<stop stop-color="#868789"/>
<stop offset="0.47" stop-color="#868789"/>
<stop offset="1" stop-color="#C5C7C8"/>
</linearGradient>
<linearGradient id="paint1_linear" x1="1.79932" y1="-3.52692e-06" x2="1.79932" y2="37.8833" gradientUnits="userSpaceOnUse">
<stop stop-color="#E7441C"/>
<stop offset="0.47" stop-color="#E7441C"/>
<stop offset="1" stop-color="#F07C00"/>
</linearGradient>
<linearGradient id="paint2_linear" x1="3.60141e-06" y1="8.91406" x2="3.60141e-06" y2="47.2615" gradientUnits="userSpaceOnUse">
<stop stop-color="#E7441C"/>
<stop offset="0.47" stop-color="#E7441C"/>
<stop offset="1" stop-color="#F07C00"/>
</linearGradient>
<linearGradient id="paint3_linear" x1="7.58496" y1="21.7817" x2="7.58496" y2="50.6881" gradientUnits="userSpaceOnUse">
<stop stop-color="#868789"/>
<stop offset="0.47" stop-color="#868789"/>
<stop offset="1" stop-color="#C5C7C8"/>
</linearGradient>
<clipPath id="clip0">
<rect width="63.2395" height="63.2322" fill="white" transform="translate(82.1973)"/>
</clipPath>
</defs>
</svg>
