<svg width="96" height="273" viewBox="0 0 96 273" fill="none" xmlns="http://www.w3.org/2000/svg">
<g filter="url(#filter0_d)">
<path fill-rule="evenodd" clip-rule="evenodd" d="M91.8535 248.985C91.8535 257.476 84.9702 264.36 76.4791 264.36H19.3743C10.8832 264.36 3.99987 257.476 3.99987 248.985L3.99987 15.3744C3.99987 6.88337 10.8832 3.05176e-05 19.3743 3.05176e-05H76.4791C84.9702 3.05176e-05 91.8535 6.88337 91.8535 15.3744L91.8535 248.985ZM58.0429 231.881C58.0429 225.411 63.2873 220.167 69.7567 220.167C76.2261 220.167 81.4705 225.411 81.4705 231.881C81.4705 238.35 76.2261 243.594 69.7567 243.594C63.2873 243.594 58.0429 238.35 58.0429 231.881ZM27.4275 220.167C20.9581 220.167 15.7137 225.411 15.7137 231.881C15.7137 238.35 20.9581 243.594 27.4275 243.594C33.8969 243.594 39.1413 238.35 39.1413 231.881C39.1413 225.411 33.8969 220.167 27.4275 220.167ZM15.7137 27.421C15.7137 20.9516 20.9581 15.7071 27.4275 15.7071C33.8969 15.7071 39.1413 20.9516 39.1413 27.421C39.1413 33.8903 33.8969 39.1348 27.4275 39.1348C20.9581 39.1348 15.7137 33.8903 15.7137 27.421ZM68.9582 15.7071C62.4888 15.7071 57.2444 20.9516 57.2444 27.421C57.2444 33.8903 62.4888 39.1348 68.9582 39.1348C75.4276 39.1348 80.672 33.8903 80.672 27.421C80.672 20.9516 75.4276 15.7071 68.9582 15.7071ZM72.7591 165.439C73.7883 165.129 74.8997 164.86 75.8535 164.86V169.86C75.6824 169.86 75.1688 169.935 74.2018 170.226C73.2987 170.498 72.1876 170.9 70.913 171.404C68.3648 172.411 65.3215 173.762 62.2525 175.14C61.8702 175.312 61.4873 175.484 61.1051 175.656C58.4463 176.851 55.8179 178.033 53.6088 178.95C52.3455 179.474 51.176 179.931 50.1875 180.259C49.3005 180.554 48.244 180.86 47.3535 180.86C46.4722 180.86 45.4045 180.559 44.498 180.266C43.4875 179.939 42.2852 179.484 40.9827 178.96C38.3831 177.914 35.2289 176.526 32.1247 175.16L32.0967 175.148C28.96 173.768 25.8753 172.411 23.3577 171.398C22.0977 170.891 21.0187 170.486 20.1699 170.211C19.2843 169.924 18.9023 169.867 18.8579 169.86C18.8545 169.86 18.8535 169.86 18.8535 169.86V164.86C19.7349 164.86 20.8025 165.161 21.709 165.454C22.7195 165.781 23.9218 166.235 25.2244 166.759C27.8238 167.805 30.9779 169.193 34.082 170.559L34.1104 170.571C37.2471 171.952 40.3317 173.309 42.8494 174.322C44.1093 174.829 45.1883 175.234 46.0371 175.508C46.9227 175.795 47.3048 175.852 47.3492 175.859C47.3525 175.86 47.3535 175.86 47.3535 175.86C47.3535 175.86 47.3548 175.859 47.3629 175.858C47.4258 175.847 47.7935 175.786 48.6094 175.515C49.4295 175.242 50.4709 174.839 51.6919 174.332C53.8282 173.445 56.3816 172.297 59.0513 171.097C59.4336 170.925 59.8183 170.752 60.2045 170.579C63.2605 169.207 66.4047 167.809 69.0753 166.753C70.4101 166.226 71.6662 165.768 72.7591 165.439ZM72.7591 120.439C73.7883 120.129 74.8997 119.86 75.8535 119.86V124.86C75.6824 124.86 75.1688 124.935 74.2018 125.226C73.2987 125.498 72.1876 125.9 70.913 126.404C68.3648 127.411 65.3215 128.762 62.2525 130.14C61.8702 130.312 61.4873 130.484 61.1051 130.656C58.4463 131.851 55.8179 133.033 53.6088 133.95C52.3455 134.474 51.176 134.931 50.1875 135.259C49.3005 135.554 48.244 135.86 47.3535 135.86C46.4722 135.86 45.4045 135.559 44.498 135.266C43.4875 134.939 42.2852 134.484 40.9827 133.96C38.3831 132.914 35.2289 131.526 32.1247 130.16L32.0967 130.148C28.96 128.768 25.8753 127.411 23.3577 126.398C22.0977 125.891 21.0187 125.486 20.1699 125.211C19.2843 124.924 18.9023 124.867 18.8579 124.86C18.8545 124.86 18.8535 124.86 18.8535 124.86V119.86C19.7349 119.86 20.8025 120.161 21.709 120.454C22.7195 120.781 23.9218 121.235 25.2244 121.759C27.8238 122.805 30.9779 124.193 34.082 125.559L34.1104 125.571C37.2471 126.952 40.3317 128.309 42.8494 129.322C44.1093 129.829 45.1883 130.234 46.0371 130.508C46.9227 130.795 47.3048 130.852 47.3492 130.859C47.3525 130.86 47.3535 130.86 47.3535 130.86C47.3535 130.86 47.3548 130.859 47.3629 130.858C47.4258 130.847 47.7935 130.786 48.6094 130.515C49.4295 130.242 50.4709 129.839 51.6919 129.332C53.8282 128.445 56.3816 127.297 59.0513 126.097C59.4336 125.925 59.8183 125.752 60.2045 125.579C63.2605 124.207 66.4047 122.809 69.0753 121.753C70.4101 121.226 71.6662 120.768 72.7591 120.439ZM72.7591 76.4387C73.7883 76.1286 74.8997 75.8597 75.8535 75.8597V80.8597C75.6824 80.8597 75.1688 80.9347 74.2018 81.2261C73.2987 81.4983 72.1876 81.8998 70.913 82.4035C68.3648 83.4106 65.3215 84.7625 62.2525 86.1404C61.8702 86.3121 61.4873 86.4842 61.1051 86.656C58.4463 87.8514 55.8179 89.033 53.6088 89.95C52.3455 90.4744 51.176 90.9305 50.1875 91.2593C49.3005 91.5543 48.244 91.8597 47.3535 91.8597C46.4722 91.8597 45.4045 91.559 44.498 91.2657C43.4875 90.9387 42.2852 90.4844 40.9827 89.9602C38.3831 88.9141 35.2289 87.5262 32.1247 86.1603L32.0967 86.148C28.96 84.7679 25.8753 83.4109 23.3577 82.3977C22.0977 81.8907 21.0187 81.4856 20.1699 81.211C19.2843 80.9245 18.9023 80.8671 18.8579 80.8605C18.8545 80.86 18.8535 80.8597 18.8535 80.8597V75.8597C19.7349 75.8597 20.8025 76.1605 21.709 76.4538C22.7195 76.7807 23.9218 77.2351 25.2244 77.7592C27.8238 78.8054 30.9779 80.1932 34.082 81.559L34.1104 81.5714C37.2471 82.9516 40.3317 84.3086 42.8494 85.3217C44.1093 85.8288 45.1883 86.2338 46.0371 86.5085C46.9227 86.795 47.3048 86.8524 47.3492 86.859C47.3525 86.8595 47.3535 86.8597 47.3535 86.8597C47.3535 86.8597 47.3548 86.8592 47.3629 86.8579C47.4258 86.8474 47.7935 86.7863 48.6094 86.5149C49.4295 86.2421 50.4709 85.8389 51.6919 85.332C53.8282 84.4453 56.3816 83.2974 59.0513 82.0973C59.4336 81.9254 59.8183 81.7525 60.2045 81.5791C63.2605 80.207 66.4047 78.8089 69.0753 77.7535C70.4101 77.2259 71.6662 76.7681 72.7591 76.4387ZM72.7591 180.439C73.7883 180.129 74.8997 179.86 75.8535 179.86V184.86C75.6824 184.86 75.1688 184.935 74.2018 185.226C73.2987 185.498 72.1876 185.9 70.913 186.404C68.3648 187.411 65.3215 188.762 62.2525 190.14C61.8702 190.312 61.4873 190.484 61.1051 190.656C58.4463 191.851 55.8179 193.033 53.6088 193.95C52.3455 194.474 51.176 194.931 50.1875 195.259C49.3005 195.554 48.244 195.86 47.3535 195.86C46.4722 195.86 45.4045 195.559 44.498 195.266C43.4875 194.939 42.2852 194.484 40.9827 193.96C38.3831 192.914 35.2289 191.526 32.1247 190.16L32.0967 190.148C28.96 188.768 25.8753 187.411 23.3577 186.398C22.0977 185.891 21.0187 185.486 20.1699 185.211C19.2843 184.924 18.9023 184.867 18.8579 184.86C18.8545 184.86 18.8535 184.86 18.8535 184.86V179.86C19.7349 179.86 20.8025 180.161 21.709 180.454C22.7195 180.781 23.9218 181.235 25.2244 181.759C27.8238 182.805 30.9779 184.193 34.082 185.559L34.1104 185.571C37.2471 186.952 40.3317 188.309 42.8494 189.322C44.1093 189.829 45.1883 190.234 46.0371 190.508C46.9227 190.795 47.3048 190.852 47.3492 190.859C47.3525 190.86 47.3535 190.86 47.3535 190.86C47.3535 190.86 47.3548 190.859 47.3629 190.858C47.4258 190.847 47.7935 190.786 48.6094 190.515C49.4295 190.242 50.4709 189.839 51.6919 189.332C53.8282 188.445 56.3816 187.297 59.0513 186.097C59.4336 185.925 59.8183 185.752 60.2045 185.579C63.2605 184.207 66.4047 182.809 69.0753 181.753C70.4101 181.226 71.6662 180.768 72.7591 180.439ZM72.7591 135.439C73.7883 135.129 74.8997 134.86 75.8535 134.86V139.86C75.6824 139.86 75.1688 139.935 74.2018 140.226C73.2987 140.498 72.1876 140.9 70.913 141.404C68.3648 142.411 65.3215 143.762 62.2525 145.14C61.8702 145.312 61.4873 145.484 61.1051 145.656C58.4463 146.851 55.8179 148.033 53.6088 148.95C52.3455 149.474 51.176 149.931 50.1875 150.259C49.3005 150.554 48.244 150.86 47.3535 150.86C46.4722 150.86 45.4045 150.559 44.498 150.266C43.4875 149.939 42.2852 149.484 40.9827 148.96C38.3831 147.914 35.2289 146.526 32.1247 145.16L32.0967 145.148C28.96 143.768 25.8753 142.411 23.3577 141.398C22.0977 140.891 21.0187 140.486 20.1699 140.211C19.2843 139.924 18.9023 139.867 18.8579 139.86C18.8545 139.86 18.8535 139.86 18.8535 139.86V134.86C19.7349 134.86 20.8025 135.161 21.709 135.454C22.7195 135.781 23.9218 136.235 25.2244 136.759C27.8238 137.805 30.9779 139.193 34.082 140.559L34.1104 140.571C37.2471 141.952 40.3317 143.309 42.8494 144.322C44.1093 144.829 45.1883 145.234 46.0371 145.508C46.9227 145.795 47.3048 145.852 47.3492 145.859C47.3525 145.86 47.3535 145.86 47.3535 145.86C47.3535 145.86 47.3548 145.859 47.3629 145.858C47.4258 145.847 47.7935 145.786 48.6094 145.515C49.4295 145.242 50.4709 144.839 51.6919 144.332C53.8282 143.445 56.3816 142.297 59.0513 141.097C59.4336 140.925 59.8183 140.752 60.2045 140.579C63.2605 139.207 66.4047 137.809 69.0753 136.753C70.4101 136.226 71.6662 135.768 72.7591 135.439ZM72.7591 91.4387C73.7883 91.1286 74.8997 90.8597 75.8535 90.8597V95.8597C75.6824 95.8597 75.1688 95.9347 74.2018 96.2261C73.2987 96.4983 72.1876 96.8998 70.913 97.4035C68.3648 98.4106 65.3215 99.7625 62.2525 101.14C61.8702 101.312 61.4873 101.484 61.1051 101.656C58.4463 102.851 55.8179 104.033 53.6088 104.95C52.3455 105.474 51.176 105.931 50.1875 106.259C49.3005 106.554 48.244 106.86 47.3535 106.86C46.4722 106.86 45.4045 106.559 44.498 106.266C43.4875 105.939 42.2852 105.484 40.9827 104.96C38.3831 103.914 35.2289 102.526 32.1247 101.16L32.0967 101.148C28.96 99.7679 25.8753 98.4109 23.3577 97.3977C22.0977 96.8907 21.0187 96.4856 20.1699 96.211C19.2843 95.9245 18.9023 95.8671 18.8579 95.8605C18.8545 95.86 18.8535 95.8597 18.8535 95.8597V90.8597C19.7349 90.8597 20.8025 91.1605 21.709 91.4538C22.7195 91.7807 23.9218 92.2351 25.2244 92.7592C27.8238 93.8054 30.9779 95.1932 34.082 96.559L34.1104 96.5714C37.2471 97.9516 40.3317 99.3086 42.8494 100.322C44.1093 100.829 45.1883 101.234 46.0371 101.508C46.9227 101.795 47.3048 101.852 47.3492 101.859C47.3525 101.86 47.3535 101.86 47.3535 101.86C47.3535 101.86 47.3548 101.859 47.3629 101.858C47.4258 101.847 47.7935 101.786 48.6094 101.515C49.4295 101.242 50.4709 100.839 51.6919 100.332C53.8282 99.4453 56.3816 98.2974 59.0513 97.0973C59.4336 96.9254 59.8183 96.7525 60.2045 96.5791C63.2605 95.207 66.4047 93.8089 69.0753 92.7535C70.4101 92.2259 71.6662 91.7681 72.7591 91.4387ZM72.7591 105.439C73.7883 105.129 74.8997 104.86 75.8535 104.86V109.86C75.6824 109.86 75.1688 109.935 74.2018 110.226C73.2987 110.498 72.1876 110.9 70.913 111.404C68.3648 112.411 65.3215 113.762 62.2525 115.14C61.8702 115.312 61.4873 115.484 61.1051 115.656C58.4463 116.851 55.8179 118.033 53.6088 118.95C52.3455 119.474 51.176 119.931 50.1875 120.259C49.3005 120.554 48.244 120.86 47.3535 120.86C46.4722 120.86 45.4045 120.559 44.498 120.266C43.4875 119.939 42.2852 119.484 40.9827 118.96C38.3831 117.914 35.2289 116.526 32.1247 115.16L32.0967 115.148C28.96 113.768 25.8753 112.411 23.3577 111.398C22.0977 110.891 21.0187 110.486 20.1699 110.211C19.2843 109.924 18.9023 109.867 18.8579 109.86C18.8545 109.86 18.8535 109.86 18.8535 109.86V104.86C19.7349 104.86 20.8025 105.161 21.709 105.454C22.7195 105.781 23.9218 106.235 25.2244 106.759C27.8238 107.805 30.9779 109.193 34.082 110.559L34.1104 110.571C37.2471 111.952 40.3317 113.309 42.8494 114.322C44.1093 114.829 45.1883 115.234 46.0371 115.508C46.9227 115.795 47.3048 115.852 47.3492 115.859C47.3525 115.86 47.3535 115.86 47.3535 115.86C47.3535 115.86 47.3548 115.859 47.3629 115.858C47.4258 115.847 47.7935 115.786 48.6094 115.515C49.4295 115.242 50.4709 114.839 51.6919 114.332C53.8282 113.445 56.3816 112.297 59.0513 111.097C59.4336 110.925 59.8183 110.752 60.2045 110.579C63.2605 109.207 66.4047 107.809 69.0753 106.753C70.4101 106.226 71.6662 105.768 72.7591 105.439ZM72.7591 150.439C73.7883 150.129 74.8997 149.86 75.8535 149.86V154.86C75.6824 154.86 75.1688 154.935 74.2018 155.226C73.2987 155.498 72.1876 155.9 70.913 156.404C68.3648 157.411 65.3215 158.762 62.2525 160.14C61.8702 160.312 61.4873 160.484 61.1051 160.656C58.4463 161.851 55.8179 163.033 53.6088 163.95C52.3455 164.474 51.176 164.931 50.1875 165.259C49.3005 165.554 48.244 165.86 47.3535 165.86C46.4722 165.86 45.4045 165.559 44.498 165.266C43.4875 164.939 42.2852 164.484 40.9827 163.96C38.3831 162.914 35.2289 161.526 32.1247 160.16L32.0967 160.148C28.96 158.768 25.8753 157.411 23.3577 156.398C22.0977 155.891 21.0187 155.486 20.1699 155.211C19.2843 154.924 18.9023 154.867 18.8579 154.86C18.8545 154.86 18.8535 154.86 18.8535 154.86V149.86C19.7349 149.86 20.8025 150.161 21.709 150.454C22.7195 150.781 23.9218 151.235 25.2244 151.759C27.8238 152.805 30.9779 154.193 34.082 155.559L34.1104 155.571C37.2471 156.952 40.3317 158.309 42.8494 159.322C44.1093 159.829 45.1883 160.234 46.0371 160.508C46.9227 160.795 47.3048 160.852 47.3492 160.859C47.3525 160.86 47.3535 160.86 47.3535 160.86C47.3535 160.86 47.3548 160.859 47.3629 160.858C47.4258 160.847 47.7935 160.786 48.6094 160.515C49.4295 160.242 50.4709 159.839 51.6919 159.332C53.8282 158.445 56.3816 157.297 59.0513 156.097C59.4336 155.925 59.8183 155.752 60.2045 155.579C63.2605 154.207 66.4047 152.809 69.0753 151.753C70.4101 151.226 71.6662 150.768 72.7591 150.439Z" fill="#969696"/>
</g>
<defs>
<filter id="filter0_d" x="0" y="0" width="95.8536" height="272.36" filterUnits="userSpaceOnUse" color-interpolation-filters="sRGB">
<feFlood flood-opacity="0" result="BackgroundImageFix"/>
<feColorMatrix in="SourceAlpha" type="matrix" values="0 0 0 0 0 0 0 0 0 0 0 0 0 0 0 0 0 0 127 0"/>
<feOffset dy="4"/>
<feGaussianBlur stdDeviation="2"/>
<feColorMatrix type="matrix" values="0 0 0 0 0 0 0 0 0 0 0 0 0 0 0 0 0 0 0.25 0"/>
<feBlend mode="normal" in2="BackgroundImageFix" result="effect1_dropShadow"/>
<feBlend mode="normal" in="SourceGraphic" in2="effect1_dropShadow" result="shape"/>
</filter>
</defs>
</svg>
