<svg width="280" height="415" viewBox="0 0 280 415" fill="none" xmlns="http://www.w3.org/2000/svg">
<rect x="200" y="64" width="72" height="141" fill="#969696"/>
<path d="M200 170.168L236.45 157L272 170.168V205H200V170.168Z" fill="#B81A1A"/>
<path fill-rule="evenodd" clip-rule="evenodd" d="M191.744 15.4529C191.744 6.98741 198.622 0.124756 207.107 0.124756H264.173C272.658 0.124756 279.536 6.98741 279.536 15.4529V248.361C279.536 256.826 272.658 263.689 264.173 263.689H207.107C198.622 263.689 191.744 256.826 191.744 248.361V15.4529ZM225.531 32.5062C225.531 38.9561 220.29 44.1848 213.825 44.1848C207.36 44.1848 202.12 38.9561 202.12 32.5062C202.12 26.0563 207.36 20.8276 213.825 20.8276C220.29 20.8276 225.531 26.0563 225.531 32.5062ZM256.125 44.1848C262.59 44.1848 267.831 38.9561 267.831 32.5062C267.831 26.0563 262.59 20.8276 256.125 20.8276C249.66 20.8276 244.419 26.0563 244.419 32.5062C244.419 38.9561 249.66 44.1848 256.125 44.1848ZM267.831 236.351C267.831 242.801 262.59 248.029 256.125 248.029C249.66 248.029 244.419 242.801 244.419 236.351C244.419 229.901 249.66 224.672 256.125 224.672C262.59 224.672 267.831 229.901 267.831 236.351ZM214.623 248.029C221.088 248.029 226.329 242.801 226.329 236.351C226.329 229.901 221.088 224.672 214.623 224.672C208.158 224.672 202.917 229.901 202.917 236.351C202.917 242.801 208.158 248.029 214.623 248.029ZM210.825 98.7481C209.796 99.0573 208.686 99.3254 207.733 99.3254V94.3404C207.904 94.3404 208.417 94.2657 209.383 93.9752C210.286 93.7038 211.396 93.3035 212.67 92.8013C215.216 91.7972 218.257 90.4494 221.324 89.0756C221.695 88.9097 222.066 88.7433 222.436 88.5772L222.471 88.5616C225.128 87.3698 227.754 86.1917 229.962 85.2775C231.224 84.7547 232.393 84.2999 233.381 83.9721C234.267 83.678 235.323 83.3735 236.213 83.3735C237.094 83.3735 238.16 83.6734 239.066 83.9658C240.076 84.2917 241.278 84.7447 242.579 85.2673C245.175 86.3094 248.323 87.6916 251.423 89.0522L251.425 89.0532L251.427 89.054L251.429 89.055L251.431 89.0558L251.459 89.068C254.594 90.444 257.676 91.7969 260.192 92.807C261.451 93.3126 262.529 93.7164 263.378 93.9902C264.263 94.2759 264.644 94.333 264.689 94.3397L264.693 94.3404V99.3254C263.812 99.3254 262.745 99.0255 261.84 98.7331C260.83 98.4072 259.628 97.9542 258.327 97.4316C255.729 96.3887 252.577 95.0049 249.475 93.6433L249.447 93.6308C246.312 92.2548 243.23 90.902 240.714 89.8918C239.455 89.3863 238.377 88.9825 237.528 88.7087C236.643 88.423 236.262 88.3658 236.217 88.3592L236.213 88.3585L236.21 88.3591L236.203 88.3603C236.141 88.3707 235.773 88.4317 234.958 88.7023C234.138 88.9742 233.098 89.3763 231.877 89.8816C229.743 90.7657 227.191 91.91 224.523 93.1066L223.371 93.6232C220.317 94.9912 217.175 96.3851 214.506 97.4373C213.172 97.9633 211.917 98.4197 210.825 98.7481ZM210.825 143.613C209.796 143.922 208.686 144.19 207.733 144.19V139.205C207.904 139.205 208.417 139.13 209.383 138.84C210.286 138.568 211.396 138.168 212.67 137.666C215.216 136.662 218.257 135.314 221.324 133.94L222.471 133.426C225.128 132.234 227.754 131.056 229.962 130.142C231.224 129.619 232.393 129.165 233.381 128.837C234.267 128.543 235.323 128.238 236.213 128.238C237.094 128.238 238.16 128.538 239.066 128.83C240.076 129.156 241.278 129.609 242.579 130.132C245.175 131.174 248.323 132.556 251.423 133.917L251.425 133.918L251.427 133.919L251.429 133.92L251.431 133.92L251.459 133.933C254.594 135.309 257.676 136.662 260.192 137.672C261.451 138.177 262.529 138.581 263.378 138.855C264.263 139.14 264.644 139.198 264.689 139.204L264.693 139.205V144.19C263.812 144.19 262.745 143.89 261.84 143.598C260.83 143.272 259.628 142.819 258.327 142.296C255.73 141.254 252.578 139.87 249.477 138.509L249.476 138.508L249.447 138.495C246.312 137.119 243.23 135.767 240.714 134.756C239.455 134.251 238.377 133.847 237.528 133.573C236.643 133.288 236.262 133.23 236.217 133.224L236.213 133.223L236.21 133.224L236.203 133.225C236.141 133.235 235.773 133.296 234.958 133.567C234.138 133.839 233.098 134.241 231.877 134.746C229.743 135.63 227.191 136.775 224.523 137.971C224.141 138.143 223.757 138.315 223.371 138.488C220.317 139.856 217.175 141.25 214.506 142.302C213.172 142.828 211.917 143.284 210.825 143.613ZM210.825 187.48C209.796 187.79 208.686 188.058 207.733 188.058V183.073C207.904 183.073 208.417 182.998 209.383 182.707C210.286 182.436 211.396 182.036 212.67 181.533C215.216 180.529 218.257 179.182 221.324 177.808C221.706 177.637 222.089 177.465 222.471 177.294C225.128 176.102 227.755 174.924 229.962 174.01C231.224 173.487 232.393 173.032 233.381 172.704C234.267 172.41 235.323 172.106 236.213 172.106C237.094 172.106 238.16 172.406 239.066 172.698C240.076 173.024 241.278 173.477 242.579 174C245.177 175.042 248.329 176.426 251.431 177.788L251.459 177.8C254.594 179.176 257.676 180.529 260.192 181.539C261.451 182.045 262.529 182.449 263.378 182.722C264.263 183.008 264.644 183.065 264.689 183.072L264.693 183.073V188.058C263.812 188.058 262.745 187.758 261.84 187.465C260.83 187.139 259.628 186.686 258.327 186.164C255.729 185.121 252.578 183.737 249.476 182.376L249.447 182.363C246.312 180.987 243.23 179.634 240.714 178.624C239.455 178.118 238.377 177.715 237.528 177.441C236.643 177.155 236.262 177.098 236.217 177.091L236.213 177.091C236.213 177.091 236.212 177.091 236.203 177.093C236.141 177.103 235.773 177.164 234.958 177.435C234.138 177.706 233.098 178.108 231.877 178.614C229.743 179.498 227.191 180.642 224.523 181.839C224.141 182.01 223.757 182.183 223.371 182.355C220.317 183.723 217.175 185.117 214.506 186.17C213.172 186.695 211.917 187.152 210.825 187.48ZM210.825 83.7932C209.796 84.1025 208.686 84.3705 207.733 84.3705V79.3855C207.904 79.3855 208.417 79.3108 209.383 79.0203C210.286 78.749 211.396 78.3486 212.67 77.8464C215.216 76.8424 218.257 75.4945 221.324 74.1208C221.706 73.9496 222.089 73.778 222.471 73.6067C225.128 72.415 227.754 71.2369 229.962 70.3226C231.224 69.7998 232.393 69.3451 233.381 69.0173C234.267 68.7231 235.323 68.4186 236.213 68.4186C237.094 68.4186 238.16 68.7185 239.066 69.0109C240.076 69.3369 241.278 69.7898 242.579 70.3124C245.175 71.3545 248.323 72.7367 251.423 74.0973L251.425 74.0983L251.427 74.0992L251.429 74.1001L251.431 74.1009L251.459 74.1132C254.594 75.4892 257.676 76.842 260.192 77.8522C261.451 78.3577 262.529 78.7615 263.378 79.0353C264.263 79.321 264.644 79.3782 264.689 79.3848L264.693 79.3855V84.3705C263.812 84.3705 262.745 84.0706 261.84 83.7782C260.83 83.4523 259.628 82.9993 258.327 82.4767C255.729 81.4338 252.577 80.05 249.475 78.6884L249.447 78.676C246.312 77.3 243.23 75.9471 240.714 74.937C239.455 74.4314 238.377 74.0276 237.528 73.7538C236.643 73.4681 236.262 73.411 236.217 73.4043L236.213 73.4036C236.213 73.4036 236.212 73.4041 236.203 73.4054C236.141 73.4159 235.773 73.4769 234.958 73.7474C234.138 74.0194 233.098 74.4214 231.877 74.9267C229.743 75.8108 227.191 76.9552 224.523 78.1517L224.466 78.1776C224.102 78.3404 223.737 78.5042 223.371 78.6684C220.317 80.0363 217.175 81.4302 214.506 82.4825C213.172 83.0084 211.917 83.4649 210.825 83.7932ZM210.825 128.658C209.796 128.967 208.686 129.235 207.733 129.235V124.25C207.904 124.25 208.417 124.175 209.383 123.885C210.286 123.614 211.396 123.213 212.67 122.711C215.216 121.707 218.257 120.359 221.324 118.985C221.695 118.819 222.066 118.653 222.436 118.487L222.471 118.471C225.128 117.28 227.754 116.101 229.962 115.187C231.224 114.664 232.393 114.21 233.381 113.882C234.267 113.588 235.323 113.283 236.213 113.283C237.094 113.283 238.16 113.583 239.066 113.876C240.076 114.201 241.278 114.654 242.579 115.177C245.175 116.219 248.323 117.601 251.423 118.962L251.427 118.964L251.429 118.965L251.431 118.965L251.459 118.978C254.594 120.354 257.676 121.707 260.192 122.717C261.451 123.222 262.529 123.626 263.378 123.9C264.263 124.186 264.644 124.243 264.689 124.249L264.693 124.25V129.235C263.812 129.235 262.745 128.935 261.84 128.643C260.83 128.317 259.628 127.864 258.327 127.341C255.729 126.298 252.577 124.915 249.475 123.553L249.447 123.541C246.312 122.165 243.23 120.812 240.714 119.802C239.455 119.296 238.377 118.892 237.528 118.618C236.643 118.333 236.262 118.276 236.217 118.269L236.213 118.268L236.211 118.269L236.203 118.27C236.141 118.28 235.773 118.341 234.958 118.612C234.138 118.884 233.098 119.286 231.877 119.791C229.743 120.675 227.191 121.82 224.523 123.016L224.466 123.042C224.102 123.205 223.737 123.369 223.371 123.533C220.317 124.901 217.175 126.295 214.506 127.347C213.172 127.873 211.917 128.329 210.825 128.658ZM210.825 172.525C209.796 172.835 208.686 173.103 207.733 173.103V168.118C207.904 168.118 208.417 168.043 209.383 167.753C210.286 167.481 211.396 167.081 212.67 166.579C215.216 165.575 218.257 164.227 221.324 162.853C221.679 162.694 222.034 162.535 222.388 162.376L222.471 162.339C225.128 161.147 227.755 159.969 229.962 159.055C231.224 158.532 232.393 158.077 233.381 157.749C234.267 157.455 235.323 157.151 236.213 157.151C237.094 157.151 238.16 157.451 239.066 157.743C240.076 158.069 241.278 158.522 242.579 159.045C245.177 160.088 248.329 161.471 251.431 162.833L251.459 162.845C254.594 164.221 257.676 165.574 260.192 166.584C261.451 167.09 262.529 167.494 263.378 167.768C264.263 168.053 264.644 168.11 264.689 168.117L264.693 168.118V173.103C263.812 173.103 262.745 172.803 261.84 172.51C260.83 172.185 259.628 171.732 258.327 171.209C255.729 170.166 252.578 168.783 249.476 167.421L249.447 167.408C246.312 166.032 243.23 164.679 240.714 163.669C239.455 163.164 238.377 162.76 237.528 162.486C236.643 162.2 236.262 162.143 236.217 162.137L236.213 162.136C236.213 162.136 236.212 162.136 236.21 162.136C236.209 162.137 236.207 162.137 236.203 162.138C236.141 162.148 235.773 162.209 234.958 162.48C234.138 162.752 233.098 163.154 231.877 163.659C229.743 164.543 227.191 165.687 224.523 166.884L223.371 167.401C220.317 168.769 217.175 170.162 214.506 171.215C213.172 171.741 211.917 172.197 210.825 172.525ZM210.825 158.568C209.796 158.877 208.686 159.145 207.733 159.145V154.16C207.904 154.16 208.417 154.085 209.383 153.795C210.286 153.523 211.396 153.123 212.67 152.621C215.216 151.617 218.257 150.269 221.324 148.895C221.538 148.799 221.753 148.703 221.967 148.607L222.471 148.381C225.128 147.189 227.754 146.011 229.962 145.097C231.224 144.574 232.393 144.119 233.381 143.792C234.267 143.497 235.323 143.193 236.213 143.193C237.094 143.193 238.16 143.493 239.066 143.785C240.076 144.111 241.278 144.564 242.579 145.087C245.177 146.13 248.329 147.513 251.431 148.875L251.459 148.887C254.594 150.264 257.676 151.616 260.192 152.627C261.451 153.132 262.529 153.536 263.378 153.81C264.263 154.095 264.644 154.153 264.689 154.159L264.693 154.16V159.145C263.812 159.145 262.745 158.845 261.84 158.553C260.83 158.227 259.628 157.774 258.327 157.251C255.73 156.208 252.578 154.825 249.477 153.464L249.476 153.463L249.447 153.45C246.312 152.074 243.23 150.721 240.714 149.711C239.455 149.206 238.377 148.802 237.528 148.528C236.643 148.242 236.262 148.185 236.217 148.179L236.213 148.178C236.213 148.178 236.212 148.178 236.21 148.179C236.209 148.179 236.207 148.179 236.203 148.18C236.141 148.19 235.773 148.251 234.958 148.522C234.138 148.794 233.098 149.196 231.877 149.701C229.743 150.585 227.191 151.73 224.523 152.926L224.518 152.928C224.138 153.099 223.755 153.271 223.371 153.443C220.317 154.811 217.175 156.205 214.506 157.257C213.172 157.783 211.917 158.239 210.825 158.568ZM210.825 113.703C209.796 114.012 208.686 114.28 207.733 114.28V109.295C207.904 109.295 208.417 109.221 209.383 108.93C210.286 108.659 211.396 108.258 212.67 107.756C215.216 106.752 218.257 105.404 221.324 104.03C221.706 103.859 222.089 103.688 222.471 103.516C225.128 102.325 227.754 101.147 229.962 100.232C231.224 99.7096 232.393 99.2548 233.381 98.927C234.267 98.6329 235.323 98.3284 236.213 98.3284C237.094 98.3284 238.16 98.6282 239.066 98.9206C240.076 99.2466 241.278 99.6996 242.579 100.222C245.175 101.264 248.323 102.646 251.423 104.007L251.427 104.009L251.429 104.01L251.431 104.011L251.459 104.023C254.594 105.399 257.676 106.752 260.192 107.762C261.451 108.267 262.529 108.671 263.378 108.945C264.263 109.231 264.644 109.288 264.689 109.295L264.693 109.295V114.28C263.812 114.28 262.745 113.98 261.84 113.688C260.83 113.362 259.628 112.909 258.327 112.386C255.729 111.344 252.577 109.96 249.475 108.598L249.447 108.586C246.312 107.21 243.23 105.857 240.714 104.847C239.455 104.341 238.377 103.937 237.528 103.664C236.643 103.378 236.262 103.321 236.217 103.314L236.213 103.313C236.213 103.313 236.212 103.314 236.203 103.315C236.141 103.326 235.773 103.387 234.958 103.657C234.138 103.929 233.098 104.331 231.877 104.836C229.743 105.721 227.191 106.865 224.523 108.061L224.466 108.087C224.102 108.25 223.737 108.414 223.371 108.578C220.317 109.946 217.175 111.34 214.506 112.392C213.172 112.918 211.917 113.375 210.825 113.703Z" fill="#ABABAB"/>
<rect x="136" y="117" width="71" height="144" fill="#969696"/>
<path d="M136 117H208V147L171.5 157L136 147V117Z" fill="#2DA1F5"/>
<path fill-rule="evenodd" clip-rule="evenodd" d="M200.479 314.36C208.97 314.36 215.854 307.476 215.854 298.985V65.3744C215.854 56.8833 208.97 50 200.479 50H143.374C134.883 50 128 56.8833 128 65.3744V298.985C128 307.476 134.883 314.36 143.374 314.36H200.479ZM193.757 270.167C187.287 270.167 182.043 275.411 182.043 281.881C182.043 288.35 187.287 293.594 193.757 293.594C200.226 293.594 205.471 288.35 205.471 281.881C205.471 275.411 200.226 270.167 193.757 270.167ZM139.714 281.881C139.714 275.411 144.958 270.167 151.428 270.167C157.897 270.167 163.141 275.411 163.141 281.881C163.141 288.35 157.897 293.594 151.428 293.594C144.958 293.594 139.714 288.35 139.714 281.881ZM151.428 65.7071C144.958 65.7071 139.714 70.9516 139.714 77.4209C139.714 83.8903 144.958 89.1348 151.428 89.1348C157.897 89.1348 163.141 83.8903 163.141 77.4209C163.141 70.9516 157.897 65.7071 151.428 65.7071ZM181.245 77.4209C181.245 70.9516 186.489 65.7071 192.958 65.7071C199.428 65.7071 204.672 70.9516 204.672 77.4209C204.672 83.8903 199.428 89.1348 192.958 89.1348C186.489 89.1348 181.245 83.8903 181.245 77.4209ZM199.854 214.86C198.9 214.86 197.788 215.129 196.759 215.439C195.666 215.768 194.41 216.226 193.075 216.753C190.405 217.809 187.261 219.207 184.205 220.579L183.051 221.097C180.382 222.297 177.828 223.445 175.692 224.332C174.471 224.839 173.43 225.242 172.61 225.515C171.794 225.786 171.426 225.847 171.363 225.858L171.356 225.859L171.354 225.86L171.349 225.859C171.305 225.852 170.923 225.795 170.037 225.508C169.188 225.234 168.109 224.829 166.849 224.322C164.332 223.309 161.247 221.952 158.11 220.571L158.082 220.559C154.978 219.193 151.824 217.805 149.224 216.759C147.922 216.235 146.72 215.781 145.709 215.454C144.803 215.16 143.735 214.86 142.854 214.86V219.86L142.858 219.86C142.902 219.867 143.284 219.924 144.17 220.211C145.019 220.486 146.098 220.891 147.358 221.398C149.875 222.411 152.96 223.768 156.097 225.148L156.125 225.16L156.127 225.161L156.129 225.162L156.131 225.163L156.133 225.164C159.235 226.529 162.386 227.915 164.983 228.96C166.285 229.484 167.488 229.939 168.498 230.266C169.405 230.559 170.472 230.86 171.354 230.86C172.244 230.86 173.301 230.554 174.188 230.259C175.176 229.93 176.346 229.474 177.609 228.95C179.818 228.033 182.446 226.851 185.105 225.656L185.14 225.64C185.511 225.474 185.882 225.307 186.253 225.14C189.322 223.762 192.365 222.411 194.913 221.403C196.188 220.9 197.299 220.498 198.202 220.226C199.169 219.935 199.683 219.86 199.854 219.86V214.86ZM199.854 169.86C198.9 169.86 197.788 170.129 196.759 170.439C195.666 170.768 194.41 171.226 193.075 171.753C190.405 172.809 187.261 174.207 184.205 175.579C183.818 175.752 183.434 175.925 183.051 176.097C180.382 177.297 177.828 178.445 175.692 179.332C174.471 179.839 173.43 180.242 172.61 180.515C171.794 180.786 171.426 180.847 171.363 180.858L171.356 180.859L171.354 180.86L171.349 180.859C171.305 180.852 170.923 180.795 170.037 180.508C169.188 180.234 168.109 179.829 166.849 179.322C164.332 178.309 161.247 176.952 158.11 175.571L158.081 175.559C154.978 174.193 151.823 172.805 149.224 171.759C147.922 171.235 146.72 170.781 145.709 170.454C144.803 170.16 143.735 169.86 142.854 169.86V174.86L142.858 174.86C142.902 174.867 143.284 174.924 144.17 175.211C145.019 175.486 146.098 175.891 147.358 176.398C149.875 177.411 152.96 178.768 156.097 180.148L156.125 180.16L156.127 180.161L156.129 180.162L156.131 180.163L156.133 180.164C159.235 181.529 162.386 182.915 164.983 183.96C166.285 184.484 167.488 184.939 168.498 185.266C169.405 185.559 170.472 185.86 171.354 185.86C172.244 185.86 173.301 185.554 174.188 185.259C175.176 184.93 176.346 184.474 177.609 183.95C179.818 183.033 182.446 181.851 185.105 180.656L186.253 180.14C189.322 178.762 192.365 177.411 194.913 176.403C196.188 175.9 197.299 175.498 198.202 175.226C199.169 174.935 199.683 174.86 199.854 174.86V169.86ZM199.854 125.86C198.9 125.86 197.788 126.129 196.759 126.439C195.666 126.768 194.41 127.226 193.075 127.753C190.405 128.809 187.261 130.207 184.205 131.579C183.818 131.752 183.434 131.925 183.051 132.097C180.382 133.297 177.828 134.445 175.692 135.332C174.471 135.839 173.43 136.242 172.61 136.515C171.794 136.786 171.426 136.847 171.363 136.858C171.355 136.859 171.354 136.86 171.354 136.86L171.349 136.859C171.305 136.852 170.923 136.795 170.037 136.508C169.188 136.234 168.109 135.829 166.849 135.322C164.332 134.309 161.247 132.952 158.11 131.571L158.081 131.559C154.978 130.193 151.823 128.805 149.224 127.759C147.922 127.235 146.72 126.781 145.709 126.454C144.803 126.16 143.735 125.86 142.854 125.86V130.86L142.858 130.86C142.902 130.867 143.284 130.924 144.17 131.211C145.019 131.486 146.098 131.891 147.358 132.398C149.875 133.411 152.96 134.768 156.097 136.148L156.125 136.16C159.229 137.526 162.383 138.914 164.983 139.96C166.285 140.484 167.488 140.939 168.498 141.266C169.405 141.559 170.472 141.86 171.354 141.86C172.244 141.86 173.301 141.554 174.188 141.259C175.176 140.93 176.346 140.474 177.609 139.95C179.818 139.033 182.446 137.851 185.105 136.656C185.487 136.484 185.87 136.312 186.253 136.14C189.322 134.762 192.365 133.411 194.913 132.403C196.188 131.9 197.299 131.498 198.202 131.226C199.169 130.935 199.683 130.86 199.854 130.86V125.86ZM199.854 229.86C198.9 229.86 197.788 230.129 196.759 230.439C195.666 230.768 194.41 231.226 193.075 231.753C190.405 232.809 187.261 234.207 184.205 235.579C183.838 235.744 183.472 235.908 183.109 236.071L183.051 236.097C180.382 237.297 177.828 238.445 175.692 239.332C174.471 239.839 173.43 240.242 172.61 240.515C171.794 240.786 171.426 240.847 171.363 240.858C171.355 240.859 171.354 240.86 171.354 240.86L171.349 240.859C171.305 240.852 170.923 240.795 170.037 240.508C169.188 240.234 168.109 239.829 166.849 239.322C164.332 238.309 161.247 236.952 158.11 235.571L158.082 235.559C154.978 234.193 151.824 232.805 149.224 231.759C147.922 231.235 146.72 230.781 145.709 230.454C144.803 230.16 143.735 229.86 142.854 229.86V234.86L142.858 234.86C142.902 234.867 143.284 234.924 144.17 235.211C145.019 235.486 146.098 235.891 147.358 236.398C149.875 237.411 152.96 238.768 156.097 240.148L156.125 240.16L156.127 240.161L156.129 240.162L156.131 240.163L156.133 240.164C159.235 241.529 162.386 242.915 164.983 243.96C166.285 244.484 167.488 244.939 168.498 245.266C169.405 245.559 170.472 245.86 171.354 245.86C172.244 245.86 173.301 245.554 174.188 245.259C175.176 244.93 176.346 244.474 177.609 243.95C179.818 243.033 182.446 241.851 185.105 240.656C185.487 240.484 185.87 240.312 186.253 240.14C189.322 238.762 192.365 237.411 194.913 236.403C196.188 235.9 197.299 235.498 198.202 235.226C199.169 234.935 199.683 234.86 199.854 234.86V229.86ZM199.854 184.86C198.9 184.86 197.788 185.129 196.759 185.439C195.666 185.768 194.41 186.226 193.075 186.753C190.405 187.809 187.261 189.207 184.205 190.579C183.838 190.744 183.472 190.908 183.109 191.071L183.051 191.097C180.382 192.297 177.828 193.445 175.692 194.332C174.471 194.839 173.43 195.242 172.61 195.515C171.794 195.786 171.426 195.847 171.363 195.858L171.356 195.859L171.354 195.86L171.349 195.859C171.305 195.852 170.923 195.795 170.037 195.508C169.188 195.234 168.109 194.829 166.849 194.322C164.332 193.309 161.247 191.952 158.11 190.571L158.082 190.559C154.978 189.193 151.824 187.805 149.224 186.759C147.922 186.235 146.72 185.781 145.709 185.454C144.803 185.16 143.735 184.86 142.854 184.86V189.86L142.858 189.86C142.902 189.867 143.284 189.924 144.17 190.211C145.019 190.486 146.098 190.891 147.358 191.398C149.875 192.411 152.96 193.768 156.097 195.148L156.125 195.16L156.127 195.161L156.129 195.162L156.131 195.163L156.133 195.164C159.235 196.529 162.386 197.915 164.983 198.96C166.285 199.484 167.488 199.939 168.498 200.266C169.405 200.559 170.472 200.86 171.354 200.86C172.244 200.86 173.301 200.554 174.188 200.259C175.176 199.93 176.346 199.474 177.609 198.95C179.818 198.033 182.446 196.851 185.105 195.656L185.14 195.64C185.511 195.474 185.882 195.307 186.253 195.14C189.322 193.762 192.365 192.411 194.913 191.403C196.188 190.9 197.299 190.498 198.202 190.226C199.169 189.935 199.683 189.86 199.854 189.86V184.86ZM199.854 140.86C198.9 140.86 197.788 141.129 196.759 141.439C195.666 141.768 194.41 142.226 193.075 142.753C190.405 143.809 187.261 145.207 184.205 146.579L183.051 147.097C180.382 148.297 177.828 149.445 175.692 150.332C174.471 150.839 173.43 151.242 172.61 151.515C171.794 151.786 171.426 151.847 171.363 151.858C171.355 151.859 171.354 151.86 171.354 151.86L171.349 151.859C171.305 151.852 170.923 151.795 170.037 151.508C169.188 151.234 168.109 150.829 166.849 150.322C164.332 149.309 161.247 147.952 158.11 146.571L158.081 146.559C154.978 145.193 151.823 143.805 149.224 142.759C147.922 142.235 146.72 141.781 145.709 141.454C144.803 141.16 143.735 140.86 142.854 140.86V145.86L142.858 145.86C142.902 145.867 143.284 145.924 144.17 146.211C145.019 146.486 146.098 146.891 147.358 147.398C149.875 148.411 152.96 149.768 156.097 151.148L156.125 151.16C159.229 152.526 162.383 153.914 164.983 154.96C166.285 155.484 167.488 155.939 168.498 156.266C169.405 156.559 170.472 156.86 171.354 156.86C172.244 156.86 173.301 156.554 174.188 156.259C175.176 155.93 176.346 155.474 177.609 154.95C179.818 154.033 182.446 152.851 185.105 151.656C185.487 151.484 185.87 151.312 186.253 151.14C189.322 149.762 192.365 148.411 194.913 147.403C196.188 146.9 197.299 146.498 198.202 146.226C199.169 145.935 199.683 145.86 199.854 145.86V140.86ZM199.854 154.86C198.9 154.86 197.788 155.129 196.759 155.439C195.666 155.768 194.41 156.226 193.075 156.753C190.405 157.809 187.261 159.207 184.205 160.579C183.818 160.752 183.434 160.925 183.051 161.097C180.382 162.297 177.828 163.445 175.692 164.332C174.471 164.839 173.43 165.242 172.61 165.515C171.794 165.786 171.426 165.847 171.363 165.858C171.355 165.859 171.354 165.86 171.354 165.86L171.349 165.859C171.305 165.852 170.923 165.795 170.037 165.508C169.188 165.234 168.109 164.829 166.849 164.322C164.332 163.309 161.247 161.952 158.11 160.571L158.081 160.559C154.978 159.193 151.823 157.805 149.224 156.759C147.922 156.235 146.72 155.781 145.709 155.454C144.803 155.16 143.735 154.86 142.854 154.86V159.86L142.858 159.86C142.902 159.867 143.284 159.924 144.17 160.211C145.019 160.486 146.098 160.891 147.358 161.398C149.875 162.411 152.96 163.768 156.097 165.148L156.125 165.16C159.229 166.526 162.383 167.914 164.983 168.96C166.285 169.484 167.488 169.939 168.498 170.266C169.405 170.559 170.472 170.86 171.354 170.86C172.244 170.86 173.301 170.554 174.188 170.259C175.176 169.93 176.346 169.474 177.609 168.95C179.818 168.033 182.446 166.851 185.105 165.656C185.487 165.484 185.87 165.312 186.253 165.14C189.322 163.762 192.365 162.411 194.913 161.403C196.188 160.9 197.299 160.498 198.202 160.226C199.169 159.935 199.683 159.86 199.854 159.86V154.86ZM199.854 199.86C198.9 199.86 197.788 200.129 196.759 200.439C195.666 200.768 194.41 201.226 193.075 201.753C190.405 202.809 187.261 204.207 184.205 205.579C183.838 205.744 183.472 205.908 183.109 206.071L183.051 206.097C180.382 207.297 177.828 208.445 175.692 209.332C174.471 209.839 173.43 210.242 172.61 210.515C171.794 210.786 171.426 210.847 171.363 210.858C171.355 210.859 171.354 210.86 171.354 210.86L171.349 210.859C171.305 210.852 170.923 210.795 170.037 210.508C169.188 210.234 168.109 209.829 166.849 209.322C164.332 208.309 161.247 206.952 158.11 205.571L158.082 205.559C154.978 204.193 151.824 202.805 149.224 201.759C147.922 201.235 146.72 200.781 145.709 200.454C144.803 200.16 143.735 199.86 142.854 199.86V204.86L142.858 204.86C142.902 204.867 143.284 204.924 144.17 205.211C145.019 205.486 146.098 205.891 147.358 206.398C149.875 207.411 152.96 208.768 156.097 210.148L156.125 210.16L156.127 210.161L156.129 210.162L156.131 210.163L156.133 210.164C159.235 211.529 162.386 212.915 164.983 213.96C166.285 214.484 167.488 214.939 168.498 215.266C169.405 215.559 170.472 215.86 171.354 215.86C172.244 215.86 173.301 215.554 174.188 215.259C175.176 214.93 176.346 214.474 177.609 213.95C179.818 213.033 182.446 211.851 185.105 210.656C185.487 210.484 185.87 210.312 186.253 210.14C189.322 208.762 192.365 207.411 194.913 206.403C196.188 205.9 197.299 205.498 198.202 205.226C199.169 204.935 199.683 204.86 199.854 204.86V199.86ZM157.383 101.4V107H156.153V101.4H154V100H159.518V101.4H157.383ZM165.353 105.6V107H160.133V100H165.353V101.4H161.363V102.81H165.045V104.21H161.363V105.6H165.353ZM167.374 101.4V103.51H170.44V101.4H167.374ZM167.374 104.91V107H166.143V100H171.055L171.662 100.71V104.21L171.055 104.91H167.374ZM173.683 102.28V107H172.452V100H173.683L175.827 103.39L178.006 100H179.192V107H177.962V102.28L176.354 104.97H175.326L173.683 102.28ZM181.301 101.4V105.6H184.367V101.4H181.301ZM185.589 106.31L184.982 107H180.677L180.071 106.31V100.71L180.677 100H184.982L185.589 100.71V106.31ZM187.698 104.21V105.6H190.764V104.21H187.698ZM191.985 106.31L191.379 107H186.467V100H191.687V101.4H187.698V102.81H191.379L191.985 103.51V106.31ZM193.919 102.8V107H192.688V102.1L194.525 100H198.207V107H196.985V101.4H195.14L193.919 102.8ZM200.315 101.4V105.6H203.382V101.4H200.315ZM204.603 106.31L203.997 107H199.692L199.085 106.31V100.71L199.692 100H203.997L204.603 100.71V106.31ZM206.712 104.21V107H205.482V100H206.712V102.81H208.549L209.779 101.41V100H211V102.11L209.779 103.51L211 104.91V107H209.779V105.6L208.549 104.21H206.712ZM151.905 104.061C151.897 104.031 151.888 104.001 151.878 103.972C151.03 104.373 149.651 104.793 147.455 105.33C147.324 105.363 147.121 105.408 146.864 105.466C144.876 105.915 139.62 107.102 138.796 108.444C138.822 108.47 138.848 108.497 138.873 108.523C138.868 108.532 138.862 108.541 138.857 108.551C138.519 109.14 139.244 109.357 139.8 109.478C139.866 109.546 139.93 109.612 139.993 109.678C139.062 109.554 137.252 109.273 137.051 108.691C137.86 108.771 138.601 108.751 138.601 108.751C138.601 108.751 137.679 108.711 137.074 108.415C137.085 108.393 137.097 108.371 137.112 108.349C137.458 107.82 138.936 107.127 142.573 106.236C143.649 105.972 144.915 105.691 146.396 105.392C147.784 105.112 150.233 104.478 151.107 103.253C151.132 103.218 151.153 103.183 151.171 103.15C151.307 102.893 151.238 102.679 151.071 102.504C150.658 102.071 149.642 101.877 149.642 101.877C149.642 101.877 153.621 102.275 152.917 103.351C152.779 103.561 152.463 103.797 151.905 104.061ZM137.074 108.415C136.983 108.37 136.899 108.319 136.826 108.262C136.602 108.086 136.487 107.847 136.605 107.523C136.62 107.481 136.639 107.437 136.663 107.392C137.488 105.808 140.252 104.645 141.833 104.079C143.518 103.474 144.954 102.928 146.172 102.435C150.286 100.768 150.803 100.26 151.123 99.5814C151.774 98.1999 147.051 98.4178 147.051 98.4178C147.051 98.4178 148.271 98.4696 148.826 98.9064C149.049 99.0826 149.175 99.3259 149.047 99.6449C148.949 99.8897 148.761 100.136 148.505 100.382L144.616 96.3753C144.373 96.125 144.053 96 143.733 96C143.413 96 143.093 96.125 142.85 96.3753L135.848 103.59C135.362 104.09 135.362 104.909 135.848 105.41L136.533 106.117C135.615 106.691 135.237 107.127 135.069 107.484C134.692 108.284 135.936 108.582 137.051 108.691C137.021 108.606 137.026 108.514 137.074 108.415ZM139.993 109.678C140.226 109.918 140.445 110.144 140.666 110.373L140.669 110.375L140.676 110.383C141.277 111.003 141.896 111.643 142.849 112.624C143.335 113.125 144.13 113.125 144.616 112.624L151.618 105.41C151.948 105.07 152.028 104.505 151.905 104.061C151.057 104.462 149.649 104.927 147.455 105.465C147.315 105.499 147.095 105.548 146.814 105.611C144.802 106.058 139.696 107.195 138.873 108.523C139.222 108.882 139.523 109.192 139.8 109.478C139.8 109.478 139.8 109.478 139.8 109.478L139.993 109.678C139.993 109.678 139.993 109.677 139.993 109.678ZM148.505 100.382L148.596 100.475C147.137 101.875 143.418 103.226 141.523 103.915L141.522 103.915C141.12 104.061 140.8 104.178 140.601 104.258C139.005 104.905 137.892 105.524 137.004 106.018C136.877 106.089 136.755 106.157 136.636 106.222L136.533 106.117C137.362 105.598 138.63 104.966 140.581 104.176C140.771 104.099 141.07 103.988 141.445 103.851C143.308 103.165 147.033 101.795 148.505 100.382Z" fill="#ABABAB"/>
<rect x="75" y="183" width="69" height="145" fill="#969696"/>
<path d="M75 288.4L110.284 278L144 288.4V330H75V288.4Z" fill="#B81A1A"/>
<path fill-rule="evenodd" clip-rule="evenodd" d="M66 136.374C66 127.883 72.8833 121 81.3744 121H138.479C146.97 121 153.854 127.883 153.854 136.374V369.985C153.854 378.476 146.97 385.36 138.479 385.36H81.3744C72.8833 385.36 66 378.476 66 369.985V136.374ZM99.8106 153.479C99.8106 159.949 94.5662 165.193 88.0968 165.193C81.6274 165.193 76.383 159.949 76.383 153.479C76.383 147.01 81.6274 141.765 88.0968 141.765C94.5662 141.765 99.8106 147.01 99.8106 153.479ZM130.426 165.193C136.895 165.193 142.14 159.949 142.14 153.479C142.14 147.01 136.895 141.765 130.426 141.765C123.957 141.765 118.712 147.01 118.712 153.479C118.712 159.949 123.957 165.193 130.426 165.193ZM142.14 357.939C142.14 364.408 136.895 369.653 130.426 369.653C123.957 369.653 118.712 364.408 118.712 357.939C118.712 351.469 123.957 346.225 130.426 346.225C136.895 346.225 142.14 351.469 142.14 357.939ZM88.8953 369.653C95.3647 369.653 100.609 364.408 100.609 357.939C100.609 351.469 95.3647 346.225 88.8953 346.225C82.4259 346.225 77.1815 351.469 77.1815 357.939C77.1815 364.408 82.4259 369.653 88.8953 369.653ZM85.0944 219.921C84.0653 220.231 82.9539 220.5 82 220.5V215.5C82.1711 215.5 82.6847 215.425 83.6517 215.134C84.5548 214.861 85.666 214.46 86.9405 213.956C89.4887 212.949 92.532 211.597 95.601 210.219C95.9717 210.053 96.3428 209.886 96.7134 209.719L96.7484 209.704C99.4072 208.508 102.036 207.327 104.245 206.41C105.508 205.885 106.678 205.429 107.666 205.1C108.553 204.805 109.61 204.5 110.5 204.5C111.381 204.5 112.449 204.801 113.355 205.094C114.366 205.421 115.568 205.875 116.871 206.4C119.468 207.445 122.619 208.831 125.721 210.196L125.723 210.197L125.725 210.198L125.727 210.199L125.729 210.199L125.757 210.212C128.894 211.592 131.978 212.949 134.496 213.962C135.756 214.469 136.835 214.874 137.684 215.149C138.569 215.435 138.951 215.493 138.996 215.499L139 215.5V220.5C138.119 220.5 137.051 220.199 136.145 219.906C135.134 219.579 133.932 219.125 132.629 218.6C130.03 217.554 126.875 216.167 123.771 214.801L123.743 214.788C120.606 213.408 117.522 212.051 115.004 211.038C113.744 210.531 112.665 210.126 111.816 209.851C110.931 209.565 110.549 209.507 110.504 209.501L110.5 209.5L110.497 209.501L110.491 209.502C110.428 209.512 110.06 209.573 109.244 209.845C108.424 210.118 107.383 210.521 106.162 211.028C104.025 211.914 101.472 213.062 98.8022 214.262L97.649 214.781C94.593 216.153 91.4488 217.551 88.7782 218.606C87.4434 219.134 86.1873 219.592 85.0944 219.921ZM85.0944 264.921C84.0653 265.231 82.9539 265.5 82 265.5V260.5C82.1711 260.5 82.6847 260.425 83.6517 260.134C84.5548 259.861 85.666 259.46 86.9405 258.956C89.4887 257.949 92.532 256.597 95.601 255.219L96.7484 254.704C99.4072 253.508 102.036 252.327 104.245 251.41C105.508 250.885 106.678 250.429 107.666 250.1C108.553 249.805 109.61 249.5 110.5 249.5C111.381 249.5 112.449 249.801 113.355 250.094C114.366 250.421 115.568 250.875 116.871 251.4C119.468 252.445 122.619 253.831 125.721 255.196L125.723 255.197L125.725 255.198L125.727 255.199L125.729 255.199L125.757 255.212C128.894 256.592 131.978 257.949 134.496 258.962C135.756 259.469 136.835 259.874 137.684 260.149C138.569 260.435 138.951 260.493 138.996 260.499L139 260.5V265.5C138.119 265.5 137.051 265.199 136.145 264.906C135.134 264.579 133.932 264.125 132.629 263.6C130.03 262.555 126.876 261.167 123.773 259.801L123.743 259.788C120.606 258.408 117.522 257.051 115.004 256.038C113.744 255.531 112.665 255.126 111.816 254.851C110.931 254.565 110.549 254.507 110.504 254.501L110.5 254.5L110.497 254.501L110.491 254.502C110.428 254.512 110.06 254.573 109.244 254.845C108.424 255.118 107.383 255.521 106.162 256.028C104.025 256.914 101.472 258.062 98.8022 259.262L98.7445 259.288C98.3812 259.452 98.0158 259.616 97.649 259.781C94.593 261.153 91.4488 262.551 88.7782 263.606C87.4434 264.134 86.1873 264.592 85.0944 264.921ZM85.0944 308.921C84.0653 309.231 82.9539 309.5 82 309.5V304.5C82.1711 304.5 82.6847 304.425 83.6517 304.134C84.5548 303.861 85.666 303.46 86.9405 302.956C89.4887 301.949 92.532 300.597 95.601 299.219C95.9724 299.053 96.3443 298.885 96.7156 298.718L96.7484 298.704C99.4072 297.508 102.036 296.327 104.245 295.41C105.508 294.885 106.678 294.429 107.666 294.1C108.553 293.805 109.61 293.5 110.5 293.5C111.381 293.5 112.449 293.801 113.355 294.094C114.366 294.421 115.568 294.875 116.871 295.4C119.47 296.446 122.624 297.833 125.728 299.199L125.757 299.212C128.894 300.592 131.978 301.949 134.496 302.962C135.756 303.469 136.835 303.874 137.684 304.149C138.569 304.435 138.951 304.493 138.996 304.499L139 304.5V309.5C138.119 309.5 137.051 309.199 136.145 308.906C135.134 308.579 133.932 308.125 132.629 307.6C130.03 306.555 126.876 305.167 123.773 303.801L123.743 303.788C120.606 302.408 117.522 301.051 115.004 300.038C113.744 299.531 112.665 299.126 111.816 298.851C110.931 298.565 110.549 298.507 110.504 298.501L110.5 298.5C110.5 298.5 110.499 298.501 110.491 298.502C110.428 298.512 110.06 298.573 109.244 298.845C108.424 299.118 107.383 299.521 106.162 300.028C104.025 300.914 101.472 302.062 98.8022 303.262L98.7445 303.288C98.3812 303.452 98.0158 303.616 97.649 303.781C94.593 305.153 91.4488 306.551 88.7782 307.606C87.4434 308.134 86.1873 308.592 85.0944 308.921ZM85.0944 204.921C84.0653 205.231 82.9539 205.5 82 205.5V200.5C82.1711 200.5 82.6847 200.425 83.6517 200.134C84.5548 199.861 85.666 199.46 86.9405 198.956C89.4887 197.949 92.532 196.597 95.601 195.219C95.9833 195.048 96.3662 194.876 96.7484 194.704C99.4072 193.508 102.036 192.327 104.245 191.41C105.508 190.885 106.678 190.429 107.666 190.1C108.553 189.805 109.61 189.5 110.5 189.5C111.381 189.5 112.449 189.801 113.355 190.094C114.366 190.421 115.568 190.875 116.871 191.4C119.468 192.445 122.619 193.831 125.721 195.196L125.723 195.197L125.725 195.198L125.727 195.199L125.729 195.199L125.757 195.212C128.894 196.592 131.978 197.949 134.496 198.962C135.756 199.469 136.835 199.874 137.684 200.149C138.569 200.435 138.951 200.493 138.996 200.499L139 200.5V205.5C138.119 205.5 137.051 205.199 136.145 204.906C135.134 204.579 133.932 204.125 132.629 203.6C130.03 202.554 126.875 201.167 123.771 199.801L123.743 199.788C120.606 198.408 117.522 197.051 115.004 196.038C113.744 195.531 112.665 195.126 111.816 194.851C110.931 194.565 110.549 194.507 110.504 194.501L110.5 194.5C110.5 194.5 110.499 194.501 110.491 194.502C110.428 194.512 110.06 194.573 109.244 194.845C108.424 195.118 107.383 195.521 106.162 196.028C104.025 196.914 101.472 198.062 98.8022 199.262L98.7445 199.288C98.3812 199.452 98.0158 199.616 97.649 199.781C94.593 201.153 91.4488 202.551 88.7782 203.606C87.4434 204.134 86.1873 204.592 85.0944 204.921ZM85.0944 249.921C84.0653 250.231 82.9539 250.5 82 250.5V245.5C82.1711 245.5 82.6847 245.425 83.6517 245.134C84.5548 244.861 85.666 244.46 86.9405 243.956C89.4887 242.949 92.532 241.597 95.601 240.219C95.9717 240.053 96.3428 239.886 96.7134 239.719L96.7484 239.704C99.4072 238.508 102.036 237.327 104.245 236.41C105.508 235.885 106.678 235.429 107.666 235.1C108.553 234.805 109.61 234.5 110.5 234.5C111.381 234.5 112.449 234.801 113.355 235.094C114.366 235.421 115.568 235.875 116.871 236.4C119.468 237.445 122.619 238.831 125.721 240.196L125.723 240.197L125.725 240.198L125.727 240.199L125.729 240.199L125.757 240.212C128.894 241.592 131.978 242.949 134.496 243.962C135.756 244.469 136.835 244.874 137.684 245.149C138.569 245.435 138.951 245.493 138.996 245.499L139 245.5V250.5C138.119 250.5 137.051 250.199 136.145 249.906C135.134 249.579 133.932 249.125 132.629 248.6C130.03 247.554 126.875 246.167 123.771 244.801L123.743 244.788C120.606 243.408 117.522 242.051 115.004 241.038C113.744 240.531 112.665 240.126 111.816 239.851C110.931 239.565 110.549 239.507 110.504 239.501L110.5 239.5L110.498 239.5L110.491 239.502C110.428 239.512 110.06 239.573 109.244 239.845C108.424 240.118 107.383 240.521 106.162 241.028C104.025 241.914 101.472 243.062 98.8022 244.262L98.7445 244.288C98.3812 244.452 98.0158 244.616 97.649 244.781C94.593 246.153 91.4488 247.551 88.7782 248.606C87.4434 249.134 86.1873 249.592 85.0944 249.921ZM85.0944 293.921C84.0653 294.231 82.9539 294.5 82 294.5V289.5C82.1711 289.5 82.6847 289.425 83.6517 289.134C84.5548 288.861 85.666 288.46 86.9405 287.956C89.4887 286.949 92.532 285.597 95.601 284.219C95.9724 284.053 96.3443 283.885 96.7156 283.718L96.7484 283.704C99.4072 282.508 102.036 281.327 104.245 280.41C105.508 279.885 106.678 279.429 107.666 279.1C108.553 278.805 109.61 278.5 110.5 278.5C111.381 278.5 112.449 278.801 113.355 279.094C114.366 279.421 115.568 279.875 116.871 280.4C119.47 281.446 122.624 282.833 125.728 284.199L125.757 284.212C128.894 285.592 131.978 286.949 134.496 287.962C135.756 288.469 136.835 288.874 137.684 289.149C138.569 289.435 138.951 289.493 138.996 289.499L139 289.5V294.5C138.119 294.5 137.051 294.199 136.145 293.906C135.134 293.579 133.932 293.125 132.629 292.6C130.03 291.555 126.876 290.167 123.773 288.801L123.743 288.788C120.606 287.408 117.522 286.051 115.004 285.038C113.744 284.531 112.665 284.126 111.816 283.851C110.931 283.565 110.549 283.507 110.504 283.501L110.5 283.5C110.5 283.5 110.499 283.501 110.491 283.502C110.428 283.512 110.06 283.573 109.244 283.845C108.424 284.118 107.383 284.521 106.162 285.028C104.025 285.914 101.472 287.062 98.8022 288.262L97.649 288.781C94.593 290.153 91.4488 291.551 88.7782 292.606C87.4434 293.134 86.1873 293.592 85.0944 293.921ZM85.0944 279.921C84.0653 280.231 82.9539 280.5 82 280.5V275.5C82.1711 275.5 82.6847 275.425 83.6517 275.134C84.5548 274.861 85.666 274.46 86.9405 273.956C89.4887 272.949 92.532 271.597 95.601 270.219C95.8824 270.093 96.1641 269.966 96.4456 269.84L96.7484 269.704C99.4072 268.508 102.036 267.327 104.245 266.41C105.508 265.885 106.678 265.429 107.666 265.1C108.553 264.805 109.61 264.5 110.5 264.5C111.381 264.5 112.449 264.801 113.355 265.094C114.366 265.421 115.568 265.875 116.871 266.4C119.47 267.446 122.624 268.833 125.728 270.199L125.757 270.212C128.894 271.592 131.978 272.949 134.496 273.962C135.756 274.469 136.835 274.874 137.684 275.149C138.569 275.435 138.951 275.493 138.996 275.499L139 275.5V280.5C138.119 280.5 137.051 280.199 136.145 279.906C135.134 279.579 133.932 279.125 132.629 278.6C130.03 277.555 126.876 276.167 123.773 274.801L123.743 274.788C120.606 273.408 117.522 272.051 115.004 271.038C113.744 270.531 112.665 270.126 111.816 269.851C110.931 269.565 110.549 269.507 110.504 269.501L110.5 269.5C110.5 269.5 110.499 269.501 110.491 269.502C110.428 269.512 110.06 269.573 109.244 269.845C108.424 270.118 107.383 270.521 106.162 271.028C104.025 271.914 101.472 273.062 98.8022 274.262L98.7445 274.288C98.3812 274.452 98.0158 274.616 97.649 274.781C94.593 276.153 91.4488 277.551 88.7782 278.606C87.4434 279.134 86.1873 279.592 85.0944 279.921ZM85.0944 234.921C84.0653 235.231 82.9539 235.5 82 235.5V230.5C82.1711 230.5 82.6847 230.425 83.6517 230.134C84.5548 229.861 85.666 229.46 86.9405 228.956C89.4887 227.949 92.532 226.597 95.601 225.219C95.9717 225.053 96.3428 224.886 96.7134 224.719L96.7484 224.704C99.4072 223.508 102.036 222.327 104.245 221.41C105.508 220.885 106.678 220.429 107.666 220.1C108.553 219.805 109.61 219.5 110.5 219.5C111.381 219.5 112.449 219.801 113.355 220.094C114.366 220.421 115.568 220.875 116.871 221.4C119.468 222.445 122.619 223.831 125.721 225.196L125.723 225.197L125.725 225.198L125.727 225.199L125.729 225.199L125.757 225.212C128.894 226.592 131.978 227.949 134.496 228.962C135.756 229.469 136.835 229.874 137.684 230.149C138.569 230.435 138.951 230.493 138.996 230.499L139 230.5V235.5C138.119 235.5 137.051 235.199 136.145 234.906C135.134 234.579 133.932 234.125 132.629 233.6C130.03 232.554 126.875 231.167 123.771 229.801L123.743 229.788C120.606 228.408 117.522 227.051 115.004 226.038C113.744 225.531 112.665 225.126 111.816 224.851C110.931 224.565 110.549 224.507 110.504 224.501L110.5 224.5C110.5 224.5 110.499 224.501 110.491 224.502C110.428 224.512 110.06 224.573 109.244 224.845C108.424 225.118 107.383 225.521 106.162 226.028C104.025 226.914 101.472 228.062 98.8022 229.262L98.7445 229.288C98.3812 229.452 98.0158 229.616 97.649 229.781C94.593 231.153 91.4488 232.551 88.7782 233.606C87.4434 234.134 86.1873 234.592 85.0944 234.921Z" fill="#ABABAB"/>
<rect x="9" y="223" width="69" height="128" fill="#969696"/>
<path d="M10.5 223H80.5V248L44 261.5L10.5 248V223Z" fill="#2DA1F5"/>
<path fill-rule="evenodd" clip-rule="evenodd" d="M72.4793 414.36C80.9703 414.36 87.8536 407.476 87.8536 398.985V165.374C87.8536 156.883 80.9703 150 72.4793 150H15.3744C6.88335 150 0 156.883 0 165.374V398.985C0 407.476 6.88335 414.36 15.3744 414.36H72.4793ZM65.7568 370.167C59.2875 370.167 54.043 375.411 54.043 381.881C54.043 388.35 59.2875 393.594 65.7568 393.594C72.2262 393.594 77.4707 388.35 77.4707 381.881C77.4707 375.411 72.2262 370.167 65.7568 370.167ZM11.7138 381.881C11.7138 375.411 16.9583 370.167 23.4276 370.167C29.897 370.167 35.1415 375.411 35.1415 381.881C35.1415 388.35 29.897 393.594 23.4276 393.594C16.9583 393.594 11.7138 388.35 11.7138 381.881ZM23.4276 165.707C16.9583 165.707 11.7138 170.952 11.7138 177.421C11.7138 183.89 16.9583 189.135 23.4276 189.135C29.897 189.135 35.1415 183.89 35.1415 177.421C35.1415 170.952 29.897 165.707 23.4276 165.707ZM53.2445 177.421C53.2445 170.952 58.489 165.707 64.9583 165.707C71.4277 165.707 76.6722 170.952 76.6722 177.421C76.6722 183.89 71.4277 189.135 64.9583 189.135C58.489 189.135 53.2445 183.89 53.2445 177.421ZM71.8536 314.86C70.8998 314.86 69.7884 315.129 68.7592 315.439C67.6663 315.768 66.4102 316.226 65.0754 316.753C62.4049 317.809 59.2606 319.207 56.2047 320.579L55.0514 321.097C52.3817 322.297 49.8283 323.445 47.6921 324.332C46.471 324.839 45.4296 325.242 44.6095 325.515C43.7936 325.786 43.4259 325.847 43.3631 325.858L43.356 325.859L43.3537 325.86L43.3493 325.859C43.3049 325.852 42.9229 325.795 42.0373 325.508C41.1884 325.234 40.1095 324.829 38.8495 324.322C36.3319 323.309 33.2472 321.952 30.1105 320.571L30.0822 320.559C26.978 319.193 23.824 317.805 21.2245 316.759C19.922 316.235 18.7197 315.781 17.7091 315.454C16.8026 315.16 15.735 314.86 14.8536 314.86V319.86L14.858 319.86C14.9024 319.867 15.2844 319.924 16.17 320.211C17.0189 320.486 18.0978 320.891 19.3578 321.398C21.8754 322.411 24.9601 323.768 28.0968 325.148L28.1248 325.16L28.1266 325.161L28.1288 325.162L28.1307 325.163L28.133 325.164C31.2346 326.529 34.3855 327.915 36.9828 328.96C38.2853 329.484 39.4876 329.939 40.4982 330.266C41.4046 330.559 42.4723 330.86 43.3536 330.86C44.2441 330.86 45.3006 330.554 46.1876 330.259C47.1761 329.93 48.3456 329.474 49.609 328.95C51.818 328.033 54.4464 326.851 57.1052 325.656L57.1402 325.64C57.5108 325.474 57.882 325.307 58.2526 325.14C61.3217 323.762 64.3649 322.411 66.9131 321.403C68.1877 320.9 69.2988 320.498 70.202 320.226C71.1689 319.935 71.6825 319.86 71.8536 319.86V314.86ZM71.8536 269.86C70.8998 269.86 69.7884 270.129 68.7592 270.439C67.6663 270.768 66.4102 271.226 65.0754 271.753C62.4049 272.809 59.2606 274.207 56.2047 275.579C55.8379 275.744 55.4725 275.908 55.1091 276.071L55.0514 276.097C52.3817 277.297 49.8283 278.445 47.6921 279.332C46.471 279.839 45.4296 280.242 44.6095 280.515C43.7936 280.786 43.4259 280.847 43.3631 280.858L43.3563 280.859L43.3537 280.86L43.3493 280.859C43.3049 280.852 42.9229 280.795 42.0373 280.508C41.1884 280.234 40.1095 279.829 38.8495 279.322C36.3319 278.309 33.2472 276.952 30.1105 275.571L30.0822 275.559L30.0812 275.559L30.0801 275.558C26.9766 274.193 23.8234 272.805 21.2245 271.759C19.922 271.235 18.7197 270.781 17.7091 270.454C16.8026 270.16 15.735 269.86 14.8536 269.86V274.86L14.858 274.86C14.9024 274.867 15.2844 274.924 16.17 275.211C17.0189 275.486 18.0978 275.891 19.3578 276.398C21.8754 277.411 24.9601 278.768 28.0968 280.148L28.1248 280.16L28.1266 280.161L28.1288 280.162L28.1307 280.163L28.133 280.164C31.2346 281.529 34.3855 282.915 36.9828 283.96C38.2853 284.484 39.4876 284.939 40.4982 285.266C41.4046 285.559 42.4723 285.86 43.3536 285.86C44.2441 285.86 45.3006 285.554 46.1876 285.259C47.1761 284.93 48.3456 284.474 49.609 283.95C51.818 283.033 54.4464 281.851 57.1052 280.656L58.2526 280.14C61.3217 278.762 64.3649 277.411 66.9131 276.403C68.1877 275.9 69.2988 275.498 70.202 275.226C71.1689 274.935 71.6825 274.86 71.8536 274.86V269.86ZM71.8536 225.86C70.8998 225.86 69.7884 226.129 68.7592 226.439C67.6663 226.768 66.4102 227.226 65.0754 227.753C62.4049 228.809 59.2606 230.207 56.2047 231.579L55.0514 232.097C52.3817 233.297 49.8283 234.445 47.6921 235.332C46.471 235.839 45.4296 236.242 44.6095 236.515C43.7936 236.786 43.4259 236.847 43.3631 236.858C43.3549 236.859 43.3537 236.86 43.3537 236.86L43.3493 236.859C43.3049 236.852 42.9229 236.795 42.0373 236.508C41.1884 236.234 40.1095 235.829 38.8495 235.322C36.3319 234.309 33.2472 232.952 30.1105 231.571L30.0822 231.559L30.0812 231.559L30.0801 231.558C26.9766 230.193 23.8234 228.805 21.2245 227.759C19.922 227.235 18.7197 226.781 17.7091 226.454C16.8026 226.16 15.735 225.86 14.8536 225.86V230.86L14.858 230.86C14.9024 230.867 15.2844 230.924 16.17 231.211C17.0189 231.486 18.0978 231.891 19.3578 232.398C21.8754 233.411 24.9601 234.768 28.0968 236.148L28.1248 236.16L28.1259 236.161L28.1271 236.161C31.2306 237.527 34.3839 238.914 36.9828 239.96C38.2853 240.484 39.4876 240.939 40.4982 241.266C41.4046 241.559 42.4723 241.86 43.3536 241.86C44.2441 241.86 45.3006 241.554 46.1876 241.259C47.1761 240.93 48.3456 240.474 49.609 239.95C51.818 239.033 54.4464 237.851 57.1052 236.656C57.4875 236.484 57.8703 236.312 58.2526 236.14C61.3217 234.762 64.3649 233.411 66.9131 232.403C68.1877 231.9 69.2988 231.498 70.202 231.226C71.1689 230.935 71.6825 230.86 71.8536 230.86V225.86ZM71.8536 329.86C70.8998 329.86 69.7884 330.129 68.7592 330.439C67.6663 330.768 66.4102 331.226 65.0754 331.753C62.4049 332.809 59.2606 334.207 56.2047 335.579C55.8379 335.744 55.4725 335.908 55.1091 336.071L55.0514 336.097C52.3817 337.297 49.8283 338.445 47.6921 339.332C46.471 339.839 45.4296 340.242 44.6095 340.515C43.7936 340.786 43.4259 340.847 43.3631 340.858C43.3549 340.859 43.3537 340.86 43.3537 340.86L43.3493 340.859C43.3049 340.852 42.9229 340.795 42.0373 340.508C41.1884 340.234 40.1095 339.829 38.8495 339.322C36.3319 338.309 33.2472 336.952 30.1105 335.571L30.0822 335.559C26.978 334.193 23.824 332.805 21.2245 331.759C19.922 331.235 18.7197 330.781 17.7091 330.454C16.8026 330.16 15.735 329.86 14.8536 329.86V334.86L14.858 334.86C14.9024 334.867 15.2844 334.924 16.17 335.211C17.0189 335.486 18.0978 335.891 19.3578 336.398C21.8754 337.411 24.9601 338.768 28.0968 340.148L28.1248 340.16L28.1266 340.161L28.1288 340.162L28.1307 340.163L28.133 340.164C31.2346 341.529 34.3855 342.915 36.9828 343.96C38.2853 344.484 39.4876 344.939 40.4982 345.266C41.4046 345.559 42.4723 345.86 43.3536 345.86C44.2441 345.86 45.3006 345.554 46.1876 345.259C47.1761 344.93 48.3456 344.474 49.609 343.95C51.818 343.033 54.4464 341.851 57.1052 340.656C57.4875 340.484 57.8703 340.312 58.2526 340.14C61.3217 338.762 64.3649 337.411 66.9131 336.403C68.1877 335.9 69.2988 335.498 70.202 335.226C71.1689 334.935 71.6825 334.86 71.8536 334.86V329.86ZM71.8536 284.86C70.8998 284.86 69.7884 285.129 68.7592 285.439C67.6663 285.768 66.4102 286.226 65.0754 286.753C62.4049 287.809 59.2606 289.207 56.2047 290.579C55.8379 290.744 55.4725 290.908 55.1091 291.071L55.0514 291.097C52.3817 292.297 49.8283 293.445 47.6921 294.332C46.471 294.839 45.4296 295.242 44.6095 295.515C43.7936 295.786 43.4259 295.847 43.3631 295.858L43.3555 295.859L43.3537 295.86L43.3493 295.859C43.3049 295.852 42.9229 295.795 42.0373 295.508C41.1884 295.234 40.1095 294.829 38.8495 294.322C36.3319 293.309 33.2472 291.952 30.1105 290.571L30.0822 290.559C26.978 289.193 23.824 287.805 21.2245 286.759C19.922 286.235 18.7197 285.781 17.7091 285.454C16.8026 285.16 15.735 284.86 14.8536 284.86V289.86L14.858 289.86C14.9024 289.867 15.2844 289.924 16.17 290.211C17.0189 290.486 18.0978 290.891 19.3578 291.398C21.8754 292.411 24.9601 293.768 28.0968 295.148L28.1248 295.16L28.1266 295.161L28.1288 295.162L28.1307 295.163L28.133 295.164C31.2346 296.529 34.3855 297.915 36.9828 298.96C38.2853 299.484 39.4876 299.939 40.4982 300.266C41.4046 300.559 42.4723 300.86 43.3536 300.86C44.2441 300.86 45.3006 300.554 46.1876 300.259C47.1761 299.93 48.3456 299.474 49.609 298.95C51.818 298.033 54.4464 296.851 57.1052 295.656L57.1402 295.64C57.5108 295.474 57.882 295.307 58.2526 295.14C61.3217 293.762 64.3649 292.411 66.9131 291.403C68.1877 290.9 69.2988 290.498 70.202 290.226C71.1689 289.935 71.6825 289.86 71.8536 289.86V284.86ZM71.8536 240.86C70.8998 240.86 69.7884 241.129 68.7592 241.439C67.6663 241.768 66.4102 242.226 65.0754 242.753C62.4049 243.809 59.2606 245.207 56.2047 246.579L55.0514 247.097C52.3817 248.297 49.8283 249.445 47.6921 250.332C46.471 250.839 45.4296 251.242 44.6095 251.515C43.7936 251.786 43.4259 251.847 43.3631 251.858C43.3549 251.859 43.3537 251.86 43.3537 251.86L43.3493 251.859C43.3049 251.852 42.9229 251.795 42.0373 251.508C41.1884 251.234 40.1095 250.829 38.8495 250.322C36.3319 249.309 33.2472 247.952 30.1105 246.571L30.0822 246.559L30.0812 246.559L30.0801 246.558C26.9766 245.193 23.8234 243.805 21.2245 242.759C19.922 242.235 18.7197 241.781 17.7091 241.454C16.8026 241.16 15.735 240.86 14.8536 240.86V245.86L14.858 245.86C14.9024 245.867 15.2844 245.924 16.17 246.211C17.0189 246.486 18.0978 246.891 19.3578 247.398C21.8754 248.411 24.9601 249.768 28.0968 251.148L28.1248 251.16L28.1259 251.161L28.1271 251.161C31.2306 252.527 34.3839 253.914 36.9828 254.96C38.2853 255.484 39.4876 255.939 40.4982 256.266C41.4046 256.559 42.4723 256.86 43.3536 256.86C44.2441 256.86 45.3006 256.554 46.1876 256.259C47.1761 255.93 48.3456 255.474 49.609 254.95C51.818 254.033 54.4464 252.851 57.1052 251.656L57.2039 251.612C57.5533 251.455 57.9032 251.297 58.2526 251.14C61.3217 249.762 64.3649 248.411 66.9131 247.403C68.1877 246.9 69.2988 246.498 70.202 246.226C71.1689 245.935 71.6825 245.86 71.8536 245.86V240.86ZM71.8536 254.86C70.8998 254.86 69.7884 255.129 68.7592 255.439C67.6663 255.768 66.4102 256.226 65.0754 256.753C62.4049 257.809 59.2606 259.207 56.2047 260.579C55.8379 260.744 55.4725 260.908 55.1091 261.071L55.0514 261.097C52.3817 262.297 49.8283 263.445 47.6921 264.332C46.471 264.839 45.4296 265.242 44.6095 265.515C43.7936 265.786 43.4259 265.847 43.3631 265.858C43.3549 265.859 43.3537 265.86 43.3537 265.86L43.3493 265.859C43.3049 265.852 42.9229 265.795 42.0373 265.508C41.1884 265.234 40.1095 264.829 38.8495 264.322C36.3319 263.309 33.2472 261.952 30.1105 260.571L30.0822 260.559L30.0812 260.559L30.0801 260.558C26.9766 259.193 23.8234 257.805 21.2245 256.759C19.922 256.235 18.7197 255.781 17.7091 255.454C16.8026 255.16 15.735 254.86 14.8536 254.86V259.86L14.858 259.86C14.9024 259.867 15.2844 259.924 16.17 260.211C17.0189 260.486 18.0978 260.891 19.3578 261.398C21.8754 262.411 24.9601 263.768 28.0968 265.148L28.1248 265.16L28.1259 265.161L28.1271 265.161C31.2306 266.527 34.3839 267.914 36.9828 268.96C38.2853 269.484 39.4876 269.939 40.4982 270.266C41.4046 270.559 42.4723 270.86 43.3536 270.86C44.2441 270.86 45.3006 270.554 46.1876 270.259C47.1761 269.93 48.3456 269.474 49.609 268.95C51.818 268.033 54.4464 266.851 57.1052 265.656L57.138 265.641C57.5093 265.474 57.8812 265.307 58.2526 265.14C61.3217 263.762 64.3649 262.411 66.9131 261.403C68.1877 260.9 69.2988 260.498 70.202 260.226C71.1689 259.935 71.6825 259.86 71.8536 259.86V254.86ZM71.8536 299.86C70.8998 299.86 69.7884 300.129 68.7592 300.439C67.6663 300.768 66.4102 301.226 65.0754 301.753C62.4049 302.809 59.2606 304.207 56.2047 305.579C55.8379 305.744 55.4725 305.908 55.1091 306.071L55.0514 306.097C52.3817 307.297 49.8283 308.445 47.6921 309.332C46.471 309.839 45.4296 310.242 44.6095 310.515C43.7936 310.786 43.4259 310.847 43.3631 310.858C43.3549 310.859 43.3537 310.86 43.3537 310.86L43.3493 310.859C43.3049 310.852 42.9229 310.795 42.0373 310.508C41.1884 310.234 40.1095 309.829 38.8495 309.322C36.3319 308.309 33.2472 306.952 30.1105 305.571L30.0822 305.559C26.978 304.193 23.824 302.805 21.2245 301.759C19.922 301.235 18.7197 300.781 17.7091 300.454C16.8026 300.16 15.735 299.86 14.8536 299.86V304.86L14.858 304.86C14.9024 304.867 15.2844 304.924 16.17 305.211C17.0189 305.486 18.0978 305.891 19.3578 306.398C21.8754 307.411 24.9601 308.768 28.0968 310.148L28.1248 310.16L28.1266 310.161L28.1288 310.162L28.1307 310.163L28.133 310.164C31.2346 311.529 34.3855 312.915 36.9828 313.96C38.2853 314.484 39.4876 314.939 40.4982 315.266C41.4046 315.559 42.4723 315.86 43.3536 315.86C44.2441 315.86 45.3006 315.554 46.1876 315.259C47.1761 314.93 48.3456 314.474 49.609 313.95C51.818 313.033 54.4464 311.851 57.1052 310.656C57.4875 310.484 57.8703 310.312 58.2526 310.14C61.3217 308.762 64.3649 307.411 66.9131 306.403C68.1877 305.9 69.2988 305.498 70.202 305.226C71.1689 304.935 71.6825 304.86 71.8536 304.86V299.86ZM29.383 201.4V207H28.1529V201.4H26.0001V200H31.5182V201.4H29.383ZM37.3527 205.6V207H32.1333V200H37.3527V201.4H33.3635V202.81H37.0452V204.21H33.3635V205.6H37.3527ZM39.3737 201.4V203.51H42.4402V201.4H39.3737ZM39.3737 204.91V207H38.1435V200H43.0553L43.6616 200.71V204.21L43.0553 204.91H39.3737ZM45.6826 202.28V207H44.4524V200H45.6826L47.8266 203.39L50.0057 200H51.1919V207H49.9618V202.28L48.3538 204.97H47.3257L45.6826 202.28ZM53.3007 201.4V205.6H56.3673V201.4H53.3007ZM57.5887 206.31L56.9824 207H52.6769L52.0706 206.31V200.71L52.6769 200H56.9824L57.5887 200.71V206.31ZM59.6975 204.21V205.6H62.7641V204.21H59.6975ZM63.9855 206.31L63.3792 207H58.4674V200H63.6867V201.4H59.6975V202.81H63.3792L63.9855 203.51V206.31ZM65.9186 202.8V207H64.6884V202.1L66.5249 200H70.2066V207H68.9852V201.4H67.14L65.9186 202.8ZM72.3154 201.4V205.6H75.382V201.4H72.3154ZM76.6033 206.31L75.9971 207H71.6915L71.0852 206.31V200.71L71.6915 200H75.9971L76.6033 200.71V206.31ZM78.7122 204.21V207H77.482V200H78.7122V202.81H80.5486L81.7788 201.41V200H83.0001V202.11L81.7788 203.51L83.0001 204.91V207H81.7788V205.6L80.5486 204.21H78.7122ZM23.9054 204.061C23.8971 204.031 23.8879 204.001 23.8777 203.972C23.0298 204.373 21.651 204.793 19.455 205.33C19.3239 205.363 19.1214 205.408 18.864 205.466C16.8761 205.915 11.6198 207.102 10.7963 208.444C10.8223 208.47 10.848 208.497 10.8735 208.523C10.8678 208.532 10.8623 208.541 10.857 208.551C10.5195 209.14 11.2439 209.357 11.8001 209.478C11.8656 209.546 11.9298 209.612 11.993 209.678C11.0615 209.554 9.25186 209.273 9.05066 208.691C9.8601 208.771 10.6007 208.751 10.6007 208.751C10.6007 208.751 9.67936 208.711 9.07419 208.415C9.0846 208.393 9.09703 208.371 9.11156 208.349C9.45789 207.82 10.9357 207.127 14.5731 206.236C15.6494 205.972 16.9148 205.691 18.3959 205.392C19.7843 205.112 22.2335 204.478 23.1072 203.253C23.1321 203.218 23.1534 203.183 23.1712 203.15C23.3066 202.893 23.2378 202.679 23.071 202.504C22.6576 202.071 21.6417 201.877 21.6417 201.877C21.6417 201.877 25.6215 202.275 24.9166 203.351C24.7791 203.561 24.4635 203.797 23.9054 204.061ZM9.07419 208.415C8.98284 208.37 8.89869 208.319 8.82601 208.262C8.60245 208.086 8.48733 207.847 8.60453 207.523C8.61985 207.481 8.63918 207.437 8.66272 207.392C9.48761 205.808 12.2525 204.645 13.8326 204.079C15.5182 203.474 16.9544 202.928 18.1719 202.435C22.2864 200.768 22.8033 200.26 23.1233 199.581C23.7744 198.2 19.051 198.418 19.051 198.418C19.051 198.418 20.2714 198.47 20.8256 198.906C21.0492 199.083 21.1751 199.326 21.0471 199.645C20.949 199.89 20.7611 200.136 20.5052 200.382L16.6163 196.375C16.3733 196.125 16.0533 196 15.7332 196C15.4128 196 15.0927 196.125 14.85 196.375L7.84756 203.59C7.36168 204.09 7.36168 204.909 7.84756 205.41L8.53343 206.117C7.61492 206.691 7.23723 207.127 7.06897 207.484C6.6918 208.284 7.93644 208.582 9.05066 208.691C9.02106 208.606 9.02626 208.514 9.07419 208.415ZM11.993 209.678C12.2256 209.918 12.4449 210.144 12.6665 210.373L12.6685 210.375L12.6761 210.383C13.2766 211.003 13.8962 211.643 14.8493 212.624C15.3347 213.125 16.1298 213.125 16.6155 212.624L23.6182 205.41C23.9482 205.07 24.0275 204.505 23.9054 204.061C23.0573 204.462 21.6491 204.927 19.4553 205.465C19.3152 205.499 19.0947 205.548 18.8138 205.611C16.8024 206.058 11.6957 207.195 10.8735 208.523C11.2218 208.882 11.5227 209.192 11.8001 209.478L11.993 209.678ZM20.5052 200.382L20.5956 200.475C19.1366 201.875 15.4184 203.226 13.5229 203.915L13.5219 203.915C13.1199 204.061 12.8 204.178 12.6011 204.258C11.0053 204.905 9.89222 205.524 9.00445 206.018C8.87731 206.089 8.75478 206.157 8.63613 206.222L8.53343 206.117C9.36173 205.598 10.6298 204.966 12.5807 204.176C12.7711 204.099 13.0704 203.988 13.4451 203.851C15.3076 203.165 19.0329 201.795 20.5052 200.382Z" fill="#ABABAB"/>
</svg>
