<svg width="781" height="781" viewBox="0 0 781 781" fill="none" xmlns="http://www.w3.org/2000/svg">
<path d="M30.3812 338.68L338.68 30.3812C367.188 1.87294 413.409 1.87293 441.917 30.3812L572.112 160.576L578.476 154.212L448.281 24.0172C416.258 -8.00574 364.339 -8.00575 332.316 24.0172L24.0172 332.316C-8.00574 364.339 -8.00575 416.258 24.0172 448.281L154.212 578.476L160.576 572.112L30.3812 441.917C1.87293 413.409 1.87293 367.188 30.3812 338.68Z" fill="#E7441C"/>
<path d="M188.311 599.848L181.947 606.211L332.316 756.58C364.339 788.603 416.258 788.603 448.281 756.58L756.58 448.281C788.603 416.258 788.603 364.339 756.58 332.316L606.211 181.947L599.848 188.311L750.216 338.68C778.724 367.188 778.724 413.409 750.216 441.917L441.917 750.216C413.409 778.724 367.188 778.724 338.68 750.216L188.311 599.848Z" fill="#E7441C"/>
</svg>
