<svg width="242" height="62" viewBox="0 0 242 62" fill="none" xmlns="http://www.w3.org/2000/svg">
<path fill-rule="evenodd" clip-rule="evenodd" d="M145.494 8.59351H241.311V52.4883H145.494V8.59351Z" fill="#009EE0"/>
<path fill-rule="evenodd" clip-rule="evenodd" d="M0 8.59351H104.482V52.4883H0V8.59351Z" fill="#E30016"/>
<path fill-rule="evenodd" clip-rule="evenodd" d="M121.912 0C138.45 0 151.862 13.4118 151.862 29.95C151.862 46.4882 138.45 59.9 121.912 59.9C105.374 59.9 91.9619 46.4882 91.9619 29.95C91.9619 13.4118 105.374 0 121.912 0Z" fill="#E30016"/>
<path fill-rule="evenodd" clip-rule="evenodd" d="M125.162 1.18152C141.7 1.18152 155.112 14.5936 155.112 31.1318C155.112 47.67 141.7 61.0818 125.162 61.0818C108.624 61.0818 95.2114 47.67 95.2114 31.1318C95.2114 14.5936 108.624 1.18152 125.162 1.18152Z" fill="white"/>
<path fill-rule="evenodd" clip-rule="evenodd" d="M122.358 8.39111C134.353 8.39111 144.08 18.1182 144.08 30.1124C144.08 42.1067 134.353 51.8335 122.358 51.8335C110.364 51.8335 100.637 42.1067 100.637 30.1124C100.637 18.1182 110.364 8.39111 122.358 8.39111Z" fill="#E30016"/>
<path fill-rule="evenodd" clip-rule="evenodd" d="M124.715 9.24805C136.71 9.24805 146.436 18.9752 146.436 30.9695C146.436 42.9637 136.71 52.6907 124.715 52.6907C112.721 52.6907 102.994 42.9637 102.994 30.9695C102.994 18.9752 112.721 9.24805 124.715 9.24805Z" fill="white"/>
<path fill-rule="evenodd" clip-rule="evenodd" d="M122.8 16.6779C130.306 16.6779 136.394 22.7659 136.394 30.2726C136.394 37.7796 130.306 43.8676 122.8 43.8676C115.293 43.8676 109.205 37.7796 109.205 30.2726C109.205 22.7659 115.293 16.6779 122.8 16.6779Z" fill="#E30016"/>
<path fill-rule="evenodd" clip-rule="evenodd" d="M124.275 17.2141C131.781 17.2141 137.869 23.3021 137.869 30.8091C137.869 38.3158 131.781 44.4038 124.275 44.4038C116.768 44.4038 110.68 38.3158 110.68 30.8091C110.68 23.3021 116.768 17.2141 124.275 17.2141Z" fill="white"/>
<path fill-rule="evenodd" clip-rule="evenodd" d="M126.273 61.0819C122.066 61.0819 118.063 60.2129 114.43 58.6467C117.152 59.461 120.036 59.9002 123.023 59.9002C139.561 59.9002 152.973 46.4882 152.973 29.95C152.973 17.6201 145.517 7.0295 134.87 2.4375C147.218 6.1336 156.223 17.5821 156.223 31.1317C156.223 47.6699 142.811 61.0819 126.273 61.0819Z" fill="#009EE0"/>
<path fill-rule="evenodd" clip-rule="evenodd" d="M125.826 52.6906C122.776 52.6906 119.873 52.0604 117.238 50.925C119.212 51.5157 121.303 51.8337 123.469 51.8337C135.463 51.8337 145.19 42.1066 145.19 30.1125C145.19 21.1691 139.781 13.4879 132.058 10.1581C141.016 12.838 147.547 21.1417 147.547 30.9693C147.547 42.9637 137.82 52.6906 125.826 52.6906Z" fill="#009EE0"/>
<path fill-rule="evenodd" clip-rule="evenodd" d="M125.385 44.4039C123.476 44.4039 121.66 44.0097 120.011 43.2993C121.247 43.6689 122.555 43.8675 123.91 43.8675C131.417 43.8675 137.505 37.7795 137.505 30.2727C137.505 24.6767 134.121 19.8698 129.289 17.7849C134.893 19.4633 138.98 24.6594 138.98 30.8091C138.98 38.3159 132.892 44.4039 125.385 44.4039Z" fill="#009EE0"/>
<path fill-rule="evenodd" clip-rule="evenodd" d="M7.60156 19.6931V22.3861H13.2692V41.6804H16.2439V22.3861H21.9115V19.6931H7.60156ZM45.244 31.752C45.2843 26.0841 42.2693 19.1704 33.9488 19.1704C26.4721 19.1704 22.4929 25.2802 22.4929 30.7069C22.4929 37.2991 27.477 42.2096 33.9488 42.2096C38.9332 42.2096 42.9528 39.2686 44.7213 34.5254H41.6262C40.2596 37.5404 37.4057 39.5099 33.9488 39.5099C29.3261 39.5099 25.9497 36.1332 25.588 31.752H45.244ZM25.588 29.0588C26.3114 24.8783 29.728 21.8636 33.9488 21.8636C37.7674 21.8636 41.1842 24.5971 42.0284 29.0588H25.588ZM47.8751 19.6931V41.6804H50.8495V22.3861H63.1496V41.6804H66.1243V19.6931H47.8751ZM81.0955 19.6931H78.0006L68.5944 41.6804H71.8103L79.5279 23.4714L87.2455 41.6804H90.4614L81.0955 19.6931Z" fill="white"/>
<path fill-rule="evenodd" clip-rule="evenodd" d="M165.894 41.1429H169.391L175.22 32.3398L181.048 41.1429H184.545L176.988 29.9684L184.545 19.1556H181.048L175.22 27.6368L169.391 19.1556H165.894L173.411 29.9684L165.894 41.1429ZM188.605 19.1556V41.1429H191.58L204.684 23.3762V41.1429H207.658V19.1556H204.684L191.58 36.9224V19.1556H188.605ZM211.477 19.1556V21.8485H217.144V41.1429H220.119V21.8485H225.787V19.1556H211.477Z" fill="white"/>
</svg>
