<svg width="516" height="80" viewBox="0 0 516 80" fill="none" xmlns="http://www.w3.org/2000/svg">
<path d="M312.091 49.6932H313.548V45.0227H318.219V43.5739H313.548V38.9034H312.091V43.5739H307.42V45.0227H312.091V49.6932ZM321.7 53H323.379L331.322 37.0455V35.5455H320.49V36.9773H329.651V37.0881L321.7 53ZM340.481 44.2727C340.481 48.3551 341.555 51.9858 343.481 55.1818H344.861C343.208 52.5142 342.049 48.2017 342.049 44.2727C342.049 40.3523 343.199 36.0398 344.861 33.3636H343.481C341.555 36.5426 340.481 40.1818 340.481 44.2727ZM352.938 53.2386C356.211 53.2386 358.597 51.125 358.597 48.3295C358.597 46.1136 357.234 44.4858 355.009 44.0426V43.9318C356.842 43.3864 358.001 41.9034 358.001 39.9091C358.001 37.4119 356.041 35.3068 352.972 35.3068C350.049 35.3068 347.714 37.1818 347.646 39.9091H349.188C349.239 37.9574 350.927 36.7131 352.955 36.7131C355.06 36.7131 356.45 38.0511 356.45 39.9773C356.45 42.0142 354.822 43.3182 352.563 43.3182H351.541V44.75H352.563C355.325 44.75 357.029 46.2074 357.029 48.3295C357.029 50.3409 355.333 51.8068 352.921 51.8068C350.697 51.8068 348.958 50.5455 348.873 48.6364H347.262C347.347 51.3551 349.7 53.2386 352.938 53.2386ZM366.919 53.2386C370.243 53.2386 372.672 51.1761 372.681 48.4062C372.672 46.2415 371.181 44.3409 369.203 43.9574V43.8636C370.908 43.3778 372.05 41.75 372.059 39.875C372.05 37.267 369.826 35.3068 366.919 35.3068C363.987 35.3068 361.772 37.2756 361.789 39.875C361.772 41.75 362.922 43.3693 364.635 43.8636V43.9574C362.641 44.3494 361.149 46.2415 361.158 48.4062C361.149 51.1761 363.578 53.2386 366.919 53.2386ZM366.919 51.8068C364.422 51.8068 362.718 50.3494 362.726 48.3295C362.718 46.2415 364.516 44.6733 366.919 44.6733C369.306 44.6733 371.104 46.2415 371.112 48.3295C371.104 50.3494 369.408 51.8068 366.919 51.8068ZM366.919 43.3097C364.865 43.3097 363.323 41.8949 363.331 39.9688C363.323 38.0597 364.831 36.7131 366.919 36.7131C368.99 36.7131 370.499 38.0597 370.516 39.9688C370.499 41.8949 368.956 43.3097 366.919 43.3097ZM380.485 53.2386C383.706 53.2386 386.042 50.7926 386.05 47.4858C386.059 44.1108 383.681 41.7159 380.604 41.7159C379.36 41.7159 378.201 42.1676 377.434 42.8153H377.348L378.047 36.9773H385.334V35.5455H376.709L375.661 44.0256L377.255 44.2301C378.005 43.608 379.206 43.1648 380.383 43.1733C382.701 43.1818 384.499 44.9545 384.508 47.5114C384.508 49.9744 382.829 51.8068 380.485 51.8068C378.473 51.8068 376.982 50.4858 376.88 48.6364H375.337C375.414 51.304 377.579 53.2386 380.485 53.2386ZM388.837 53H399.686V51.5682H391.053V51.4574L395.382 46.625C398.28 43.4205 399.141 41.9716 399.141 40.0369C399.141 37.3778 397.044 35.3068 394.121 35.3068C391.172 35.3068 388.982 37.3864 388.982 40.2756H390.507C390.507 38.2045 391.922 36.7131 394.078 36.7131C396.107 36.7131 397.641 38.0426 397.641 40.0369C397.641 41.6903 396.763 42.9176 394.538 45.4233L388.837 51.8324V53ZM406.387 44.2727C406.387 40.1903 405.313 36.5597 403.387 33.3636H402.006C403.659 36.0312 404.818 40.3438 404.818 44.2727C404.818 48.1932 403.668 52.5057 402.006 55.1818H403.387C405.313 52.0028 406.387 48.3636 406.387 44.2727ZM416.538 53H418.217L426.16 37.0455V35.5455H415.328V36.9773H424.49V37.0881L416.538 53ZM429.69 53H431.369L439.313 37.0455V35.5455H428.48V36.9773H437.642V37.0881L429.69 53ZM448.996 43.5568H441.735V44.9886H448.996V43.5568ZM451.086 53H461.935V51.5682H453.302V51.4574L457.631 46.625C460.529 43.4205 461.39 41.9716 461.39 40.0369C461.39 37.3778 459.293 35.3068 456.37 35.3068C453.421 35.3068 451.231 37.3864 451.231 40.2756H452.756C452.756 38.2045 454.171 36.7131 456.327 36.7131C458.356 36.7131 459.89 38.0426 459.89 40.0369C459.89 41.6903 459.012 42.9176 456.787 45.4233L451.086 51.8324V53ZM469.999 53.2386C473.221 53.2386 475.556 50.7926 475.565 47.4858C475.573 44.1108 473.195 41.7159 470.119 41.7159C468.874 41.7159 467.715 42.1676 466.948 42.8153H466.863L467.562 36.9773H474.849V35.5455H466.224L465.175 44.0256L466.769 44.2301C467.519 43.608 468.721 43.1648 469.897 43.1733C472.215 43.1818 474.013 44.9545 474.022 47.5114C474.022 49.9744 472.343 51.8068 469.999 51.8068C467.988 51.8068 466.496 50.4858 466.394 48.6364H464.852C464.928 51.304 467.093 53.2386 469.999 53.2386ZM485.476 43.5568H478.215V44.9886H485.476V43.5568ZM493.883 53.2386C497.216 53.2642 499.406 50.6392 499.406 47.5114C499.406 44.2301 496.985 41.8267 494.079 41.8267C492.204 41.8267 490.551 42.8324 489.724 44.375H489.613C489.622 39.5 491.258 36.7386 494.122 36.7386C496.116 36.7386 497.326 38.0682 497.65 39.9091H499.218C498.877 37.1903 496.943 35.3068 494.122 35.3068C490.108 35.3068 488.113 39.321 488.113 44.9972C488.113 51.1335 490.985 53.2131 493.883 53.2386ZM493.883 51.8068C491.71 51.8068 490.099 50.0256 489.912 47.6136C489.741 45.3125 491.556 43.2585 493.883 43.2585C496.15 43.2585 497.863 45.1506 497.863 47.5114C497.863 49.8892 496.15 51.8068 493.883 51.8068ZM507.839 53.2386C511.111 53.2386 513.498 51.125 513.498 48.3295C513.498 46.1136 512.134 44.4858 509.91 44.0426V43.9318C511.742 43.3864 512.901 41.9034 512.901 39.9091C512.901 37.4119 510.941 35.3068 507.873 35.3068C504.949 35.3068 502.614 37.1818 502.546 39.9091H504.089C504.14 37.9574 505.827 36.7131 507.856 36.7131C509.961 36.7131 511.35 38.0511 511.35 39.9773C511.35 42.0142 509.722 43.3182 507.464 43.3182H506.441V44.75H507.464C510.225 44.75 511.93 46.2074 511.93 48.3295C511.93 50.3409 510.233 51.8068 507.822 51.8068C505.597 51.8068 503.858 50.5455 503.773 48.6364H502.162C502.248 51.3551 504.6 53.2386 507.839 53.2386Z" fill="#3D3D3D"/>
<g clip-path="url(#clip0)">
<path d="M80.8267 27.2367C81.878 26.1851 82.0763 24.3931 81.6008 23.0747C79.0722 24.236 74.9603 25.45 68.4113 27.0069C65 27.8178 45.3626 31.6331 42.5889 36.0177C47.408 40.8368 49.189 42.6327 54.6758 48.1193C56.1235 49.5688 58.4948 49.5688 59.9431 48.1193L80.8267 27.2367Z" fill="url(#paint0_linear)"/>
<path d="M71.8104 12.9532L59.9432 1.08639C59.2186 0.36196 58.2642 0 57.3096 0C56.3543 0 55.3997 0.36196 54.6759 1.08639L33.7928 21.969C32.3438 23.4179 32.3438 25.7886 33.7928 27.2368L36.1445 29.589C38.9692 28.0799 42.5282 26.0435 47.969 23.9038C51.358 22.5708 66.5355 17.8653 71.8104 12.9532Z" fill="url(#paint1_linear)"/>
<path d="M67.205 6.99818C67.205 6.99818 70.8448 7.14827 72.4975 8.41257C73.1644 8.92263 73.5399 9.62675 73.1581 10.5502C70.8418 16.1546 51.7888 22.139 47.9093 23.6647C35.6395 28.4903 32.4262 31.2744 31.4719 33.2396C29.53 37.2385 42.0044 36.9067 42.0044 36.9067C42.0044 36.9067 38.3646 36.7566 36.7118 35.4923C36.0451 34.9822 35.7018 34.2908 36.0513 33.3546C36.097 33.2323 36.1546 33.1057 36.2248 32.9748C38.6849 28.389 46.9303 25.023 51.6426 23.384C56.6697 21.6348 60.9526 20.0543 64.5834 18.6264C76.8538 13.8007 78.3954 12.3315 79.3496 10.3663C81.2913 6.36747 67.205 6.99818 67.205 6.99818V6.99818Z" fill="url(#paint2_linear)"/>
<path d="M45.5826 39.0135C43.9239 38.663 41.7624 38.0343 42.7692 36.3279C45.3762 31.9119 64.9814 28.2105 68.4113 27.3954C79.2581 24.8165 83.6651 22.81 84.6982 21.2784C86.8003 18.1618 74.9318 17.0122 74.9318 17.0122C74.9318 17.0122 77.9613 17.5714 79.1944 18.8266C79.6918 19.3333 79.8969 19.9527 79.4929 20.6952C79.44 20.7921 79.3764 20.8913 79.3023 20.9925C76.6966 24.5386 69.3925 26.3747 65.2521 27.1857C60.8351 28.0512 57.0614 28.8648 53.8515 29.6277C43.0039 32.2063 38.5967 34.2129 37.5639 35.7445C35.9654 38.1147 42.8831 39.1674 46.158 39.5897L45.5826 39.0135Z" fill="url(#paint3_linear)"/>
<path fill-rule="evenodd" clip-rule="evenodd" d="M2.38393 78.28V75.017H0.553543V78.28H0.074707V74.5805H2.86285V78.28H2.38393ZM4.15562 78.28V74.5805H5.86363C6.04098 74.5805 6.19706 74.6098 6.33186 74.6683C6.46666 74.7269 6.57842 74.8067 6.6671 74.9079C6.75574 75.009 6.82232 75.1305 6.86662 75.2725C6.91094 75.4145 6.93316 75.5671 6.93316 75.7303C6.93316 75.8971 6.91274 76.0506 6.8719 76.1908C6.83118 76.3309 6.76728 76.4525 6.68038 76.5554C6.59344 76.6583 6.4826 76.739 6.34782 76.7976C6.21302 76.8561 6.0516 76.8854 5.86363 76.8854H4.63447V78.28H4.15562ZM4.63447 75.017V76.4436H5.77848C6.0197 76.4436 6.1926 76.3771 6.29724 76.244C6.40192 76.1109 6.45424 75.9397 6.45424 75.7303C6.45424 75.5245 6.39664 75.3541 6.28134 75.2193C6.16604 75.0844 5.99846 75.017 5.77848 75.017H4.63447ZM9.55078 78.3439C9.24216 78.3439 8.9779 78.2943 8.75796 78.1949C8.53802 78.0955 8.35886 77.9598 8.22054 77.7877C8.0822 77.6155 7.98025 77.4124 7.91459 77.1782C7.84899 76.9439 7.81615 76.6938 7.81615 76.4276V76.2839C7.81615 76.0319 7.85607 75.7977 7.93587 75.5813C8.01573 75.3648 8.1301 75.1776 8.27912 75.0196C8.42806 74.8618 8.6099 74.7384 8.8245 74.6497C9.0391 74.561 9.2812 74.5166 9.55078 74.5166C9.82037 74.5166 10.0625 74.561 10.2771 74.6497C10.4917 74.7384 10.6735 74.8618 10.8224 75.0196C10.9714 75.1776 11.0858 75.3648 11.1657 75.5813C11.2455 75.7977 11.2854 76.0319 11.2854 76.2839V76.4276C11.2854 76.6938 11.2526 76.9439 11.187 77.1782C11.1213 77.4124 11.0193 77.6155 10.881 77.7877C10.7427 77.9598 10.5635 78.0955 10.3437 78.1949C10.1237 78.2943 9.85939 78.3439 9.55078 78.3439ZM9.55078 74.9531C9.35214 74.9531 9.17656 74.9886 9.02402 75.0596C8.87148 75.1305 8.74288 75.2272 8.6382 75.3479C8.53362 75.4686 8.45382 75.6105 8.39882 75.7746C8.34378 75.9379 8.31634 76.11 8.31634 76.2919V76.4143C8.31634 76.6166 8.34024 76.8082 8.38816 76.9874C8.43606 77.1667 8.50966 77.3255 8.60902 77.4621C8.70832 77.5987 8.8351 77.7078 8.98944 77.7877C9.14374 77.8675 9.3273 77.9075 9.54012 77.9075C9.7601 77.9075 9.94895 77.8693 10.1068 77.793C10.2647 77.7167 10.3942 77.6111 10.4953 77.478C10.5963 77.345 10.6699 77.188 10.7161 77.0061C10.7622 76.8251 10.7853 76.6273 10.7853 76.4143V76.2919C10.7853 76.11 10.7578 75.9379 10.7028 75.7746C10.6477 75.6105 10.568 75.4686 10.4633 75.3479C10.3587 75.2272 10.2291 75.1305 10.0749 75.0596C9.92053 74.9886 9.7459 74.9531 9.55078 74.9531V74.9531ZM14.8927 78.28V75.3577L12.9506 78.28H12.4664V74.5805H12.9453V77.5082L14.8927 74.5805H15.3716V78.28H14.8927ZM18.8832 77.2527C18.8832 77.4515 18.8504 77.6191 18.7847 77.7557C18.7191 77.8924 18.6286 78.005 18.5134 78.0937C18.3981 78.1824 18.2633 78.2463 18.109 78.2854C17.9547 78.3244 17.787 78.3439 17.6062 78.3439C17.3649 78.3439 17.1574 78.3031 16.9836 78.2215C16.8098 78.1399 16.6555 77.9961 16.5207 77.7903L16.8985 77.5401C16.9907 77.675 17.0953 77.7699 17.2124 77.8249C17.3295 77.88 17.4713 77.9075 17.6381 77.9075C17.8651 77.9075 18.0514 77.8577 18.1967 77.7584C18.3422 77.659 18.4149 77.4887 18.4149 77.2473C18.4149 77.1267 18.3937 77.0247 18.3511 76.9413C18.3085 76.8579 18.25 76.7896 18.1755 76.7364C18.101 76.6831 18.0123 76.6441 17.9094 76.6193C17.8066 76.5944 17.6949 76.582 17.5742 76.582H17.2976V76.1561H17.5902C17.7073 76.1561 17.8083 76.1366 17.8935 76.0976C17.9786 76.0586 18.0504 76.008 18.109 75.9477C18.1675 75.8874 18.211 75.819 18.2393 75.7445C18.2677 75.6699 18.2819 75.5964 18.2819 75.5254C18.2819 75.3328 18.2242 75.1891 18.109 75.095C17.9937 75.0002 17.8474 74.9531 17.67 74.9531C17.5104 74.9531 17.372 74.9824 17.255 75.0409C17.138 75.0995 17.0368 75.1909 16.9517 75.3151L16.5739 75.0649C16.7087 74.8608 16.8674 74.718 17.0501 74.6373C17.2328 74.5566 17.4466 74.5166 17.6913 74.5166C17.8438 74.5166 17.9848 74.5397 18.1143 74.5858C18.2438 74.632 18.3564 74.6976 18.4522 74.7828C18.5479 74.868 18.6225 74.9727 18.6757 75.0968C18.7289 75.221 18.7555 75.3612 18.7555 75.5173C18.7555 75.5883 18.7457 75.6655 18.7262 75.7489C18.7067 75.8323 18.6792 75.913 18.6437 75.9911C18.6083 76.0692 18.5666 76.141 18.5187 76.2067C18.4709 76.2724 18.4185 76.3229 18.3617 76.3584C18.4362 76.3868 18.5054 76.4303 18.5692 76.4888C18.6331 76.5474 18.6881 76.6175 18.7342 76.6991C18.7803 76.7807 18.8167 76.8694 18.8433 76.9652C18.8699 77.0611 18.8832 77.1569 18.8832 77.2527V77.2527ZM21.421 76.1348C21.5062 76.1348 21.5904 76.1224 21.6737 76.0976C21.7571 76.0728 21.8316 76.0364 21.8973 75.9884C21.9629 75.9405 22.0152 75.8793 22.0542 75.8048C22.0932 75.7303 22.1127 75.6416 22.1127 75.5386C22.1127 75.3364 22.0622 75.1989 21.9611 75.1261C21.86 75.0533 21.7243 75.017 21.554 75.017H20.5324V76.1348H21.421ZM20.5324 76.5714V77.8435H21.6711C21.774 77.8435 21.8653 77.8347 21.9452 77.8169C22.025 77.7992 22.0932 77.7673 22.15 77.7212C22.2067 77.675 22.2493 77.6111 22.2777 77.5295C22.306 77.4479 22.3203 77.345 22.3203 77.2208C22.3203 77.0079 22.2599 76.8464 22.1393 76.7364C22.0187 76.6263 21.852 76.5714 21.6392 76.5714H20.5324ZM22.2511 76.3159C22.4284 76.4045 22.5712 76.5208 22.6795 76.6645C22.7876 76.8082 22.8417 76.9954 22.8417 77.2261C22.8417 77.4142 22.8089 77.5748 22.7433 77.7078C22.6777 77.8409 22.589 77.95 22.4773 78.0352C22.3655 78.1204 22.236 78.1824 22.0888 78.2215C21.9416 78.2605 21.7846 78.28 21.6179 78.28H20.0536V74.5805H21.5381C21.6906 74.5805 21.8325 74.5983 21.9637 74.6337C22.095 74.6692 22.2085 74.726 22.3043 74.8041C22.4001 74.8821 22.4755 74.9815 22.5304 75.1022C22.5854 75.2228 22.6129 75.3683 22.6129 75.5386C22.6129 75.8474 22.4923 76.0958 22.2511 76.2839V76.3159ZM25.6349 78.3439C25.3263 78.3439 25.0621 78.2943 24.8421 78.1949C24.6222 78.0955 24.443 77.9598 24.3047 77.7877C24.1664 77.6155 24.0644 77.4124 23.9987 77.1782C23.9331 76.9439 23.9003 76.6938 23.9003 76.4276V76.2839C23.9003 76.0319 23.9402 75.7977 24.02 75.5813C24.0999 75.3648 24.2143 75.1776 24.3633 75.0196C24.5122 74.8618 24.694 74.7384 24.9086 74.6497C25.1233 74.561 25.3653 74.5166 25.6349 74.5166C25.9045 74.5166 26.1467 74.561 26.3612 74.6497C26.5759 74.7384 26.7576 74.8618 26.9066 75.0196C27.0556 75.1776 27.17 75.3648 27.2498 75.5813C27.3297 75.7977 27.3696 76.0319 27.3696 76.2839V76.4276C27.3696 76.6938 27.3367 76.9439 27.2711 77.1782C27.2055 77.4124 27.1035 77.6155 26.9652 77.7877C26.8268 77.9598 26.6477 78.0955 26.4278 78.1949C26.2078 78.2943 25.9435 78.3439 25.6349 78.3439V78.3439ZM25.6349 74.9531C25.4363 74.9531 25.2607 74.9886 25.1082 75.0596C24.9556 75.1305 24.827 75.2272 24.7223 75.3479C24.6178 75.4686 24.538 75.6105 24.483 75.7746C24.4279 75.9379 24.4005 76.11 24.4005 76.2919V76.4143C24.4005 76.6166 24.4245 76.8082 24.4723 76.9874C24.5202 77.1667 24.5938 77.3255 24.6932 77.4621C24.7925 77.5987 24.9193 77.7078 25.0736 77.7877C25.2279 77.8675 25.4115 77.9075 25.6242 77.9075C25.8442 77.9075 26.0331 77.8693 26.191 77.793C26.3488 77.7167 26.4783 77.6111 26.5794 77.478C26.6805 77.345 26.7541 77.188 26.8002 77.0061C26.8463 76.8251 26.8694 76.6273 26.8694 76.4143V76.2919C26.8694 76.11 26.8419 75.9379 26.7869 75.7746C26.7319 75.6105 26.6521 75.4686 26.5475 75.3479C26.4429 75.2272 26.3134 75.1305 26.1591 75.0596C26.0047 74.9886 25.83 74.9531 25.6349 74.9531V74.9531ZM28.4069 79.0412V77.8435C28.4814 77.8435 28.5461 77.8365 28.6011 77.8222C28.6561 77.8081 28.7048 77.7805 28.7474 77.7398C28.7899 77.6989 28.829 77.644 28.8645 77.5748C28.8999 77.5056 28.9372 77.416 28.9762 77.3059C29.0755 77.0362 29.135 76.7612 29.1545 76.4809C29.174 76.2005 29.1837 75.906 29.1837 75.5972V74.5805H31.3866V77.8435H31.7325V79.0412H31.2908V78.28H28.8485V79.0412H28.4069ZM30.913 77.8435V75.017H29.6414V75.5972C29.6414 75.7889 29.6378 75.9814 29.6307 76.1748C29.6236 76.3682 29.6067 76.5598 29.5801 76.7496C29.5535 76.9395 29.5136 77.1267 29.4604 77.3113C29.4072 77.4958 29.3345 77.6732 29.2422 77.8435H30.913ZM35.377 78.28V75.3577L33.4348 78.28H32.9507V74.5805H33.4295V77.5082L35.377 74.5805H35.8559V78.28H35.377ZM38.5906 75.017V78.28H38.1117V75.017H36.8773V74.5805H39.8197L39.6814 75.017H38.5906ZM43.4749 78.28H40.8305V74.5805H43.4909L43.3525 75.017H41.3093V76.1029H43.1397V76.5394H41.3093V77.8435H43.4749V78.28ZM44.64 78.3439C44.562 78.3439 44.4804 78.3226 44.3952 78.28V77.9075C44.4981 77.9075 44.5824 77.895 44.648 77.8702C44.7136 77.8453 44.7659 77.7992 44.8049 77.7318C44.844 77.6644 44.8741 77.5721 44.8954 77.455C44.9166 77.3379 44.9344 77.1888 44.9486 77.0079L45.1455 74.5805H47.1888V78.28H46.7099V75.017H45.5818L45.4062 77.0079C45.3956 77.1214 45.3769 77.2554 45.3503 77.4097C45.3237 77.5641 45.2821 77.7105 45.2253 77.8489C45.1685 77.9873 45.0931 78.1044 44.9992 78.2002C44.9051 78.296 44.7854 78.3439 44.64 78.3439ZM51.2111 77.1808C51.2111 77.5348 51.1091 77.8063 50.9052 77.9961C50.7011 78.1851 50.4129 78.28 50.0405 78.28H48.4815V74.5805H48.9603V76.1029H50.0671C50.4395 76.1029 50.7233 76.1943 50.9184 76.3762C51.1136 76.5589 51.2111 76.8268 51.2111 77.1808V77.1808ZM50.7375 77.1782C50.7375 76.9546 50.6825 76.7923 50.5726 76.6911C50.4626 76.59 50.287 76.5394 50.0458 76.5394H48.9603V77.8435H50.0192C50.4981 77.8435 50.7375 77.6217 50.7375 77.1782V77.1782ZM56.7234 75.017V78.28H56.2445V75.017H55.01V74.5805H57.9524L57.8141 75.017H56.7234ZM61.6077 78.28H58.9632V74.5805H61.6237L61.4853 75.017H59.442V76.1029H61.2725V76.5394H59.442V77.8435H61.6077V78.28ZM65.0181 78.28V75.017H63.1877V78.28H62.7089V74.5805H65.497V78.28H65.0181ZM66.8536 78.3439C66.7756 78.3439 66.694 78.3226 66.6089 78.28V77.9075C66.7118 77.9075 66.796 77.895 66.8616 77.8702C66.9272 77.8453 66.9796 77.7992 67.0186 77.7318C67.0576 77.6644 67.0877 77.5721 67.109 77.455C67.1303 77.3379 67.1481 77.1888 67.1623 77.0079L67.3592 74.5805H69.4024V78.28H68.9235V75.017H67.7955L67.6199 77.0079C67.6092 77.1214 67.5906 77.2554 67.564 77.4097C67.5373 77.5641 67.4957 77.7105 67.4389 77.8489C67.3821 77.9873 67.3068 78.1044 67.2128 78.2002C67.1188 78.296 66.9991 78.3439 66.8536 78.3439V78.3439ZM72.3233 78.3439C72.0147 78.3439 71.7504 78.2943 71.5305 78.1949C71.3105 78.0955 71.1314 77.9598 70.9931 77.7877C70.8547 77.6155 70.7527 77.4124 70.6871 77.1782C70.6215 76.9439 70.5886 76.6938 70.5886 76.4276V76.2839C70.5886 76.0319 70.6285 75.7977 70.7084 75.5813C70.7882 75.3648 70.9026 75.1776 71.0516 75.0196C71.2005 74.8618 71.3824 74.7384 71.597 74.6497C71.8116 74.561 72.0537 74.5166 72.3233 74.5166C72.5929 74.5166 72.835 74.561 73.0495 74.6497C73.2642 74.7384 73.446 74.8618 73.595 75.0196C73.744 75.1776 73.8584 75.3648 73.9382 75.5813C74.018 75.7977 74.0579 76.0319 74.0579 76.2839V76.4276C74.0579 76.6938 74.0251 76.9439 73.9595 77.1782C73.8939 77.4124 73.7918 77.6155 73.6535 77.7877C73.5152 77.9598 73.336 78.0955 73.1161 78.1949C72.8961 78.2943 72.6319 78.3439 72.3233 78.3439ZM72.3233 74.9531C72.1247 74.9531 71.9491 74.9886 71.7965 75.0596C71.644 75.1305 71.5154 75.2272 71.4107 75.3479C71.3061 75.4686 71.2263 75.6105 71.1713 75.7746C71.1163 75.9379 71.0888 76.11 71.0888 76.2919V76.4143C71.0888 76.6166 71.1128 76.8082 71.1606 76.9874C71.2086 77.1667 71.2822 77.3255 71.3815 77.4621C71.4808 77.5987 71.6076 77.7078 71.7619 77.7877C71.9162 77.8675 72.0998 77.9075 72.3126 77.9075C72.5326 77.9075 72.7215 77.8693 72.8794 77.793C73.0371 77.7167 73.1667 77.6111 73.2677 77.478C73.3688 77.345 73.4425 77.188 73.4886 77.0061C73.5347 76.8251 73.5577 76.6273 73.5577 76.4143V76.2919C73.5577 76.11 73.5303 75.9379 73.4753 75.7746C73.4203 75.6105 73.3405 75.4686 73.2358 75.3479C73.1312 75.2272 73.0017 75.1305 72.8474 75.0596C72.6931 74.9886 72.5184 74.9531 72.3233 74.9531V74.9531ZM76.8671 78.3439C76.5585 78.3439 76.2942 78.2943 76.0743 78.1949C75.8543 78.0955 75.6752 77.9598 75.5368 77.7877C75.3985 77.6155 75.2965 77.4124 75.2309 77.1782C75.1653 76.9439 75.1325 76.6938 75.1325 76.4276V76.2839C75.1325 76.0319 75.1724 75.7977 75.2522 75.5813C75.332 75.3648 75.4464 75.1776 75.5954 75.0196C75.7444 74.8618 75.9262 74.7384 76.1408 74.6497C76.3554 74.561 76.5975 74.5166 76.8671 74.5166C77.1367 74.5166 77.3788 74.561 77.5934 74.6497C77.808 74.7384 77.9898 74.8618 78.1387 75.0196C78.2877 75.1776 78.4022 75.3648 78.482 75.5813C78.5618 75.7977 78.6017 76.0319 78.6017 76.2839V76.4276C78.6017 76.6938 78.5689 76.9439 78.5033 77.1782C78.4376 77.4124 78.3357 77.6155 78.1973 77.7877C78.059 77.9598 77.8798 78.0955 77.66 78.1949C77.44 78.2943 77.1757 78.3439 76.8671 78.3439V78.3439ZM76.8671 74.9531C76.6684 74.9531 76.4929 74.9886 76.3403 75.0596C76.1878 75.1305 76.0592 75.2272 75.9545 75.3479C75.8499 75.4686 75.7701 75.6105 75.7151 75.7746C75.6601 75.9379 75.6327 76.11 75.6327 76.2919V76.4143C75.6327 76.6166 75.6566 76.8082 75.7045 76.9874C75.7524 77.1667 75.826 77.3255 75.9253 77.4621C76.0246 77.5987 76.1514 77.7078 76.3058 77.7877C76.46 77.8675 76.6436 77.9075 76.8564 77.9075C77.0764 77.9075 77.2653 77.8693 77.4231 77.793C77.581 77.7167 77.7105 77.6111 77.8116 77.478C77.9127 77.345 77.9863 77.188 78.0324 77.0061C78.0785 76.8251 78.1016 76.6273 78.1016 76.4143V76.2919C78.1016 76.11 78.0741 75.9379 78.0191 75.7746C77.9641 75.6105 77.8843 75.4686 77.7797 75.3479C77.675 75.2272 77.5455 75.1305 77.3912 75.0596C77.2369 74.9886 77.0622 74.9531 76.8671 74.9531V74.9531ZM82.5496 77.1835C82.5496 77.3787 82.5221 77.5455 82.4671 77.6839C82.4121 77.8222 82.3323 77.9358 82.2277 78.0246C82.123 78.1132 81.9971 78.178 81.8499 78.2189C81.7027 78.2596 81.5386 78.28 81.3577 78.28H79.7827V74.5805H82.1824L82.0441 75.017H80.2616V76.0976H81.3843C81.7532 76.0976 82.0396 76.1819 82.2436 76.3504C82.4476 76.519 82.5496 76.7967 82.5496 77.1835V77.1835ZM82.092 77.1835C82.092 76.9386 82.0326 76.7692 81.9137 76.6752C81.7949 76.5811 81.6237 76.5341 81.4002 76.5341H80.2616V77.8435H81.3737C81.4765 77.8435 81.5723 77.832 81.661 77.809C81.7496 77.7859 81.826 77.7477 81.8898 77.6945C81.9536 77.6413 82.0033 77.573 82.0388 77.4896C82.0742 77.4062 82.092 77.3041 82.092 77.1835V77.1835ZM83.6667 78.28V74.5805H84.417L85.4652 77.1994L86.5506 74.5805H87.2211V78.28H86.7422V75.1873L85.678 77.8435H85.2205L84.1456 75.1235V78.28H83.6667ZM91.153 78.28H88.5085V74.5805H91.169L91.0305 75.017H88.9874V76.1029H90.8177V76.5394H88.9874V77.8435H91.153V78.28ZM92.733 76.5394V78.28H92.2542V74.5805H92.733V76.1029H94.6805V74.5805H95.1594V78.28H94.6805V76.5394H92.733ZM96.931 76.5394V78.28H96.4521V74.5805H96.931V76.1029H98.8784V74.5805H99.3573V78.28H98.8784V76.5394H96.931ZM103.076 78.28V75.3577L101.134 78.28H100.65V74.5805H101.129V77.5082L103.076 74.5805H103.555V78.28H103.076ZM105.327 74.5805V76.1988H105.699L106.758 74.5805H107.306L106.157 76.3744L107.53 78.28H106.955L105.71 76.5501H105.327V78.28H104.848V74.5805H105.327ZM110.296 78.3439C109.988 78.3439 109.724 78.2943 109.504 78.1949C109.284 78.0955 109.105 77.9598 108.966 77.7877C108.828 77.6155 108.726 77.4124 108.66 77.1782C108.595 76.9439 108.562 76.6938 108.562 76.4276V76.2839C108.562 76.0319 108.602 75.7977 108.682 75.5813C108.761 75.3648 108.876 75.1776 109.025 75.0196C109.174 74.8618 109.355 74.7384 109.57 74.6497C109.785 74.561 110.027 74.5166 110.296 74.5166C110.566 74.5166 110.808 74.561 111.023 74.6497C111.237 74.7384 111.419 74.8618 111.568 75.0196C111.717 75.1776 111.831 75.3648 111.911 75.5813C111.991 75.7977 112.031 76.0319 112.031 76.2839V76.4276C112.031 76.6938 111.998 76.9439 111.933 77.1782C111.867 77.4124 111.765 77.6155 111.627 77.7877C111.488 77.9598 111.309 78.0955 111.089 78.1949C110.869 78.2943 110.605 78.3439 110.296 78.3439V78.3439ZM110.296 74.9531C110.098 74.9531 109.922 74.9886 109.77 75.0596C109.617 75.1305 109.488 75.2272 109.384 75.3479C109.279 75.4686 109.199 75.6105 109.144 75.7746C109.089 75.9379 109.062 76.11 109.062 76.2919V76.4143C109.062 76.6166 109.086 76.8082 109.134 76.9874C109.182 77.1667 109.255 77.3255 109.355 77.4621C109.454 77.5987 109.581 77.7078 109.735 77.7877C109.889 77.8675 110.073 77.9075 110.286 77.9075C110.506 77.9075 110.695 77.8693 110.852 77.793C111.01 77.7167 111.14 77.6111 111.241 77.478C111.342 77.345 111.416 77.188 111.462 77.0061C111.508 76.8251 111.531 76.6273 111.531 76.4143V76.2919C111.531 76.11 111.503 75.9379 111.448 75.7746C111.393 75.6105 111.314 75.4686 111.209 75.3479C111.104 75.2272 110.975 75.1305 110.821 75.0596C110.666 74.9886 110.491 74.9531 110.296 74.9531ZM114.579 76.1348C114.665 76.1348 114.749 76.1224 114.832 76.0976C114.916 76.0728 114.99 76.0364 115.056 75.9884C115.121 75.9405 115.174 75.8793 115.213 75.8048C115.252 75.7303 115.271 75.6416 115.271 75.5386C115.271 75.3364 115.221 75.1989 115.12 75.1261C115.019 75.0533 114.883 75.017 114.712 75.017H113.691V76.1348H114.579ZM113.691 76.5714V77.8435H114.83C114.932 77.8435 115.024 77.8347 115.104 77.8169C115.183 77.7992 115.252 77.7673 115.308 77.7212C115.365 77.675 115.408 77.6111 115.436 77.5295C115.465 77.4479 115.479 77.345 115.479 77.2208C115.479 77.0079 115.418 76.8464 115.298 76.7364C115.177 76.6263 115.01 76.5714 114.798 76.5714H113.691ZM115.41 76.3159C115.587 76.4045 115.73 76.5208 115.838 76.6645C115.946 76.8082 116 76.9954 116 77.2261C116 77.4142 115.967 77.5748 115.902 77.7078C115.836 77.8409 115.747 77.95 115.636 78.0352C115.524 78.1204 115.395 78.1824 115.247 78.2215C115.1 78.2605 114.943 78.28 114.776 78.28H113.212V74.5805H114.697C114.849 74.5805 114.991 74.5983 115.122 74.6337C115.254 74.6692 115.367 74.726 115.463 74.8041C115.559 74.8821 115.634 74.9815 115.689 75.1022C115.744 75.2228 115.771 75.3683 115.771 75.5386C115.771 75.8474 115.651 76.0958 115.41 76.2839V76.3159Z" fill="#E7441C"/>
<path fill-rule="evenodd" clip-rule="evenodd" d="M6.86784 71.7696V61.7759H11.2026V59.2776H0V61.7759H4.37046V71.7696H6.86784ZM23.0475 71.7696V69.2712H14.9488V66.7906H22.4232V64.2922H14.9488V61.7759H23.0475V59.2776H12.4514V71.7696H23.0475ZM27.1504 65.5414V61.7759H33.376V65.5414H27.1504ZM27.1504 71.7696V68.0398H34.6247L35.8556 66.7906V60.5446L34.6247 59.2776H24.6529V71.7696H27.1504ZM39.9585 71.7696V63.3464L43.2943 68.1469H45.3815L48.6459 63.3464V71.7696H51.1433V59.2776H48.7351L44.3111 65.3273L39.9585 59.2776H37.4611V71.7696H39.9585ZM55.4246 69.2712V61.7759H61.6502V69.2712H55.4246ZM62.8989 71.7696L64.1297 70.5382V60.5446L62.8989 59.2776H54.158L52.9272 60.5446V70.5382L54.158 71.7696H62.8989ZM68.411 69.2712V66.7906H74.6367V69.2712H68.411ZM75.8854 71.7696L77.1163 70.5382V65.5414L75.8854 64.2922H68.411V61.7759H76.5097V59.2776H65.9136V71.7696H75.8854ZM81.0408 71.7696V64.2744L83.5204 61.7759H87.2665V71.7696H89.746V59.2776H82.2716L78.5433 63.0252V71.7696H81.0408ZM94.0273 69.2712V61.7759H100.253V69.2712H94.0273ZM101.502 71.7696L102.733 70.5382V60.5446L101.502 59.2776H92.7608L91.5299 60.5446V70.5382L92.7608 71.7696H101.502ZM107.014 71.7696V66.7906H110.742L113.239 69.2712V71.7696H115.719V68.0398L113.239 65.5414L115.719 63.043V59.2776H113.239V61.7938L110.742 64.2922H107.014V59.2776H104.516V71.7696H107.014Z" fill="#868789"/>
</g>
<defs>
<linearGradient id="paint0_linear" x1="42.5889" y1="23.0747" x2="42.5889" y2="49.2065" gradientUnits="userSpaceOnUse">
<stop stop-color="#868789"/>
<stop offset="0.47" stop-color="#868789"/>
<stop offset="1" stop-color="#C5C7C8"/>
</linearGradient>
<linearGradient id="paint1_linear" x1="32.7061" y1="-2.75473e-06" x2="32.7061" y2="29.589" gradientUnits="userSpaceOnUse">
<stop stop-color="#E7441C"/>
<stop offset="0.47" stop-color="#E7441C"/>
<stop offset="1" stop-color="#F07C00"/>
</linearGradient>
<linearGradient id="paint2_linear" x1="31.2666" y1="6.96192" x2="31.2666" y2="36.9134" gradientUnits="userSpaceOnUse">
<stop stop-color="#E7441C"/>
<stop offset="0.47" stop-color="#E7441C"/>
<stop offset="1" stop-color="#F07C00"/>
</linearGradient>
<linearGradient id="paint3_linear" x1="37.3276" y1="17.0122" x2="37.3276" y2="39.5897" gradientUnits="userSpaceOnUse">
<stop stop-color="#868789"/>
<stop offset="0.47" stop-color="#868789"/>
<stop offset="1" stop-color="#C5C7C8"/>
</linearGradient>
<clipPath id="clip0">
<rect width="116" height="79.0413" fill="white"/>
</clipPath>
</defs>
</svg>
