<svg width="32" height="32" viewBox="0 0 32 32" fill="none" xmlns="http://www.w3.org/2000/svg">
<g clip-path="url(#clip0)">
<path opacity="0.2" d="M17.7984 25.0175C26.0228 23.0424 31.8845 18.747 30.8909 15.4234C29.8972 12.0999 22.4246 11.0067 14.2002 12.9819C5.97579 14.957 0.114074 19.2524 1.10768 22.576C2.1013 25.8995 9.57397 26.9927 17.7984 25.0175Z" fill="black"/>
<path d="M15.0004 7C8.00042 7 9.62856 13.1709 6.04455 15.0971C2.4085 17.16 4.41178 19.0067 5.00042 21C5.9935 24.3237 8.77537 21.9754 17.0004 20C25.2251 18.025 26.9936 18.3235 26.0004 15C25.4049 13.0289 27.3595 11.2021 23.1093 11.0282C19.6547 11.2174 20.0004 7 15.0004 7V7Z" fill="#4F4F4F"/>
<path opacity="0.1" d="M15.0002 7C8.00024 7 9.62917 13.1714 6.04516 15.0977C4.10617 16.1977 3.78596 17.2354 3.98462 18.2676C4.158 17.5608 4.72995 16.8419 6.04516 16.0957C9.62917 14.1695 8.00024 8 15.0002 8C20.0002 8 19.655 12.2166 23.1096 12.0273C25.1934 12.1126 25.7836 12.5968 25.9163 13.2988C26.0182 12.0817 26.0732 11.1486 23.1096 11.0273C19.655 11.2166 20.0002 7 15.0002 7ZM25.9045 14.4297C25.8642 14.922 25.835 15.4532 26.0002 16C26.0896 16.2992 26.1477 16.5599 26.1897 16.8047C26.3056 16.3487 26.232 15.7755 26.0002 15C25.942 14.8071 25.9222 14.6184 25.9045 14.4297Z" fill="white"/>
<path d="M17.7993 24.0183C26.0237 22.0431 31.8854 17.7477 30.8918 14.4242C29.8982 11.1006 22.4256 10.0075 14.2012 11.9826C5.97676 13.9577 0.115051 18.2532 1.10866 21.5767C2.10227 24.9003 9.57494 25.9934 17.7993 24.0183Z" fill="#2E72DE"/>
<path opacity="0.2" d="M17.6776 26.579C21.5253 25.6598 24.341 23.536 23.9665 21.8353C23.592 20.1347 20.1692 19.5013 16.3214 20.4206C12.4737 21.3398 9.65808 23.4636 10.0326 25.1642C10.4071 26.8648 13.8299 27.4983 17.6776 26.579Z" fill="black"/>
<path d="M17.6776 25.5788C21.5253 24.6596 24.341 22.5358 23.9665 20.8352C23.592 19.1346 20.1692 18.5011 16.3214 19.4204C12.4737 20.3396 9.65808 22.4635 10.0326 24.1641C10.4071 25.8647 13.8299 26.4981 17.6776 25.5788Z" fill="white"/>
<path opacity="0.1" d="M21.5606 11.0039C19.2266 11.0466 16.696 11.3831 14.2013 11.9824C10.3815 12.9018 6.88695 14.3788 4.44041 16.1081C1.99388 17.8374 0.782472 19.6867 1.05672 21.2734C1.34984 19.7522 2.81672 18.0974 5.21064 16.5874C7.60456 15.0774 10.7794 13.8044 14.2013 12.9824C16.157 12.5127 18.1401 12.2032 20.0374 12.0717C21.9347 11.9402 23.709 11.9892 25.2589 12.2159C26.8089 12.4426 28.1042 12.8426 29.0708 13.393C30.0375 13.9434 30.6565 14.6335 30.8927 15.4238C30.9155 15.5234 30.9325 15.6243 30.9434 15.7265C31.0319 15.2728 31.0149 14.8363 30.8927 14.4238C30.57 13.3431 29.5332 12.4553 27.8911 11.8535C26.2491 11.2518 24.0624 10.9583 21.5606 11.0039V11.0039Z" fill="white"/>
</g>
<defs>
<clipPath id="clip0">
<rect width="32" height="32" fill="white"/>
</clipPath>
</defs>
</svg>
